{
.appVersion = "1356";
DisplayStrings = (

glyphs = (
{
glyphname = A;
layers = (
{
hints = (
{
horizontal = 1;
place = "{-91, 35}";
type = Stem;
},
{
horizontal = 1;
place = "{280, 34}";
type = Stem;
},
{
place = "{13, 32}";
type = Stem;
},
{
place = "{279, 33}";
type = Stem;
},
{
place = "{789, 34}";
type = Stem;
},
{
horizontal = 1;
place = "{252, 34}";
type = Stem;
},
{
place = "{796, 34}";
type = Stem;
},
{
horizontal = 1;
place = "{265, 34}";
type = Stem;
},
{
horizontal = 1;
place = "{264, 23}";
type = Stem;
}
);
layerId = "769237BE-90A6-4D5E-A4C9-331744B3656A";
paths = (
{
closed = 1;
nodes = (
"940 317 OFFCURVE",
"934 322 OFFCURVE",
"923 322 CURVE SMOOTH",
"915 322 OFFCURVE",
"910 321 OFFCURVE",
"907 308 CURVE SMOOTH",
"906 301 OFFCURVE",
"901 296 OFFCURVE",
"893 292 CURVE SMOOTH",
"885 288 OFFCURVE",
"864 286 OFFCURVE",
"830 286 CURVE",
"840 383 OFFCURVE",
"853 477 OFFCURVE",
"868 566 CURVE",
"880 619 LINE SMOOTH",
"885 647 OFFCURVE",
"888 664 OFFCURVE",
"888 671 CURVE SMOOTH",
"888 683 OFFCURVE",
"882 689 OFFCURVE",
"869 689 CURVE SMOOTH",
"864 689 OFFCURVE",
"859 687 OFFCURVE",
"856 682 CURVE SMOOTH",
"847 669 OFFCURVE",
"835 647 OFFCURVE",
"820 616 CURVE SMOOTH",
"765 504 OFFCURVE",
"703 398 OFFCURVE",
"634 299 CURVE",
"566 302 OFFCURVE",
"523 289 OFFCURVE",
"505 262 CURVE SMOOTH",
"503 259 OFFCURVE",
"502 256 OFFCURVE",
"502 253 CURVE SMOOTH",
"502 243 OFFCURVE",
"507 238 OFFCURVE",
"518 238 CURVE SMOOTH",
"523 238 OFFCURVE",
"528 240 OFFCURVE",
"533 244 CURVE SMOOTH",
"548 258 OFFCURVE",
"573 265 OFFCURVE",
"610 265 CURVE",
"456 51 OFFCURVE",
"322 -56 OFFCURVE",
"207 -56 CURVE SMOOTH",
"154 -56 OFFCURVE",
"113 -40 OFFCURVE",
"84 -8 CURVE SMOOTH",
"58 21 OFFCURVE",
"45 58 OFFCURVE",
"45 102 CURVE SMOOTH",
"45 149 OFFCURVE",
"59 189 OFFCURVE",
"86 224 CURVE SMOOTH",
"116 261 OFFCURVE",
"154 280 OFFCURVE",
"200 280 CURVE SMOOTH",
"253 280 OFFCURVE",
"279 261 OFFCURVE",
"279 223 CURVE SMOOTH",
"279 212 OFFCURVE",
"284 207 OFFCURVE",
"294 207 CURVE SMOOTH",
"306 207 OFFCURVE",
"312 213 OFFCURVE",
"312 225 CURVE SMOOTH",
"312 255 OFFCURVE",
"300 278 OFFCURVE",
"277 294 CURVE SMOOTH",
"256 307 OFFCURVE",
"231 314 OFFCURVE",
"201 314 CURVE SMOOTH",
"144 314 OFFCURVE",
"98 292 OFFCURVE",
"62 247 CURVE SMOOTH",
"29 206 OFFCURVE",
"13 157 OFFCURVE",
"13 101 CURVE SMOOTH",
"13 48 OFFCURVE",
"29 3 OFFCURVE",
"60 -32 CURVE SMOOTH",
"95 -71 OFFCURVE",
"145 -91 OFFCURVE",
"209 -91 CURVE SMOOTH",
"334 -91 OFFCURVE",
"482 27 OFFCURVE",
"651 264 CURVE",
"714 260 OFFCURVE",
"762 256 OFFCURVE",
"794 253 CURVE",
"791 217 OFFCURVE",
"789 184 OFFCURVE",
"789 153 CURVE SMOOTH",
"789 54 OFFCURVE",
"805 -6 OFFCURVE",
"837 -26 CURVE SMOOTH",
"850 -35 OFFCURVE",
"861 -39 OFFCURVE",
"868 -39 CURVE SMOOTH",
"883 -39 OFFCURVE",
"891 -33 OFFCURVE",
"891 -22 CURVE SMOOTH",
"891 -14 OFFCURVE",
"885 -9 OFFCURVE",
"873 -6 CURVE SMOOTH",
"859 -2 OFFCURVE",
"848 7 OFFCURVE",
"840 20 CURVE SMOOTH",
"829 39 OFFCURVE",
"823 82 OFFCURVE",
"823 147 CURVE SMOOTH",
"823 178 OFFCURVE",
"825 213 OFFCURVE",
"828 252 CURVE",
"903 250 OFFCURVE",
"940 268 OFFCURVE",
"940 306 CURVE SMOOTH"
);
},
{
closed = 1;
nodes = (
"813 438 OFFCURVE",
"801 345 OFFCURVE",
"796 287 CURVE",
"741 292 OFFCURVE",
"700 295 OFFCURVE",
"673 297 CURVE",
"726 373 OFFCURVE",
"779 463 OFFCURVE",
"834 566 CURVE"
);
}
);
width = 940;
}
);
note = A;
unicode = 0041;
},
{
glyphname = AE;
layers = (
{
hints = (
{
horizontal = 1;
place = "{-91, 35}";
type = Stem;
},
{
horizontal = 1;
place = "{280, 34}";
type = Stem;
},
{
horizontal = 1;
place = "{345, 69}";
type = Stem;
},
{
horizontal = 1;
place = "{482, 33}";
type = Stem;
},
{
horizontal = 1;
place = "{668, 34}";
type = Stem;
},
{
place = "{13, 32}";
type = Stem;
},
{
place = "{279, 33}";
type = Stem;
},
{
place = "{790, 33}";
type = Stem;
},
{
place = "{959, 34}";
type = Stem;
},
{
place = "{1207, 35}";
type = Stem;
},
{
place = "{1328, 33}";
type = Stem;
},
{
horizontal = 1;
place = "{254, 33}";
type = Stem;
},
{
place = "{796, 34}";
type = Stem;
},
{
place = "{1359, 34}";
type = Stem;
},
{
horizontal = 1;
place = "{265, 34}";
type = Stem;
},
{
horizontal = 1;
place = "{-65, 35}";
type = Stem;
},
{
horizontal = 1;
place = "{216, 34}";
type = Stem;
}
);
layerId = "769237BE-90A6-4D5E-A4C9-331744B3656A";
paths = (
{
closed = 1;
nodes = (
"813 438 OFFCURVE",
"801 345 OFFCURVE",
"796 287 CURVE",
"741 292 OFFCURVE",
"700 295 OFFCURVE",
"673 297 CURVE",
"726 373 OFFCURVE",
"779 463 OFFCURVE",
"834 566 CURVE"
);
},
{
closed = 1;
nodes = (
"1393 628 OFFCURVE",
"1376 658 OFFCURVE",
"1342 678 CURVE SMOOTH",
"1315 694 OFFCURVE",
"1281 702 OFFCURVE",
"1240 702 CURVE SMOOTH",
"1174 702 OFFCURVE",
"1113 684 OFFCURVE",
"1056 649 CURVE SMOOTH",
"991 608 OFFCURVE",
"959 556 OFFCURVE",
"959 493 CURVE SMOOTH",
"959 452 OFFCURVE",
"975 417 OFFCURVE",
"1008 388 CURVE",
"946 365 OFFCURVE",
"895 331 OFFCURVE",
"856 286 CURVE",
"830 286 LINE",
"840 383 OFFCURVE",
"853 477 OFFCURVE",
"868 566 CURVE",
"880 619 LINE SMOOTH",
"885 647 OFFCURVE",
"888 664 OFFCURVE",
"888 671 CURVE SMOOTH",
"888 683 OFFCURVE",
"882 689 OFFCURVE",
"869 689 CURVE SMOOTH",
"864 689 OFFCURVE",
"859 687 OFFCURVE",
"856 682 CURVE SMOOTH",
"847 669 OFFCURVE",
"835 647 OFFCURVE",
"820 616 CURVE SMOOTH",
"765 504 OFFCURVE",
"703 398 OFFCURVE",
"634 299 CURVE",
"566 302 OFFCURVE",
"523 289 OFFCURVE",
"505 262 CURVE SMOOTH",
"503 259 OFFCURVE",
"502 256 OFFCURVE",
"502 253 CURVE SMOOTH",
"502 243 OFFCURVE",
"507 238 OFFCURVE",
"518 238 CURVE SMOOTH",
"523 238 OFFCURVE",
"528 240 OFFCURVE",
"533 244 CURVE SMOOTH",
"548 258 OFFCURVE",
"573 265 OFFCURVE",
"610 265 CURVE",
"456 51 OFFCURVE",
"322 -56 OFFCURVE",
"207 -56 CURVE SMOOTH",
"154 -56 OFFCURVE",
"113 -40 OFFCURVE",
"84 -8 CURVE SMOOTH",
"58 21 OFFCURVE",
"45 58 OFFCURVE",
"45 102 CURVE SMOOTH",
"45 149 OFFCURVE",
"59 189 OFFCURVE",
"86 224 CURVE SMOOTH",
"116 261 OFFCURVE",
"154 280 OFFCURVE",
"200 280 CURVE SMOOTH",
"253 280 OFFCURVE",
"279 261 OFFCURVE",
"279 223 CURVE SMOOTH",
"279 212 OFFCURVE",
"284 207 OFFCURVE",
"294 207 CURVE SMOOTH",
"306 207 OFFCURVE",
"312 213 OFFCURVE",
"312 225 CURVE SMOOTH",
"312 255 OFFCURVE",
"300 278 OFFCURVE",
"277 294 CURVE SMOOTH",
"256 307 OFFCURVE",
"231 314 OFFCURVE",
"201 314 CURVE SMOOTH",
"144 314 OFFCURVE",
"98 292 OFFCURVE",
"62 247 CURVE SMOOTH",
"29 206 OFFCURVE",
"13 157 OFFCURVE",
"13 101 CURVE SMOOTH",
"13 48 OFFCURVE",
"29 3 OFFCURVE",
"60 -32 CURVE SMOOTH",
"95 -71 OFFCURVE",
"145 -91 OFFCURVE",
"209 -91 CURVE SMOOTH",
"334 -91 OFFCURVE",
"482 27 OFFCURVE",
"651 264 CURVE",
"684 263 OFFCURVE",
"731 259 OFFCURVE",
"792 254 CURVE",
"795 229 OFFCURVE",
"799 212 OFFCURVE",
"805 204 CURVE",
"795 178 OFFCURVE",
"790 151 OFFCURVE",
"790 123 CURVE SMOOTH",
"790 62 OFFCURVE",
"816 15 OFFCURVE",
"869 -20 CURVE SMOOTH",
"914 -50 OFFCURVE",
"968 -65 OFFCURVE",
"1031 -65 CURVE SMOOTH",
"1101 -65 OFFCURVE",
"1164 -52 OFFCURVE",
"1220 -25 CURVE SMOOTH",
"1288 6 OFFCURVE",
"1332 51 OFFCURVE",
"1353 110 CURVE SMOOTH",
"1358 127 OFFCURVE",
"1361 144 OFFCURVE",
"1361 163 CURVE SMOOTH",
"1361 221 OFFCURVE",
"1339 250 OFFCURVE",
"1294 250 CURVE SMOOTH",
"1259 250 OFFCURVE",
"1241 243 OFFCURVE",
"1241 229 CURVE SMOOTH",
"1241 217 OFFCURVE",
"1247 211 OFFCURVE",
"1258 211 CURVE SMOOTH",
"1266 211 OFFCURVE",
"1285 216 OFFCURVE",
"1293 216 CURVE SMOOTH",
"1316 216 OFFCURVE",
"1328 200 OFFCURVE",
"1328 168 CURVE SMOOTH",
"1328 103 OFFCURVE",
"1294 52 OFFCURVE",
"1225 15 CURVE SMOOTH",
"1168 -15 OFFCURVE",
"1104 -30 OFFCURVE",
"1032 -30 CURVE SMOOTH",
"975 -30 OFFCURVE",
"927 -19 OFFCURVE",
"890 4 CURVE SMOOTH",
"845 32 OFFCURVE",
"823 72 OFFCURVE",
"823 124 CURVE SMOOTH",
"823 170 OFFCURVE",
"839 213 OFFCURVE",
"872 253 CURVE",
"876 255 OFFCURVE",
"879 258 OFFCURVE",
"880 262 CURVE",
"923 310 OFFCURVE",
"978 344 OFFCURVE",
"1045 364 CURVE",
"1072 351 OFFCURVE",
"1110 345 OFFCURVE",
"1159 345 CURVE SMOOTH",
"1212 345 OFFCURVE",
"1238 357 OFFCURVE",
"1238 382 CURVE SMOOTH",
"1238 403 OFFCURVE",
"1219 414 OFFCURVE",
"1181 414 CURVE SMOOTH",
"1128 414 OFFCURVE",
"1084 409 OFFCURVE",
"1048 400 CURVE",
"1011 421 OFFCURVE",
"993 453 OFFCURVE",
"993 495 CURVE SMOOTH",
"993 547 OFFCURVE",
"1022 590 OFFCURVE",
"1080 624 CURVE SMOOTH",
"1131 653 OFFCURVE",
"1185 668 OFFCURVE",
"1242 668 CURVE SMOOTH",
"1273 668 OFFCURVE",
"1299 663 OFFCURVE",
"1320 652 CURVE SMOOTH",
"1346 639 OFFCURVE",
"1359 620 OFFCURVE",
"1359 593 CURVE SMOOTH",
"1359 546 OFFCURVE",
"1321 515 OFFCURVE",
"1273 515 CURVE SMOOTH",
"1252 515 OFFCURVE",
"1242 521 OFFCURVE",
"1242 534 CURVE SMOOTH",
"1242 538 OFFCURVE",
"1246 549 OFFCURVE",
"1246 553 CURVE SMOOTH",
"1246 565 OFFCURVE",
"1240 571 OFFCURVE",
"1228 571 CURVE SMOOTH",
"1216 571 OFFCURVE",
"1207 549 OFFCURVE",
"1207 537 CURVE SMOOTH",
"1207 504 OFFCURVE",
"1241 482 OFFCURVE",
"1273 482 CURVE SMOOTH",
"1304 482 OFFCURVE",
"1331 492 OFFCURVE",
"1356 512 CURVE SMOOTH",
"1381 532 OFFCURVE",
"1393 557 OFFCURVE",
"1393 588 CURVE SMOOTH"
);
}
);
width = 1404;
}
);
note = AE;
unicode = 00C6;
},
{
glyphname = B;
lastChange = "2021-11-28 06:04:56 +0000";
layers = (
{
hints = (
{
horizontal = 1;
place = "{-65, 34}";
type = Stem;
},
{
horizontal = 1;
place = "{261, 34}";
type = Stem;
},
{
horizontal = 1;
place = "{395, 33}";
type = Stem;
},
{
horizontal = 1;
place = "{678, 33}";
type = Stem;
},
{
place = "{-24, 34}";
type = Stem;
},
{
place = "{615, 34}";
type = Stem;
},
{
horizontal = 1;
place = "{705, 23}";
type = Stem;
},
{
place = "{26, 36}";
type = Stem;
},
{
horizontal = 1;
place = "{-88, 34}";
type = Stem;
},
{
horizontal = 1;
place = "{343, 56}";
type = Stem;
}
);
layerId = "769237BE-90A6-4D5E-A4C9-331744B3656A";
paths = (
{
closed = 1;
nodes = (
"649 586 OFFCURVE",
"625 626 OFFCURVE",
"578 657 CURVE SMOOTH",
"543 680 OFFCURVE",
"497 696 OFFCURVE",
"441 705 CURVE",
"442 706 OFFCURVE",
"442 708 OFFCURVE",
"442 710 CURVE SMOOTH",
"442 722 OFFCURVE",
"436 728 OFFCURVE",
"424 728 CURVE SMOOTH",
"415 728 OFFCURVE",
"405 722 OFFCURVE",
"394 711 CURVE",
"272 711 OFFCURVE",
"177 688 OFFCURVE",
"110 641 CURVE SMOOTH",
"54 602 OFFCURVE",
"26 556 OFFCURVE",
"26 502 CURVE SMOOTH",
"26 442 OFFCURVE",
"73 395 OFFCURVE",
"141 395 CURVE SMOOTH",
"180 395 OFFCURVE",
"209 409 OFFCURVE",
"228 438 CURVE SMOOTH",
"230 441 OFFCURVE",
"231 443 OFFCURVE",
"231 446 CURVE SMOOTH",
"231 457 OFFCURVE",
"225 463 OFFCURVE",
"213 463 CURVE SMOOTH",
"212 463 OFFCURVE",
"203 457 OFFCURVE",
"188 445 CURVE SMOOTH",
"173 434 OFFCURVE",
"156 428 OFFCURVE",
"137 428 CURVE SMOOTH",
"90 428 OFFCURVE",
"62 459 OFFCURVE",
"62 500 CURVE SMOOTH",
"62 563 OFFCURVE",
"99 611 OFFCURVE",
"174 644 CURVE SMOOTH",
"234 670 OFFCURVE",
"300 681 OFFCURVE",
"373 678 CURVE",
"334 605 OFFCURVE",
"297 501 OFFCURVE",
"262 367 CURVE SMOOTH",
"221 209 OFFCURVE",
"189 103 OFFCURVE",
"168 50 CURVE SMOOTH",
"161 30 OFFCURVE",
"151 10 OFFCURVE",
"140 -9 CURVE",
"53 21 OFFCURVE",
"10 68 OFFCURVE",
"10 132 CURVE SMOOTH",
"10 161 OFFCURVE",
"20 189 OFFCURVE",
"40 216 CURVE SMOOTH",
"62 246 OFFCURVE",
"87 261 OFFCURVE",
"114 261 CURVE SMOOTH",
"121 261 OFFCURVE",
"135 256 OFFCURVE",
"140 256 CURVE SMOOTH",
"151 256 OFFCURVE",
"156 262 OFFCURVE",
"156 274 CURVE SMOOTH",
"156 288 OFFCURVE",
"142 295 OFFCURVE",
"115 295 CURVE SMOOTH",
"77 295 OFFCURVE",
"44 277 OFFCURVE",
"16 240 CURVE SMOOTH",
"-11 206 OFFCURVE",
"-24 170 OFFCURVE",
"-24 131 CURVE SMOOTH",
"-24 54 OFFCURVE",
"24 -2 OFFCURVE",
"120 -37 CURVE",
"112 -48 OFFCURVE",
"106 -54 OFFCURVE",
"102 -54 CURVE SMOOTH",
"89 -54 OFFCURVE",
"83 -59 OFFCURVE",
"83 -68 CURVE SMOOTH",
"83 -77 OFFCURVE",
"88 -84 OFFCURVE",
"98 -88 CURVE",
"119 -85 OFFCURVE",
"138 -72 OFFCURVE",
"154 -49 CURVE",
"195 -60 OFFCURVE",
"239 -65 OFFCURVE",
"286 -65 CURVE SMOOTH",
"353 -65 OFFCURVE",
"415 -54 OFFCURVE",
"470 -33 CURVE SMOOTH",
"535 -8 OFFCURVE",
"584 30 OFFCURVE",
"617 80 CURVE SMOOTH",
"639 115 OFFCURVE",
"650 150 OFFCURVE",
"650 185 CURVE SMOOTH",
"650 261 OFFCURVE",
"598 329 OFFCURVE",
"515 368 CURVE",
"604 406 OFFCURVE",
"649 462 OFFCURVE",
"649 536 CURVE SMOOTH"
);
},
{
closed = 1;
nodes = (
"615 497 OFFCURVE",
"599 464 OFFCURVE",
"567 436 CURVE SMOOTH",
"539 411 OFFCURVE",
"504 395 OFFCURVE",
"463 388 CURVE",
"432 395 OFFCURVE",
"401 399 OFFCURVE",
"372 399 CURVE SMOOTH",
"361 399 OFFCURVE",
"348 397 OFFCURVE",
"334 392 CURVE SMOOTH",
"315 387 OFFCURVE",
"306 379 OFFCURVE",
"306 369 CURVE SMOOTH",
"306 360 OFFCURVE",
"315 353 OFFCURVE",
"333 348 CURVE SMOOTH",
"346 345 OFFCURVE",
"359 343 OFFCURVE",
"372 343 CURVE SMOOTH",
"397 343 OFFCURVE",
"427 346 OFFCURVE",
"461 353 CURVE",
"552 325 OFFCURVE",
"615 259 OFFCURVE",
"615 183 CURVE SMOOTH",
"615 153 OFFCURVE",
"605 123 OFFCURVE",
"586 94 CURVE SMOOTH",
"557 50 OFFCURVE",
"513 17 OFFCURVE",
"453 -4 CURVE SMOOTH",
"403 -22 OFFCURVE",
"347 -31 OFFCURVE",
"286 -31 CURVE SMOOTH",
"248 -31 OFFCURVE",
"211 -27 OFFCURVE",
"174 -19 CURVE",
"183 -2 OFFCURVE",
"192 17 OFFCURVE",
"201 38 CURVE SMOOTH",
"222 91 OFFCURVE",
"244 159 OFFCURVE",
"266 240 CURVE SMOOTH",
"285 309 OFFCURVE",
"303 377 OFFCURVE",
"321 446 CURVE SMOOTH",
"350 547 OFFCURVE",
"380 623 OFFCURVE",
"410 676 CURVE",
"547 660 OFFCURVE",
"615 613 OFFCURVE",
"615 535 CURVE SMOOTH"
);
}
);
width = 682;
}
);
note = B;
unicode = 0042;
},
{
glyphname = C;
layers = (
{
hints = (
{
horizontal = 1;
place = "{-96, 34}";
type = Stem;
},
{
horizontal = 1;
place = "{339, 35}";
type = Stem;
},
{
horizontal = 1;
place = "{675, 34}";
type = Stem;
},
{
place = "{25, 35}";
type = Stem;
},
{
place = "{409, 35}";
type = Stem;
},
{
place = "{674, 34}";
type = Stem;
}
);
layerId = "769237BE-90A6-4D5E-A4C9-331744B3656A";
paths = (
{
closed = 1;
nodes = (
"708 570 OFFCURVE",
"682 622 OFFCURVE",
"631 659 CURVE SMOOTH",
"586 692 OFFCURVE",
"529 709 OFFCURVE",
"462 709 CURVE SMOOTH",
"339 709 OFFCURVE",
"234 660 OFFCURVE",
"148 563 CURVE SMOOTH",
"66 470 OFFCURVE",
"25 361 OFFCURVE",
"25 236 CURVE SMOOTH",
"25 135 OFFCURVE",
"55 55 OFFCURVE",
"116 -5 CURVE SMOOTH",
"177 -66 OFFCURVE",
"258 -96 OFFCURVE",
"359 -96 CURVE SMOOTH",
"479 -96 OFFCURVE",
"568 -57 OFFCURVE",
"625 22 CURVE SMOOTH",
"644 49 OFFCURVE",
"654 67 OFFCURVE",
"654 77 CURVE SMOOTH",
"654 88 OFFCURVE",
"648 94 OFFCURVE",
"636 94 CURVE SMOOTH",
"628 94 OFFCURVE",
"618 81 OFFCURVE",
"605 54 CURVE SMOOTH",
"586 15 OFFCURVE",
"550 -14 OFFCURVE",
"498 -35 CURVE SMOOTH",
"455 -53 OFFCURVE",
"409 -62 OFFCURVE",
"360 -62 CURVE SMOOTH",
"270 -62 OFFCURVE",
"197 -33 OFFCURVE",
"142 26 CURVE SMOOTH",
"87 85 OFFCURVE",
"60 159 OFFCURVE",
"60 250 CURVE SMOOTH",
"60 362 OFFCURVE",
"99 461 OFFCURVE",
"177 546 CURVE SMOOTH",
"256 632 OFFCURVE",
"351 675 OFFCURVE",
"462 675 CURVE SMOOTH",
"521 675 OFFCURVE",
"570 661 OFFCURVE",
"609 634 CURVE SMOOTH",
"652 603 OFFCURVE",
"674 559 OFFCURVE",
"674 504 CURVE SMOOTH",
"674 466 OFFCURVE",
"660 435 OFFCURVE",
"633 410 CURVE SMOOTH",
"606 386 OFFCURVE",
"573 374 OFFCURVE",
"534 374 CURVE SMOOTH",
"483 374 OFFCURVE",
"444 398 OFFCURVE",
"444 445 CURVE SMOOTH",
"444 454 OFFCURVE",
"450 474 OFFCURVE",
"450 482 CURVE SMOOTH",
"450 491 OFFCURVE",
"445 497 OFFCURVE",
"435 498 CURVE SMOOTH",
"418 501 OFFCURVE",
"409 482 OFFCURVE",
"409 443 CURVE SMOOTH",
"409 411 OFFCURVE",
"422 385 OFFCURVE",
"449 365 CURVE SMOOTH",
"473 348 OFFCURVE",
"501 339 OFFCURVE",
"534 339 CURVE SMOOTH",
"581 339 OFFCURVE",
"622 355 OFFCURVE",
"656 386 CURVE SMOOTH",
"691 418 OFFCURVE",
"708 457 OFFCURVE",
"708 504 CURVE SMOOTH"
);
}
);
width = 651;
}
);
note = C;
unicode = 0043;
},
{
glyphname = D;
layers = (
{
hints = (
{
horizontal = 1;
place = "{-63, 34}";
type = Stem;
},
{
horizontal = 1;
place = "{252, 34}";
type = Stem;
},
{
horizontal = 1;
place = "{380, 34}";
type = Stem;
},
{
horizontal = 1;
place = "{649, 33}";
type = Stem;
},
{
place = "{167, 34}";
type = Stem;
},
{
place = "{411, 34}";
type = Stem;
},
{
place = "{901, 35}";
type = Stem;
},
{
place = "{125, 34}";
type = Stem;
},
{
horizontal = 1;
place = "{-83, 34}";
type = Stem;
}
);
layerId = "769237BE-90A6-4D5E-A4C9-331744B3656A";
paths = (
{
closed = 1;
nodes = (
"936 429 OFFCURVE",
"902 507 OFFCURVE",
"834 568 CURVE SMOOTH",
"774 621 OFFCURVE",
"695 656 OFFCURVE",
"598 672 CURVE",
"619 681 OFFCURVE",
"629 690 OFFCURVE",
"629 697 CURVE SMOOTH",
"629 709 OFFCURVE",
"624 715 OFFCURVE",
"613 715 CURVE SMOOTH",
"594 715 OFFCURVE",
"572 703 OFFCURVE",
"547 678 CURVE",
"530 681 OFFCURVE",
"504 682 OFFCURVE",
"471 682 CURVE SMOOTH",
"311 682 OFFCURVE",
"204 642 OFFCURVE",
"151 563 CURVE SMOOTH",
"134 537 OFFCURVE",
"125 510 OFFCURVE",
"125 483 CURVE SMOOTH",
"125 424 OFFCURVE",
"167 380 OFFCURVE",
"227 380 CURVE SMOOTH",
"237 380 OFFCURVE",
"250 383 OFFCURVE",
"266 388 CURVE SMOOTH",
"285 395 OFFCURVE",
"295 402 OFFCURVE",
"295 410 CURVE SMOOTH",
"295 422 OFFCURVE",
"289 428 OFFCURVE",
"278 428 CURVE SMOOTH",
"271 428 OFFCURVE",
"242 414 OFFCURVE",
"229 414 CURVE SMOOTH",
"188 414 OFFCURVE",
"159 443 OFFCURVE",
"159 484 CURVE SMOOTH",
"159 505 OFFCURVE",
"166 526 OFFCURVE",
"180 547 CURVE SMOOTH",
"228 615 OFFCURVE",
"322 649 OFFCURVE",
"463 649 CURVE SMOOTH",
"467 649 OFFCURVE",
"486 648 OFFCURVE",
"520 646 CURVE",
"489 605 OFFCURVE",
"460 545 OFFCURVE",
"433 467 CURVE SMOOTH",
"412 402 OFFCURVE",
"390 338 OFFCURVE",
"369 274 CURVE",
"352 282 OFFCURVE",
"333 286 OFFCURVE",
"313 286 CURVE SMOOTH",
"270 286 OFFCURVE",
"235 272 OFFCURVE",
"208 243 CURVE SMOOTH",
"181 214 OFFCURVE",
"167 179 OFFCURVE",
"167 137 CURVE SMOOTH",
"167 90 OFFCURVE",
"183 50 OFFCURVE",
"214 17 CURVE",
"163 -27 OFFCURVE",
"109 -49 OFFCURVE",
"51 -49 CURVE SMOOTH",
"42 -49 OFFCURVE",
"16 -47 OFFCURVE",
"7 -47 CURVE SMOOTH",
"-4 -47 OFFCURVE",
"-9 -53 OFFCURVE",
"-9 -64 CURVE SMOOTH",
"-9 -75 OFFCURVE",
"-4 -81 OFFCURVE",
"7 -81 CURVE SMOOTH",
"18 -81 OFFCURVE",
"43 -83 OFFCURVE",
"54 -83 CURVE SMOOTH",
"120 -83 OFFCURVE",
"181 -57 OFFCURVE",
"238 -6 CURVE",
"285 -44 OFFCURVE",
"354 -63 OFFCURVE",
"446 -63 CURVE SMOOTH",
"575 -63 OFFCURVE",
"686 -30 OFFCURVE",
"779 36 CURVE SMOOTH",
"884 110 OFFCURVE",
"936 209 OFFCURVE",
"936 334 CURVE SMOOTH"
);
},
{
closed = 1;
nodes = (
"901 219 OFFCURVE",
"853 128 OFFCURVE",
"756 61 CURVE SMOOTH",
"670 1 OFFCURVE",
"567 -29 OFFCURVE",
"446 -29 CURVE SMOOTH",
"364 -29 OFFCURVE",
"303 -13 OFFCURVE",
"262 19 CURVE",
"307 67 OFFCURVE",
"348 135 OFFCURVE",
"385 223 CURVE",
"402 206 OFFCURVE",
"411 185 OFFCURVE",
"411 162 CURVE SMOOTH",
"411 153 OFFCURVE",
"408 141 OFFCURVE",
"401 128 CURVE SMOOTH",
"395 115 OFFCURVE",
"392 107 OFFCURVE",
"392 105 CURVE SMOOTH",
"392 94 OFFCURVE",
"397 89 OFFCURVE",
"407 89 CURVE SMOOTH",
"432 89 OFFCURVE",
"445 114 OFFCURVE",
"445 164 CURVE SMOOTH",
"445 201 OFFCURVE",
"430 232 OFFCURVE",
"399 256 CURVE",
"422 323 OFFCURVE",
"444 390 OFFCURVE",
"466 457 CURVE SMOOTH",
"495 540 OFFCURVE",
"526 602 OFFCURVE",
"560 643 CURVE",
"659 631 OFFCURVE",
"738 602 OFFCURVE",
"797 555 CURVE SMOOTH",
"866 500 OFFCURVE",
"901 427 OFFCURVE",
"901 334 CURVE SMOOTH"
);
},
{
closed = 1;
nodes = (
"321 156 OFFCURVE",
"281 89 OFFCURVE",
"238 42 CURVE",
"213 72 OFFCURVE",
"201 103 OFFCURVE",
"201 136 CURVE SMOOTH",
"201 204 OFFCURVE",
"245 252 OFFCURVE",
"313 252 CURVE SMOOTH",
"329 252 OFFCURVE",
"344 249 OFFCURVE",
"358 243 CURVE"
);
}
);
width = 943;
}
);
note = D;
unicode = 0044;
},
{
glyphname = Eth;
layers = (
{
hints = (
{
horizontal = 1;
place = "{-63, 34}";
type = Stem;
},
{
horizontal = 1;
place = "{149, 34}";
type = Stem;
},
{
horizontal = 1;
place = "{380, 34}";
type = Stem;
},
{
horizontal = 1;
place = "{649, 33}";
type = Stem;
},
{
place = "{125, 34}";
type = Stem;
},
{
place = "{901, 35}";
type = Stem;
},
{
horizontal = 1;
place = "{-83, 34}";
type = Stem;
},
{
horizontal = 1;
place = "{162, 33}";
type = Stem;
}
);
layerId = "769237BE-90A6-4D5E-A4C9-331744B3656A";
paths = (
{
closed = 1;
nodes = (
"217 73 OFFCURVE",
"185 55 OFFCURVE",
"198 36 CURVE SMOOTH",
"203 29 OFFCURVE",
"208 23 OFFCURVE",
"214 17 CURVE",
"163 -27 OFFCURVE",
"109 -49 OFFCURVE",
"51 -49 CURVE SMOOTH",
"42 -49 OFFCURVE",
"16 -47 OFFCURVE",
"7 -47 CURVE SMOOTH",
"-4 -47 OFFCURVE",
"-9 -53 OFFCURVE",
"-9 -64 CURVE SMOOTH",
"-9 -75 OFFCURVE",
"-4 -81 OFFCURVE",
"7 -81 CURVE SMOOTH",
"18 -81 OFFCURVE",
"43 -83 OFFCURVE",
"54 -83 CURVE SMOOTH",
"120 -83 OFFCURVE",
"181 -57 OFFCURVE",
"238 -6 CURVE",
"285 -44 OFFCURVE",
"354 -63 OFFCURVE",
"446 -63 CURVE SMOOTH",
"575 -63 OFFCURVE",
"686 -30 OFFCURVE",
"779 36 CURVE SMOOTH",
"884 110 OFFCURVE",
"936 209 OFFCURVE",
"936 334 CURVE SMOOTH",
"936 429 OFFCURVE",
"902 507 OFFCURVE",
"834 568 CURVE SMOOTH",
"774 621 OFFCURVE",
"695 656 OFFCURVE",
"598 672 CURVE",
"619 681 OFFCURVE",
"629 690 OFFCURVE",
"629 697 CURVE SMOOTH",
"629 709 OFFCURVE",
"624 715 OFFCURVE",
"613 715 CURVE SMOOTH",
"594 715 OFFCURVE",
"572 703 OFFCURVE",
"547 678 CURVE",
"530 681 OFFCURVE",
"504 682 OFFCURVE",
"471 682 CURVE SMOOTH",
"311 682 OFFCURVE",
"204 642 OFFCURVE",
"151 563 CURVE SMOOTH",
"134 537 OFFCURVE",
"125 510 OFFCURVE",
"125 483 CURVE SMOOTH",
"125 424 OFFCURVE",
"167 380 OFFCURVE",
"227 380 CURVE SMOOTH",
"237 380 OFFCURVE",
"250 383 OFFCURVE",
"266 388 CURVE SMOOTH",
"285 395 OFFCURVE",
"295 402 OFFCURVE",
"295 410 CURVE SMOOTH",
"295 422 OFFCURVE",
"289 428 OFFCURVE",
"278 428 CURVE SMOOTH",
"271 428 OFFCURVE",
"242 414 OFFCURVE",
"229 414 CURVE SMOOTH",
"188 414 OFFCURVE",
"159 443 OFFCURVE",
"159 484 CURVE SMOOTH",
"159 505 OFFCURVE",
"166 526 OFFCURVE",
"180 547 CURVE SMOOTH",
"228 615 OFFCURVE",
"322 649 OFFCURVE",
"463 649 CURVE SMOOTH",
"467 649 OFFCURVE",
"486 648 OFFCURVE",
"520 646 CURVE",
"489 605 OFFCURVE",
"459 545 OFFCURVE",
"433 467 CURVE SMOOTH",
"402 375 OFFCURVE",
"375 279 OFFCURVE",
"332 189 CURVE",
"331 189 LINE SMOOTH",
"297 185 OFFCURVE",
"272 183 OFFCURVE",
"255 183 CURVE SMOOTH",
"247 183 OFFCURVE",
"238 195 OFFCURVE",
"231 195 CURVE SMOOTH",
"220 195 OFFCURVE",
"215 189 OFFCURVE",
"215 178 CURVE SMOOTH",
"215 159 OFFCURVE",
"237 149 OFFCURVE",
"253 149 CURVE SMOOTH",
"267 149 OFFCURVE",
"288 150 OFFCURVE",
"314 153 CURVE",
"293 114 OFFCURVE",
"268 77 OFFCURVE",
"238 42 CURVE",
"234 46 OFFCURVE",
"231 51 OFFCURVE",
"228 56 CURVE SMOOTH"
);
},
{
closed = 1;
nodes = (
"461 184 OFFCURVE",
"456 190 OFFCURVE",
"447 192 CURVE SMOOTH",
"434 194 OFFCURVE",
"421 195 OFFCURVE",
"407 195 CURVE SMOOTH",
"398 195 OFFCURVE",
"387 194 OFFCURVE",
"373 193 CURVE",
"410 277 OFFCURVE",
"436 369 OFFCURVE",
"466 457 CURVE SMOOTH",
"494 540 OFFCURVE",
"526 602 OFFCURVE",
"560 643 CURVE",
"659 631 OFFCURVE",
"738 602 OFFCURVE",
"797 555 CURVE SMOOTH",
"866 500 OFFCURVE",
"901 427 OFFCURVE",
"901 334 CURVE SMOOTH",
"901 219 OFFCURVE",
"853 128 OFFCURVE",
"756 61 CURVE SMOOTH",
"670 1 OFFCURVE",
"567 -29 OFFCURVE",
"446 -29 CURVE SMOOTH",
"364 -29 OFFCURVE",
"303 -13 OFFCURVE",
"262 19 CURVE",
"301 59 OFFCURVE",
"332 107 OFFCURVE",
"357 159 CURVE",
"376 161 OFFCURVE",
"391 162 OFFCURVE",
"403 162 CURVE SMOOTH",
"412 162 OFFCURVE",
"437 158 OFFCURVE",
"446 158 CURVE SMOOTH",
"456 158 OFFCURVE",
"461 163 OFFCURVE",
"461 174 CURVE SMOOTH"
);
}
);
width = 943;
}
);
note = Eth;
unicode = 00D0;
},
{
glyphname = E;
layers = (
{
hints = (
{
horizontal = 1;
place = "{-65, 35}";
type = Stem;
},
{
horizontal = 1;
place = "{216, 34}";
type = Stem;
},
{
horizontal = 1;
place = "{345, 69}";
type = Stem;
},
{
horizontal = 1;
place = "{482, 33}";
type = Stem;
},
{
horizontal = 1;
place = "{668, 34}";
type = Stem;
},
{
place = "{-52, 33}";
type = Stem;
},
{
place = "{117, 34}";
type = Stem;
},
{
place = "{365, 35}";
type = Stem;
},
{
place = "{486, 33}";
type = Stem;
},
{
place = "{517, 34}";
type = Stem;
}
);
layerId = "769237BE-90A6-4D5E-A4C9-331744B3656A";
paths = (
{
closed = 1;
nodes = (
"551 628 OFFCURVE",
"534 658 OFFCURVE",
"500 678 CURVE SMOOTH",
"473 694 OFFCURVE",
"438 702 OFFCURVE",
"397 702 CURVE SMOOTH",
"332 702 OFFCURVE",
"271 684 OFFCURVE",
"214 649 CURVE SMOOTH",
"149 608 OFFCURVE",
"117 556 OFFCURVE",
"117 493 CURVE SMOOTH",
"117 452 OFFCURVE",
"133 417 OFFCURVE",
"166 388 CURVE",
"105 365 OFFCURVE",
"55 332 OFFCURVE",
"15 288 CURVE SMOOTH",
"-30 239 OFFCURVE",
"-52 184 OFFCURVE",
"-52 123 CURVE SMOOTH",
"-52 62 OFFCURVE",
"-26 15 OFFCURVE",
"27 -20 CURVE SMOOTH",
"72 -50 OFFCURVE",
"126 -65 OFFCURVE",
"189 -65 CURVE SMOOTH",
"258 -65 OFFCURVE",
"321 -52 OFFCURVE",
"378 -25 CURVE SMOOTH",
"445 6 OFFCURVE",
"490 51 OFFCURVE",
"511 110 CURVE SMOOTH",
"516 127 OFFCURVE",
"519 144 OFFCURVE",
"519 163 CURVE SMOOTH",
"519 221 OFFCURVE",
"497 250 OFFCURVE",
"452 250 CURVE SMOOTH",
"417 250 OFFCURVE",
"399 243 OFFCURVE",
"399 229 CURVE SMOOTH",
"399 217 OFFCURVE",
"405 211 OFFCURVE",
"416 211 CURVE SMOOTH",
"424 211 OFFCURVE",
"443 216 OFFCURVE",
"451 216 CURVE SMOOTH",
"474 216 OFFCURVE",
"486 200 OFFCURVE",
"486 168 CURVE SMOOTH",
"486 103 OFFCURVE",
"452 52 OFFCURVE",
"383 15 CURVE SMOOTH",
"326 -15 OFFCURVE",
"262 -30 OFFCURVE",
"190 -30 CURVE SMOOTH",
"133 -30 OFFCURVE",
"85 -19 OFFCURVE",
"48 4 CURVE SMOOTH",
"3 32 OFFCURVE",
"-19 72 OFFCURVE",
"-19 124 CURVE SMOOTH",
"-19 180 OFFCURVE",
"5 231 OFFCURVE",
"52 277 CURVE SMOOTH",
"93 318 OFFCURVE",
"144 347 OFFCURVE",
"203 364 CURVE",
"230 351 OFFCURVE",
"268 345 OFFCURVE",
"317 345 CURVE SMOOTH",
"370 345 OFFCURVE",
"396 357 OFFCURVE",
"396 382 CURVE SMOOTH",
"396 403 OFFCURVE",
"377 414 OFFCURVE",
"339 414 CURVE SMOOTH",
"286 414 OFFCURVE",
"242 409 OFFCURVE",
"206 400 CURVE",
"169 421 OFFCURVE",
"151 453 OFFCURVE",
"151 495 CURVE SMOOTH",
"151 547 OFFCURVE",
"180 590 OFFCURVE",
"238 624 CURVE SMOOTH",
"289 653 OFFCURVE",
"343 668 OFFCURVE",
"400 668 CURVE SMOOTH",
"431 668 OFFCURVE",
"457 663 OFFCURVE",
"478 652 CURVE SMOOTH",
"504 639 OFFCURVE",
"517 620 OFFCURVE",
"517 593 CURVE SMOOTH",
"517 546 OFFCURVE",
"479 515 OFFCURVE",
"431 515 CURVE SMOOTH",
"410 515 OFFCURVE",
"400 521 OFFCURVE",
"400 534 CURVE SMOOTH",
"400 538 OFFCURVE",
"404 549 OFFCURVE",
"404 553 CURVE SMOOTH",
"404 565 OFFCURVE",
"398 571 OFFCURVE",
"386 571 CURVE SMOOTH",
"374 571 OFFCURVE",
"365 549 OFFCURVE",
"365 537 CURVE SMOOTH",
"365 504 OFFCURVE",
"399 482 OFFCURVE",
"431 482 CURVE SMOOTH",
"462 482 OFFCURVE",
"489 492 OFFCURVE",
"514 512 CURVE SMOOTH",
"539 532 OFFCURVE",
"551 557 OFFCURVE",
"551 588 CURVE SMOOTH"
);
}
);
width = 553;
}
);
note = E;
unicode = 0045;
},
{
glyphname = F;
layers = (
{
hints = (
{
horizontal = 1;
place = "{-44, 36}";
type = Stem;
},
{
horizontal = 1;
place = "{290, 36}";
type = Stem;
},
{
horizontal = 1;
place = "{387, 36}";
type = Stem;
},
{
horizontal = 1;
place = "{587, 39}";
type = Stem;
},
{
horizontal = 1;
place = "{672, 36}";
type = Stem;
},
{
place = "{6, 37}";
type = Stem;
},
{
place = "{130, 36}";
type = Stem;
},
{
place = "{300, 35}";
type = Stem;
},
{
horizontal = 1;
place = "{409, 36}";
type = Stem;
},
{
horizontal = 1;
place = "{163, 37}";
type = Stem;
}
);
layerId = "769237BE-90A6-4D5E-A4C9-331744B3656A";
paths = (
{
closed = 1;
nodes = (
"821 664 OFFCURVE",
"808 675 OFFCURVE",
"782 675 CURVE SMOOTH",
"749 675 OFFCURVE",
"717 659 OFFCURVE",
"686 626 CURVE",
"662 629 OFFCURVE",
"634 637 OFFCURVE",
"601 649 CURVE SMOOTH",
"519 681 LINE SMOOTH",
"468 699 OFFCURVE",
"418 708 OFFCURVE",
"368 708 CURVE SMOOTH",
"307 708 OFFCURVE",
"253 692 OFFCURVE",
"207 660 CURVE SMOOTH",
"156 625 OFFCURVE",
"130 577 OFFCURVE",
"130 518 CURVE SMOOTH",
"130 455 OFFCURVE",
"169 409 OFFCURVE",
"230 409 CURVE SMOOTH",
"241 409 OFFCURVE",
"253 412 OFFCURVE",
"268 419 CURVE SMOOTH",
"283 426 OFFCURVE",
"291 434 OFFCURVE",
"291 443 CURVE SMOOTH",
"291 454 OFFCURVE",
"286 460 OFFCURVE",
"275 460 CURVE SMOOTH",
"267 460 OFFCURVE",
"244 445 OFFCURVE",
"225 445 CURVE SMOOTH",
"188 445 OFFCURVE",
"166 477 OFFCURVE",
"166 518 CURVE SMOOTH",
"166 567 OFFCURVE",
"188 605 OFFCURVE",
"232 634 CURVE SMOOTH",
"271 659 OFFCURVE",
"317 672 OFFCURVE",
"370 672 CURVE SMOOTH",
"417 672 OFFCURVE",
"468 661 OFFCURVE",
"522 640 CURVE SMOOTH",
"589 615 OFFCURVE",
"634 600 OFFCURVE",
"658 595 CURVE",
"623 546 OFFCURVE",
"598 489 OFFCURVE",
"582 423 CURVE",
"435 423 LINE SMOOTH",
"424 423 OFFCURVE",
"418 417 OFFCURVE",
"418 405 CURVE SMOOTH",
"418 393 OFFCURVE",
"424 387 OFFCURVE",
"435 387 CURVE SMOOTH",
"575 387 LINE",
"517 124 OFFCURVE",
"402 -8 OFFCURVE",
"231 -8 CURVE SMOOTH",
"180 -8 OFFCURVE",
"137 3 OFFCURVE",
"102 26 CURVE SMOOTH",
"63 53 OFFCURVE",
"43 90 OFFCURVE",
"43 137 CURVE SMOOTH",
"43 226 OFFCURVE",
"105 290 OFFCURVE",
"194 290 CURVE SMOOTH",
"222 290 OFFCURVE",
"246 283 OFFCURVE",
"266 270 CURVE SMOOTH",
"289 255 OFFCURVE",
"300 235 OFFCURVE",
"300 210 CURVE SMOOTH",
"300 203 OFFCURVE",
"298 200 OFFCURVE",
"293 200 CURVE SMOOTH",
"282 199 OFFCURVE",
"276 193 OFFCURVE",
"276 182 CURVE SMOOTH",
"276 169 OFFCURVE",
"282 163 OFFCURVE",
"295 163 CURVE SMOOTH",
"307 163 OFFCURVE",
"317 169 OFFCURVE",
"325 180 CURVE SMOOTH",
"332 189 OFFCURVE",
"335 200 OFFCURVE",
"335 211 CURVE SMOOTH",
"335 248 OFFCURVE",
"320 277 OFFCURVE",
"290 298 CURVE SMOOTH",
"263 317 OFFCURVE",
"231 326 OFFCURVE",
"194 326 CURVE SMOOTH",
"139 326 OFFCURVE",
"94 308 OFFCURVE",
"59 273 CURVE SMOOTH",
"24 238 OFFCURVE",
"6 192 OFFCURVE",
"6 137 CURVE SMOOTH",
"6 80 OFFCURVE",
"29 35 OFFCURVE",
"76 1 CURVE SMOOTH",
"118 -29 OFFCURVE",
"168 -44 OFFCURVE",
"226 -44 CURVE SMOOTH",
"422 -44 OFFCURVE",
"551 100 OFFCURVE",
"612 387 CURVE",
"661 387 LINE SMOOTH",
"673 387 OFFCURVE",
"679 393 OFFCURVE",
"679 405 CURVE SMOOTH",
"679 417 OFFCURVE",
"673 423 OFFCURVE",
"661 423 CURVE SMOOTH",
"620 423 LINE",
"636 490 OFFCURVE",
"663 545 OFFCURVE",
"700 588 CURVE",
"712 587 OFFCURVE",
"719 587 OFFCURVE",
"722 587 CURVE SMOOTH",
"741 587 OFFCURVE",
"761 592 OFFCURVE",
"782 601 CURVE SMOOTH",
"808 612 OFFCURVE",
"821 626 OFFCURVE",
"821 642 CURVE SMOOTH"
);
}
);
width = 674;
}
);
note = F;
unicode = 0046;
},
{
glyphname = G;
layers = (
{
hints = (
{
horizontal = 1;
place = "{-289, 36}";
type = Stem;
},
{
horizontal = 1;
place = "{-126, 34}";
type = Stem;
},
{
horizontal = 1;
place = "{-59, 34}";
type = Stem;
},
{
horizontal = 1;
place = "{359, 36}";
type = Stem;
},
{
horizontal = 1;
place = "{612, 35}";
type = Stem;
},
{
place = "{13, 34}";
type = Stem;
},
{
place = "{180, 34}";
type = Stem;
},
{
place = "{703, 34}";
type = Stem;
},
{
place = "{168, 39}";
type = Stem;
}
);
layerId = "769237BE-90A6-4D5E-A4C9-331744B3656A";
paths = (
{
closed = 1;
nodes = (
"737 564 OFFCURVE",
"708 598 OFFCURVE",
"650 621 CURVE SMOOTH",
"608 638 OFFCURVE",
"560 647 OFFCURVE",
"507 647 CURVE SMOOTH",
"400 647 OFFCURVE",
"303 614 OFFCURVE",
"214 548 CURVE",
"213 576 OFFCURVE",
"220 603 OFFCURVE",
"236 628 CURVE SMOOTH",
"239 632 OFFCURVE",
"240 636 OFFCURVE",
"240 639 CURVE SMOOTH",
"240 650 OFFCURVE",
"234 656 OFFCURVE",
"222 656 CURVE SMOOTH",
"217 656 OFFCURVE",
"213 654 OFFCURVE",
"210 650 CURVE SMOOTH",
"190 625 OFFCURVE",
"180 595 OFFCURVE",
"180 558 CURVE SMOOTH",
"180 546 OFFCURVE",
"181 534 OFFCURVE",
"184 523 CURVE",
"134 480 OFFCURVE",
"94 430 OFFCURVE",
"63 373 CURVE SMOOTH",
"30 312 OFFCURVE",
"13 250 OFFCURVE",
"13 189 CURVE SMOOTH",
"13 115 OFFCURVE",
"40 55 OFFCURVE",
"95 8 CURVE SMOOTH",
"147 -37 OFFCURVE",
"210 -59 OFFCURVE",
"285 -59 CURVE SMOOTH",
"374 -59 OFFCURVE",
"462 -22 OFFCURVE",
"549 53 CURVE",
"535 -10 OFFCURVE",
"518 -59 OFFCURVE",
"498 -94 CURVE",
"488 -93 OFFCURVE",
"477 -92 OFFCURVE",
"465 -92 CURVE SMOOTH",
"413 -92 OFFCURVE",
"356 -102 OFFCURVE",
"293 -123 CURVE SMOOTH",
"210 -150 OFFCURVE",
"168 -185 OFFCURVE",
"168 -228 CURVE SMOOTH",
"168 -249 OFFCURVE",
"178 -264 OFFCURVE",
"197 -275 CURVE SMOOTH",
"212 -284 OFFCURVE",
"230 -289 OFFCURVE",
"251 -289 CURVE SMOOTH",
"298 -289 OFFCURVE",
"347 -272 OFFCURVE",
"400 -238 CURVE SMOOTH",
"449 -207 OFFCURVE",
"488 -171 OFFCURVE",
"516 -129 CURVE",
"526 -130 OFFCURVE",
"540 -135 OFFCURVE",
"557 -142 CURVE SMOOTH",
"575 -149 OFFCURVE",
"585 -153 OFFCURVE",
"587 -153 CURVE SMOOTH",
"599 -153 OFFCURVE",
"605 -147 OFFCURVE",
"605 -136 CURVE SMOOTH",
"605 -123 OFFCURVE",
"582 -111 OFFCURVE",
"535 -98 CURVE",
"548 -73 OFFCURVE",
"560 -41 OFFCURVE",
"571 -3 CURVE",
"594 97 LINE",
"659 166 OFFCURVE",
"691 220 OFFCURVE",
"691 259 CURVE SMOOTH",
"691 283 OFFCURVE",
"678 295 OFFCURVE",
"652 295 CURVE SMOOTH",
"629 295 OFFCURVE",
"608 270 OFFCURVE",
"590 219 CURVE SMOOTH",
"583 200 OFFCURVE",
"574 165 OFFCURVE",
"562 113 CURVE",
"470 21 OFFCURVE",
"378 -25 OFFCURVE",
"285 -25 CURVE SMOOTH",
"218 -25 OFFCURVE",
"163 -6 OFFCURVE",
"118 32 CURVE SMOOTH",
"71 72 OFFCURVE",
"47 124 OFFCURVE",
"47 189 CURVE SMOOTH",
"47 242 OFFCURVE",
"62 297 OFFCURVE",
"91 352 CURVE SMOOTH",
"117 402 OFFCURVE",
"151 447 OFFCURVE",
"194 488 CURVE",
"214 445 OFFCURVE",
"254 412 OFFCURVE",
"314 388 CURVE SMOOTH",
"364 369 OFFCURVE",
"416 359 OFFCURVE",
"470 359 CURVE SMOOTH",
"529 359 OFFCURVE",
"585 370 OFFCURVE",
"636 393 CURVE SMOOTH",
"703 422 OFFCURVE",
"737 464 OFFCURVE",
"737 517 CURVE SMOOTH"
);
},
{
closed = 1;
nodes = (
"703 475 OFFCURVE",
"673 444 OFFCURVE",
"614 421 CURVE SMOOTH",
"568 404 OFFCURVE",
"520 395 OFFCURVE",
"469 395 CURVE SMOOTH",
"418 395 OFFCURVE",
"370 403 OFFCURVE",
"325 420 CURVE SMOOTH",
"269 441 OFFCURVE",
"235 471 OFFCURVE",
"222 510 CURVE",
"306 578 OFFCURVE",
"401 612 OFFCURVE",
"506 612 CURVE SMOOTH",
"551 612 OFFCURVE",
"591 606 OFFCURVE",
"628 593 CURVE SMOOTH",
"678 576 OFFCURVE",
"703 550 OFFCURVE",
"703 515 CURVE SMOOTH"
);
},
{
closed = 1;
nodes = (
"477 -126 LINE",
"449 -163 OFFCURVE",
"415 -193 OFFCURVE",
"375 -216 CURVE SMOOTH",
"332 -241 OFFCURVE",
"290 -253 OFFCURVE",
"247 -253 CURVE SMOOTH",
"220 -253 OFFCURVE",
"207 -246 OFFCURVE",
"207 -231 CURVE SMOOTH",
"207 -197 OFFCURVE",
"243 -170 OFFCURVE",
"316 -149 CURVE SMOOTH",
"372 -133 OFFCURVE",
"425 -125 OFFCURVE",
"474 -126 CURVE SMOOTH"
);
}
);
width = 731;
}
);
note = G;
unicode = 0047;
},
{
glyphname = H;
layers = (
{
hints = (
{
horizontal = 1;
place = "{-52, 35}";
type = Stem;
},
{
horizontal = 1;
place = "{148, 34}";
type = Stem;
},
{
horizontal = 1;
place = "{319, 34}";
type = Stem;
},
{
horizontal = 1;
place = "{609, 35}";
type = Stem;
},
{
place = "{6, 33}";
type = Stem;
},
{
place = "{117, 34}";
type = Stem;
},
{
place = "{273, 32}";
type = Stem;
},
{
place = "{791, 34}";
type = Stem;
},
{
horizontal = 1;
place = "{644, 35}";
type = Stem;
},
{
horizontal = 1;
place = "{266, 33}";
type = Stem;
},
{
horizontal = 1;
place = "{371, 35}";
type = Stem;
}
);
layerId = "769237BE-90A6-4D5E-A4C9-331744B3656A";
paths = (
{
closed = 1;
nodes = (
"1095 673 OFFCURVE",
"1085 679 OFFCURVE",
"1066 679 CURVE SMOOTH",
"1018 679 OFFCURVE",
"970 635 OFFCURVE",
"922 548 CURVE SMOOTH",
"891 494 OFFCURVE",
"864 429 OFFCURVE",
"840 353 CURVE",
"557 353 LINE",
"570 427 OFFCURVE",
"596 487 OFFCURVE",
"637 534 CURVE",
"710 535 OFFCURVE",
"746 551 OFFCURVE",
"746 584 CURVE SMOOTH",
"746 604 OFFCURVE",
"734 614 OFFCURVE",
"711 614 CURVE SMOOTH",
"682 614 OFFCURVE",
"653 599 OFFCURVE",
"623 570 CURVE",
"602 573 OFFCURVE",
"579 579 OFFCURVE",
"554 587 CURVE SMOOTH",
"487 612 LINE SMOOTH",
"430 633 OFFCURVE",
"379 644 OFFCURVE",
"335 644 CURVE SMOOTH",
"280 644 OFFCURVE",
"232 629 OFFCURVE",
"189 600 CURVE SMOOTH",
"141 567 OFFCURVE",
"117 524 OFFCURVE",
"117 471 CURVE SMOOTH",
"117 418 OFFCURVE",
"156 371 OFFCURVE",
"209 371 CURVE SMOOTH",
"219 371 OFFCURVE",
"230 374 OFFCURVE",
"242 380 CURVE SMOOTH",
"257 387 OFFCURVE",
"265 394 OFFCURVE",
"265 403 CURVE SMOOTH",
"265 414 OFFCURVE",
"259 419 OFFCURVE",
"247 419 CURVE SMOOTH",
"243 419 OFFCURVE",
"221 406 OFFCURVE",
"205 406 CURVE SMOOTH",
"172 406 OFFCURVE",
"151 436 OFFCURVE",
"151 471 CURVE SMOOTH",
"151 514 OFFCURVE",
"171 549 OFFCURVE",
"212 575 CURVE SMOOTH",
"248 598 OFFCURVE",
"290 609 OFFCURVE",
"337 609 CURVE SMOOTH",
"380 609 OFFCURVE",
"426 600 OFFCURVE",
"475 581 CURVE SMOOTH",
"537 558 OFFCURVE",
"578 544 OFFCURVE",
"598 540 CURVE",
"570 503 OFFCURVE",
"548 454 OFFCURVE",
"532 394 CURVE SMOOTH",
"507 298 OFFCURVE",
"493 247 OFFCURVE",
"491 240 CURVE SMOOTH",
"461 159 OFFCURVE",
"419 96 OFFCURVE",
"366 51 CURVE SMOOTH",
"319 11 OFFCURVE",
"269 -12 OFFCURVE",
"216 -17 CURVE SMOOTH",
"167 -22 OFFCURVE",
"125 -11 OFFCURVE",
"90 15 CURVE SMOOTH",
"56 42 OFFCURVE",
"39 78 OFFCURVE",
"39 123 CURVE SMOOTH",
"39 162 OFFCURVE",
"52 196 OFFCURVE",
"79 224 CURVE SMOOTH",
"106 252 OFFCURVE",
"138 266 OFFCURVE",
"177 266 CURVE SMOOTH",
"198 266 OFFCURVE",
"219 258 OFFCURVE",
"240 242 CURVE SMOOTH",
"262 226 OFFCURVE",
"273 209 OFFCURVE",
"273 190 CURVE SMOOTH",
"273 185 OFFCURVE",
"271 182 OFFCURVE",
"266 182 CURVE SMOOTH",
"255 181 OFFCURVE",
"250 176 OFFCURVE",
"250 165 CURVE SMOOTH",
"250 154 OFFCURVE",
"255 148 OFFCURVE",
"265 148 CURVE SMOOTH",
"292 148 OFFCURVE",
"305 163 OFFCURVE",
"305 192 CURVE SMOOTH",
"305 221 OFFCURVE",
"290 247 OFFCURVE",
"261 269 CURVE SMOOTH",
"234 289 OFFCURVE",
"206 299 OFFCURVE",
"176 299 CURVE SMOOTH",
"129 299 OFFCURVE",
"88 281 OFFCURVE",
"55 246 CURVE SMOOTH",
"22 211 OFFCURVE",
"6 170 OFFCURVE",
"6 123 CURVE SMOOTH",
"6 71 OFFCURVE",
"26 28 OFFCURVE",
"67 -5 CURVE SMOOTH",
"105 -36 OFFCURVE",
"150 -52 OFFCURVE",
"203 -52 CURVE SMOOTH",
"242 -52 OFFCURVE",
"281 -43 OFFCURVE",
"318 -24 CURVE SMOOTH",
"429 30 OFFCURVE",
"506 144 OFFCURVE",
"550 319 CURVE",
"829 319 LINE",
"804 238 OFFCURVE",
"791 154 OFFCURVE",
"791 65 CURVE SMOOTH",
"791 7 OFFCURVE",
"806 -22 OFFCURVE",
"837 -22 CURVE SMOOTH",
"844 -22 OFFCURVE",
"848 -17 OFFCURVE",
"848 -8 CURVE SMOOTH",
"848 0 OFFCURVE",
"845 6 OFFCURVE",
"838 9 CURVE SMOOTH",
"829 13 OFFCURVE",
"825 37 OFFCURVE",
"825 81 CURVE SMOOTH",
"825 132 OFFCURVE",
"836 202 OFFCURVE",
"859 290 CURVE SMOOTH",
"884 386 OFFCURVE",
"913 466 OFFCURVE",
"947 529 CURVE SMOOTH",
"987 606 OFFCURVE",
"1027 644 OFFCURVE",
"1067 644 CURVE SMOOTH",
"1078 644 OFFCURVE",
"1084 644 OFFCURVE",
"1083 644 CURVE SMOOTH",
"1091 645 OFFCURVE",
"1095 651 OFFCURVE",
"1095 661 CURVE SMOOTH"
);
}
);
width = 936;
}
);
note = H;
unicode = 0048;
},
{
glyphname = I;
layers = (
{
hints = (
{
horizontal = 1;
place = "{-71, 34}";
type = Stem;
},
{
horizontal = 1;
place = "{282, 34}";
type = Stem;
},
{
horizontal = 1;
place = "{593, 39}";
type = Stem;
},
{
place = "{4, 33}";
type = Stem;
},
{
place = "{224, 34}";
type = Stem;
}
);
layerId = "769237BE-90A6-4D5E-A4C9-331744B3656A";
paths = (
{
closed = 1;
nodes = (
"597 593 OFFCURVE",
"606 598 OFFCURVE",
"606 609 CURVE SMOOTH",
"606 624 OFFCURVE",
"595 632 OFFCURVE",
"572 632 CURVE SMOOTH",
"547 632 OFFCURVE",
"534 632 OFFCURVE",
"534 632 CURVE",
"458 638 OFFCURVE",
"389 619 OFFCURVE",
"326 574 CURVE SMOOTH",
"258 525 OFFCURVE",
"224 463 OFFCURVE",
"224 387 CURVE SMOOTH",
"224 339 OFFCURVE",
"241 307 OFFCURVE",
"275 290 CURVE SMOOTH",
"285 285 OFFCURVE",
"293 282 OFFCURVE",
"300 282 CURVE SMOOTH",
"312 282 OFFCURVE",
"325 284 OFFCURVE",
"338 287 CURVE SMOOTH",
"356 292 OFFCURVE",
"365 299 OFFCURVE",
"365 307 CURVE SMOOTH",
"365 322 OFFCURVE",
"358 328 OFFCURVE",
"343 323 CURVE SMOOTH",
"328 318 OFFCURVE",
"314 316 OFFCURVE",
"303 316 CURVE SMOOTH",
"289 316 OFFCURVE",
"278 324 OFFCURVE",
"269 341 CURVE SMOOTH",
"262 355 OFFCURVE",
"258 370 OFFCURVE",
"258 387 CURVE SMOOTH",
"258 447 OFFCURVE",
"284 498 OFFCURVE",
"335 539 CURVE SMOOTH",
"382 578 OFFCURVE",
"437 598 OFFCURVE",
"500 600 CURVE",
"449 554 OFFCURVE",
"418 480 OFFCURVE",
"405 378 CURVE SMOOTH",
"392 274 OFFCURVE",
"368 186 OFFCURVE",
"331 114 CURVE SMOOTH",
"281 13 OFFCURVE",
"215 -37 OFFCURVE",
"132 -37 CURVE SMOOTH",
"80 -37 OFFCURVE",
"37 10 OFFCURVE",
"37 62 CURVE SMOOTH",
"37 76 OFFCURVE",
"42 92 OFFCURVE",
"51 109 CURVE SMOOTH",
"61 126 OFFCURVE",
"66 135 OFFCURVE",
"66 136 CURVE SMOOTH",
"66 147 OFFCURVE",
"60 153 OFFCURVE",
"49 153 CURVE SMOOTH",
"44 153 OFFCURVE",
"40 151 OFFCURVE",
"36 147 CURVE SMOOTH",
"15 124 OFFCURVE",
"4 95 OFFCURVE",
"4 62 CURVE SMOOTH",
"4 27 OFFCURVE",
"17 -4 OFFCURVE",
"42 -31 CURVE SMOOTH",
"67 -58 OFFCURVE",
"98 -71 OFFCURVE",
"133 -71 CURVE SMOOTH",
"227 -71 OFFCURVE",
"302 -17 OFFCURVE",
"358 91 CURVE SMOOTH",
"397 167 OFFCURVE",
"423 261 OFFCURVE",
"438 374 CURVE SMOOTH",
"444 422 OFFCURVE",
"455 465 OFFCURVE",
"472 502 CURVE SMOOTH",
"493 551 OFFCURVE",
"521 582 OFFCURVE",
"555 596 CURVE",
"564 594 OFFCURVE",
"572 593 OFFCURVE",
"579 593 CURVE SMOOTH"
);
}
);
width = 477;
}
);
note = I;
unicode = 0049;
},
{
glyphname = J;
lastChange = "2021-11-28 06:05:10 +0000";
layers = (
{
hints = (
{
horizontal = 1;
place = "{-87, 34}";
type = Stem;
},
{
horizontal = 1;
place = "{290, 34}";
type = Stem;
},
{
horizontal = 1;
place = "{599, 78}";
type = Stem;
},
{
place = "{-5, 35}";
type = Stem;
},
{
place = "{285, 35}";
type = Stem;
},
{
place = "{363, 34}";
type = Stem;
},
{
horizontal = 1;
place = "{257, 35}";
type = Stem;
}
);
layerId = "769237BE-90A6-4D5E-A4C9-331744B3656A";
paths = (
{
closed = 1;
nodes = (
"751 666 OFFCURVE",
"739 677 OFFCURVE",
"716 677 CURVE SMOOTH",
"687 677 OFFCURVE",
"657 662 OFFCURVE",
"627 632 CURVE",
"565 621 OFFCURVE",
"508 595 OFFCURVE",
"455 554 CURVE SMOOTH",
"394 507 OFFCURVE",
"363 454 OFFCURVE",
"363 396 CURVE SMOOTH",
"363 363 OFFCURVE",
"375 337 OFFCURVE",
"398 317 CURVE SMOOTH",
"419 299 OFFCURVE",
"445 290 OFFCURVE",
"476 290 CURVE SMOOTH",
"487 290 OFFCURVE",
"497 291 OFFCURVE",
"508 294 CURVE",
"453 63 OFFCURVE",
"349 -53 OFFCURVE",
"198 -53 CURVE SMOOTH",
"151 -53 OFFCURVE",
"111 -40 OFFCURVE",
"80 -15 CURVE SMOOTH",
"47 12 OFFCURVE",
"30 49 OFFCURVE",
"30 96 CURVE SMOOTH",
"30 142 OFFCURVE",
"43 180 OFFCURVE",
"70 211 CURVE SMOOTH",
"97 242 OFFCURVE",
"134 257 OFFCURVE",
"179 257 CURVE SMOOTH",
"207 257 OFFCURVE",
"231 250 OFFCURVE",
"251 237 CURVE SMOOTH",
"274 222 OFFCURVE",
"285 202 OFFCURVE",
"285 176 CURVE SMOOTH",
"285 164 OFFCURVE",
"274 141 OFFCURVE",
"274 136 CURVE SMOOTH",
"274 125 OFFCURVE",
"280 120 OFFCURVE",
"292 120 CURVE SMOOTH",
"300 120 OFFCURVE",
"307 128 OFFCURVE",
"313 143 CURVE SMOOTH",
"318 156 OFFCURVE",
"320 167 OFFCURVE",
"320 177 CURVE SMOOTH",
"320 213 OFFCURVE",
"306 242 OFFCURVE",
"277 263 CURVE SMOOTH",
"251 282 OFFCURVE",
"220 292 OFFCURVE",
"183 292 CURVE SMOOTH",
"127 292 OFFCURVE",
"82 273 OFFCURVE",
"47 236 CURVE SMOOTH",
"12 199 OFFCURVE",
"-5 152 OFFCURVE",
"-5 96 CURVE SMOOTH",
"-5 41 OFFCURVE",
"15 -4 OFFCURVE",
"56 -39 CURVE SMOOTH",
"95 -71 OFFCURVE",
"142 -87 OFFCURVE",
"197 -87 CURVE SMOOTH",
"372 -87 OFFCURVE",
"488 45 OFFCURVE",
"546 310 CURVE",
"559 317 OFFCURVE",
"574 329 OFFCURVE",
"591 345 CURVE SMOOTH",
"611 364 OFFCURVE",
"621 379 OFFCURVE",
"621 389 CURVE SMOOTH",
"621 400 OFFCURVE",
"617 406 OFFCURVE",
"608 406 CURVE SMOOTH",
"602 406 OFFCURVE",
"588 394 OFFCURVE",
"566 371 CURVE SMOOTH",
"557 361 LINE",
"568 420 OFFCURVE",
"577 462 OFFCURVE",
"584 486 CURVE SMOOTH",
"598 531 OFFCURVE",
"618 569 OFFCURVE",
"643 599 CURVE",
"715 599 OFFCURVE",
"751 614 OFFCURVE",
"751 644 CURVE SMOOTH"
);
},
{
closed = 1;
nodes = (
"572 554 OFFCURVE",
"555 513 OFFCURVE",
"543 464 CURVE SMOOTH",
"540 455 OFFCURVE",
"532 411 OFFCURVE",
"517 333 CURVE",
"504 327 OFFCURVE",
"490 324 OFFCURVE",
"475 324 CURVE SMOOTH",
"432 324 OFFCURVE",
"397 351 OFFCURVE",
"397 396 CURVE SMOOTH",
"397 439 OFFCURVE",
"419 479 OFFCURVE",
"464 517 CURVE SMOOTH",
"501 550 OFFCURVE",
"545 574 OFFCURVE",
"594 589 CURVE"
);
}
);
width = 601;
}
);
note = J;
unicode = 004A;
},
{
glyphname = K;
layers = (
{
hints = (
{
horizontal = 1;
place = "{-93, 33}";
type = Stem;
},
{
horizontal = 1;
place = "{251, 35}";
type = Stem;
},
{
horizontal = 1;
place = "{467, 34}";
type = Stem;
},
{
place = "{-14, 35}";
type = Stem;
},
{
place = "{282, 34}";
type = Stem;
},
{
horizontal = 1;
place = "{284, 39}";
type = Stem;
},
{
horizontal = 1;
place = "{-110, 33}";
type = Stem;
}
);
layerId = "769237BE-90A6-4D5E-A4C9-331744B3656A";
paths = (
{
closed = 1;
nodes = (
"1016 664 OFFCURVE",
"1016 666 OFFCURVE",
"1016 668 CURVE SMOOTH",
"1016 679 OFFCURVE",
"1010 685 OFFCURVE",
"998 685 CURVE SMOOTH",
"991 685 OFFCURVE",
"986 682 OFFCURVE",
"983 676 CURVE SMOOTH",
"968 645 OFFCURVE",
"957 622 OFFCURVE",
"951 606 CURVE",
"913 535 OFFCURVE",
"864 474 OFFCURVE",
"803 423 CURVE SMOOTH",
"738 369 OFFCURVE",
"668 336 OFFCURVE",
"593 323 CURVE",
"578 335 OFFCURVE",
"563 343 OFFCURVE",
"546 347 CURVE",
"561 428 OFFCURVE",
"576 483 OFFCURVE",
"590 511 CURVE",
"655 546 OFFCURVE",
"700 586 OFFCURVE",
"726 629 CURVE SMOOTH",
"733 641 OFFCURVE",
"737 651 OFFCURVE",
"737 659 CURVE SMOOTH",
"737 670 OFFCURVE",
"729 676 OFFCURVE",
"713 676 CURVE SMOOTH",
"686 676 OFFCURVE",
"657 658 OFFCURVE",
"625 623 CURVE SMOOTH",
"600 596 OFFCURVE",
"580 567 OFFCURVE",
"564 536 CURVE",
"518 513 OFFCURVE",
"478 501 OFFCURVE",
"443 501 CURVE SMOOTH",
"407 501 OFFCURVE",
"375 513 OFFCURVE",
"346 538 CURVE SMOOTH",
"343 541 OFFCURVE",
"339 543 OFFCURVE",
"334 543 CURVE SMOOTH",
"323 543 OFFCURVE",
"317 537 OFFCURVE",
"317 525 CURVE SMOOTH",
"317 521 OFFCURVE",
"318 518 OFFCURVE",
"321 515 CURVE SMOOTH",
"348 483 OFFCURVE",
"386 467 OFFCURVE",
"435 467 CURVE SMOOTH",
"469 467 OFFCURVE",
"505 474 OFFCURVE",
"543 489 CURVE",
"527 426 OFFCURVE",
"517 378 OFFCURVE",
"512 345 CURVE",
"497 339 OFFCURVE",
"490 329 OFFCURVE",
"490 316 CURVE SMOOTH",
"490 307 OFFCURVE",
"493 299 OFFCURVE",
"500 292 CURVE",
"444 57 OFFCURVE",
"339 -60 OFFCURVE",
"186 -60 CURVE SMOOTH",
"139 -60 OFFCURVE",
"100 -46 OFFCURVE",
"68 -19 CURVE SMOOTH",
"37 8 OFFCURVE",
"21 44 OFFCURVE",
"21 90 CURVE SMOOTH",
"21 183 OFFCURVE",
"80 251 OFFCURVE",
"172 251 CURVE SMOOTH",
"197 251 OFFCURVE",
"221 243 OFFCURVE",
"245 226 CURVE SMOOTH",
"270 209 OFFCURVE",
"282 189 OFFCURVE",
"282 166 CURVE SMOOTH",
"282 149 OFFCURVE",
"265 139 OFFCURVE",
"265 131 CURVE SMOOTH",
"265 120 OFFCURVE",
"271 114 OFFCURVE",
"283 114 CURVE SMOOTH",
"292 114 OFFCURVE",
"300 121 OFFCURVE",
"307 134 CURVE SMOOTH",
"313 145 OFFCURVE",
"316 156 OFFCURVE",
"316 166 CURVE SMOOTH",
"316 201 OFFCURVE",
"300 231 OFFCURVE",
"268 254 CURVE SMOOTH",
"239 275 OFFCURVE",
"207 286 OFFCURVE",
"171 286 CURVE SMOOTH",
"116 286 OFFCURVE",
"72 267 OFFCURVE",
"37 229 CURVE SMOOTH",
"3 191 OFFCURVE",
"-14 145 OFFCURVE",
"-14 90 CURVE SMOOTH",
"-14 34 OFFCURVE",
"5 -10 OFFCURVE",
"43 -43 CURVE SMOOTH",
"81 -76 OFFCURVE",
"128 -93 OFFCURVE",
"184 -93 CURVE SMOOTH",
"280 -93 OFFCURVE",
"360 -52 OFFCURVE",
"423 31 CURVE SMOOTH",
"472 94 OFFCURVE",
"508 179 OFFCURVE",
"533 284 CURVE",
"556 284 OFFCURVE",
"573 285 OFFCURVE",
"582 287 CURVE",
"600 266 OFFCURVE",
"623 232 OFFCURVE",
"650 183 CURVE SMOOTH",
"706 84 OFFCURVE",
"743 22 OFFCURVE",
"760 -2 CURVE SMOOTH",
"815 -74 OFFCURVE",
"870 -110 OFFCURVE",
"927 -110 CURVE SMOOTH",
"938 -110 OFFCURVE",
"949 -108 OFFCURVE",
"961 -105 CURVE SMOOTH",
"978 -100 OFFCURVE",
"986 -94 OFFCURVE",
"986 -87 CURVE SMOOTH",
"986 -75 OFFCURVE",
"980 -69 OFFCURVE",
"969 -69 CURVE SMOOTH",
"960 -69 OFFCURVE",
"936 -77 OFFCURVE",
"927 -77 CURVE SMOOTH",
"873 -77 OFFCURVE",
"814 -27 OFFCURVE",
"750 74 CURVE",
"687 185 LINE SMOOTH",
"662 232 OFFCURVE",
"639 268 OFFCURVE",
"620 294 CURVE",
"710 314 OFFCURVE",
"791 359 OFFCURVE",
"862 429 CURVE SMOOTH",
"926 492 OFFCURVE",
"977 570 OFFCURVE",
"1015 662 CURVE SMOOTH"
);
}
);
width = 848;
}
);
note = K;
unicode = 004B;
},
{
glyphname = L;
layers = (
{
hints = (
{
horizontal = 1;
place = "{-81, 34}";
type = Stem;
},
{
horizontal = 1;
place = "{151, 34}";
type = Stem;
},
{
horizontal = 1;
place = "{338, 34}";
type = Stem;
},
{
horizontal = 1;
place = "{731, 32}";
type = Stem;
},
{
place = "{-17, 34}";
type = Stem;
},
{
place = "{323, 33}";
type = Stem;
},
{
place = "{759, 34}";
type = Stem;
},
{
place = "{896, 36}";
type = Stem;
},
{
horizontal = 1;
place = "{-75, 34}";
type = Stem;
}
);
layerId = "769237BE-90A6-4D5E-A4C9-331744B3656A";
paths = (
{
closed = 1;
nodes = (
"929 599 OFFCURVE",
"932 621 OFFCURVE",
"932 642 CURVE SMOOTH",
"932 723 OFFCURVE",
"892 763 OFFCURVE",
"811 763 CURVE SMOOTH",
"744 763 OFFCURVE",
"684 713 OFFCURVE",
"631 613 CURVE SMOOTH",
"607 568 OFFCURVE",
"575 488 OFFCURVE",
"536 372 CURVE",
"489 373 OFFCURVE",
"449 381 OFFCURVE",
"417 397 CURVE SMOOTH",
"376 417 OFFCURVE",
"356 448 OFFCURVE",
"356 489 CURVE SMOOTH",
"356 512 OFFCURVE",
"364 533 OFFCURVE",
"379 553 CURVE SMOOTH",
"390 568 OFFCURVE",
"402 578 OFFCURVE",
"414 584 CURVE SMOOTH",
"423 588 OFFCURVE",
"428 593 OFFCURVE",
"428 600 CURVE SMOOTH",
"428 611 OFFCURVE",
"422 617 OFFCURVE",
"409 617 CURVE SMOOTH",
"406 617 OFFCURVE",
"404 617 OFFCURVE",
"402 616 CURVE SMOOTH",
"358 595 OFFCURVE",
"323 544 OFFCURVE",
"323 489 CURVE SMOOTH",
"323 438 OFFCURVE",
"346 400 OFFCURVE",
"391 373 CURVE SMOOTH",
"428 351 OFFCURVE",
"473 339 OFFCURVE",
"526 338 CURVE",
"476 195 LINE",
"453 140 OFFCURVE",
"429 96 OFFCURVE",
"403 64 CURVE",
"334 108 OFFCURVE",
"288 135 OFFCURVE",
"266 146 CURVE SMOOTH",
"213 172 OFFCURVE",
"161 185 OFFCURVE",
"112 185 CURVE SMOOTH",
"77 185 OFFCURVE",
"47 177 OFFCURVE",
"23 160 CURVE SMOOTH",
"-4 141 OFFCURVE",
"-17 114 OFFCURVE",
"-17 79 CURVE SMOOTH",
"-17 30 OFFCURVE",
"6 -9 OFFCURVE",
"51 -38 CURVE SMOOTH",
"90 -63 OFFCURVE",
"134 -75 OFFCURVE",
"185 -75 CURVE SMOOTH",
"272 -75 OFFCURVE",
"347 -43 OFFCURVE",
"408 20 CURVE",
"511 -47 OFFCURVE",
"605 -81 OFFCURVE",
"690 -81 CURVE SMOOTH",
"759 -81 OFFCURVE",
"793 -59 OFFCURVE",
"793 -15 CURVE SMOOTH",
"793 -5 OFFCURVE",
"788 0 OFFCURVE",
"778 0 CURVE SMOOTH",
"765 0 OFFCURVE",
"759 -6 OFFCURVE",
"759 -19 CURVE SMOOTH",
"759 -38 OFFCURVE",
"736 -47 OFFCURVE",
"691 -47 CURVE SMOOTH",
"614 -47 OFFCURVE",
"527 -16 OFFCURVE",
"430 45 CURVE",
"458 80 OFFCURVE",
"484 127 OFFCURVE",
"507 186 CURVE SMOOTH",
"561 338 LINE",
"640 343 OFFCURVE",
"712 366 OFFCURVE",
"779 406 CURVE SMOOTH",
"854 451 OFFCURVE",
"902 507 OFFCURVE",
"922 576 CURVE SMOOTH"
);
},
{
closed = 1;
nodes = (
"872 528 OFFCURVE",
"831 478 OFFCURVE",
"765 438 CURVE SMOOTH",
"707 403 OFFCURVE",
"643 381 OFFCURVE",
"572 374 CURVE",
"606 473 OFFCURVE",
"634 544 OFFCURVE",
"657 587 CURVE SMOOTH",
"706 683 OFFCURVE",
"757 731 OFFCURVE",
"810 731 CURVE SMOOTH",
"867 731 OFFCURVE",
"896 701 OFFCURVE",
"896 641 CURVE SMOOTH",
"896 624 OFFCURVE",
"893 606 OFFCURVE",
"888 587 CURVE SMOOTH"
);
},
{
closed = 1;
nodes = (
"326 -15 OFFCURVE",
"261 -41 OFFCURVE",
"184 -41 CURVE SMOOTH",
"143 -41 OFFCURVE",
"106 -31 OFFCURVE",
"73 -12 CURVE SMOOTH",
"36 10 OFFCURVE",
"17 40 OFFCURVE",
"17 78 CURVE SMOOTH",
"17 102 OFFCURVE",
"27 121 OFFCURVE",
"46 134 CURVE SMOOTH",
"63 145 OFFCURVE",
"85 151 OFFCURVE",
"112 151 CURVE SMOOTH",
"184 151 OFFCURVE",
"273 113 OFFCURVE",
"379 38 CURVE"
);
}
);
width = 832;
}
);
note = L;
unicode = 004C;
},
{
glyphname = M;
layers = (
{
hints = (
{
horizontal = 1;
place = "{336, 36}";
type = Stem;
},
{
horizontal = 1;
place = "{540, 33}";
type = Stem;
},
{
horizontal = 1;
place = "{627, 34}";
type = Stem;
},
{
place = "{-15, 33}";
type = Stem;
},
{
place = "{235, 32}";
type = Stem;
},
{
place = "{330, 42}";
type = Stem;
},
{
place = "{669, 32}";
type = Stem;
},
{
place = "{835, 33}";
type = Stem;
},
{
place = "{1007, 34}";
type = Stem;
},
{
horizontal = 1;
place = "{659, 33}";
type = Stem;
},
{
horizontal = 1;
place = "{670, 33}";
type = Stem;
}
);
layerId = "769237BE-90A6-4D5E-A4C9-331744B3656A";
paths = (
{
closed = 1;
nodes = (
"1041 605 OFFCURVE",
"1034 633 OFFCURVE",
"1020 654 CURVE SMOOTH",
"1003 679 OFFCURVE",
"979 692 OFFCURVE",
"947 692 CURVE SMOOTH",
"859 692 OFFCURVE",
"774 599 OFFCURVE",
"692 413 CURVE",
"698 450 OFFCURVE",
"701 484 OFFCURVE",
"701 513 CURVE SMOOTH",
"701 612 OFFCURVE",
"668 661 OFFCURVE",
"603 661 CURVE SMOOTH",
"520 661 OFFCURVE",
"440 570 OFFCURVE",
"364 387 CURVE",
"369 421 OFFCURVE",
"372 453 OFFCURVE",
"372 483 CURVE SMOOTH",
"372 630 OFFCURVE",
"312 703 OFFCURVE",
"193 703 CURVE SMOOTH",
"139 703 OFFCURVE",
"91 682 OFFCURVE",
"48 641 CURVE SMOOTH",
"6 600 OFFCURVE",
"-15 553 OFFCURVE",
"-15 498 CURVE SMOOTH",
"-15 457 OFFCURVE",
"-1 419 OFFCURVE",
"28 386 CURVE SMOOTH",
"57 353 OFFCURVE",
"93 336 OFFCURVE",
"134 336 CURVE SMOOTH",
"174 336 OFFCURVE",
"207 351 OFFCURVE",
"232 382 CURVE SMOOTH",
"255 409 OFFCURVE",
"267 441 OFFCURVE",
"267 476 CURVE SMOOTH",
"267 504 OFFCURVE",
"259 527 OFFCURVE",
"244 544 CURVE SMOOTH",
"227 563 OFFCURVE",
"203 573 OFFCURVE",
"172 573 CURVE SMOOTH",
"152 573 OFFCURVE",
"142 567 OFFCURVE",
"142 556 CURVE SMOOTH",
"142 545 OFFCURVE",
"150 540 OFFCURVE",
"166 540 CURVE SMOOTH",
"212 540 OFFCURVE",
"235 519 OFFCURVE",
"235 478 CURVE SMOOTH",
"235 452 OFFCURVE",
"226 428 OFFCURVE",
"207 407 CURVE SMOOTH",
"187 384 OFFCURVE",
"163 372 OFFCURVE",
"135 372 CURVE SMOOTH",
"104 372 OFFCURVE",
"76 385 OFFCURVE",
"53 411 CURVE SMOOTH",
"30 437 OFFCURVE",
"18 466 OFFCURVE",
"18 498 CURVE SMOOTH",
"18 543 OFFCURVE",
"36 583 OFFCURVE",
"72 618 CURVE SMOOTH",
"108 653 OFFCURVE",
"149 670 OFFCURVE",
"194 670 CURVE SMOOTH",
"285 670 OFFCURVE",
"330 609 OFFCURVE",
"330 487 CURVE SMOOTH",
"330 416 OFFCURVE",
"316 334 OFFCURVE",
"289 240 CURVE SMOOTH",
"215 0 LINE",
"215 -3 LINE SMOOTH",
"215 -14 OFFCURVE",
"221 -19 OFFCURVE",
"234 -19 CURVE SMOOTH",
"241 -19 OFFCURVE",
"248 -12 OFFCURVE",
"254 3 CURVE SMOOTH",
"257 13 OFFCURVE",
"261 23 OFFCURVE",
"265 33 CURVE SMOOTH",
"319 188 LINE SMOOTH",
"347 266 OFFCURVE",
"373 332 OFFCURVE",
"398 386 CURVE SMOOTH",
"471 547 OFFCURVE",
"539 627 OFFCURVE",
"601 627 CURVE SMOOTH",
"646 627 OFFCURVE",
"669 591 OFFCURVE",
"669 518 CURVE SMOOTH",
"669 437 OFFCURVE",
"638 306 OFFCURVE",
"575 124 CURVE SMOOTH",
"548 45 OFFCURVE",
"535 5 OFFCURVE",
"535 4 CURVE SMOOTH",
"535 -7 OFFCURVE",
"542 -12 OFFCURVE",
"555 -12 CURVE SMOOTH",
"561 -12 OFFCURVE",
"565 -9 OFFCURVE",
"568 -4 CURVE",
"588 51 OFFCURVE",
"602 93 OFFCURVE",
"611 121 CURVE SMOOTH",
"737 480 OFFCURVE",
"849 659 OFFCURVE",
"948 659 CURVE SMOOTH",
"987 659 OFFCURVE",
"1007 630 OFFCURVE",
"1007 573 CURVE SMOOTH",
"1007 503 OFFCURVE",
"978 406 OFFCURVE",
"921 283 CURVE SMOOTH",
"892 219 OFFCURVE",
"873 176 OFFCURVE",
"864 153 CURVE SMOOTH",
"845 100 OFFCURVE",
"835 54 OFFCURVE",
"835 15 CURVE SMOOTH",
"835 -37 OFFCURVE",
"857 -63 OFFCURVE",
"900 -63 CURVE SMOOTH",
"918 -63 OFFCURVE",
"927 -57 OFFCURVE",
"927 -46 CURVE SMOOTH",
"927 -35 OFFCURVE",
"920 -29 OFFCURVE",
"905 -27 CURVE SMOOTH",
"891 -26 OFFCURVE",
"881 -23 OFFCURVE",
"876 -18 CURVE SMOOTH",
"871 -14 OFFCURVE",
"868 -5 OFFCURVE",
"868 9 CURVE SMOOTH",
"868 45 OFFCURVE",
"878 90 OFFCURVE",
"898 144 CURVE SMOOTH",
"905 164 OFFCURVE",
"924 207 OFFCURVE",
"954 272 CURVE SMOOTH",
"1012 401 OFFCURVE",
"1041 501 OFFCURVE",
"1041 572 CURVE SMOOTH"
);
}
);
width = 993;
}
);
note = M;
unicode = 004D;
},
{
glyphname = N;
layers = (
{
hints = (
{
horizontal = 1;
place = "{-76, 34}";
type = Stem;
},
{
horizontal = 1;
place = "{330, 35}";
type = Stem;
},
{
horizontal = 1;
place = "{541, 34}";
type = Stem;
},
{
horizontal = 1;
place = "{670, 33}";
type = Stem;
},
{
place = "{-19, 34}";
type = Stem;
},
{
place = "{236, 33}";
type = Stem;
},
{
place = "{339, 34}";
type = Stem;
},
{
place = "{539, 32}";
type = Stem;
},
{
place = "{714, 34}";
type = Stem;
},
{
horizontal = 1;
place = "{616, 35}";
type = Stem;
}
);
layerId = "769237BE-90A6-4D5E-A4C9-331744B3656A";
paths = (
{
closed = 1;
nodes = (
"748 558 OFFCURVE",
"738 588 OFFCURVE",
"718 612 CURVE SMOOTH",
"696 638 OFFCURVE",
"667 651 OFFCURVE",
"630 651 CURVE SMOOTH",
"525 651 OFFCURVE",
"435 565 OFFCURVE",
"362 392 CURVE",
"369 426 OFFCURVE",
"373 457 OFFCURVE",
"373 485 CURVE SMOOTH",
"373 548 OFFCURVE",
"360 599 OFFCURVE",
"333 637 CURVE SMOOTH",
"302 681 OFFCURVE",
"255 703 OFFCURVE",
"194 703 CURVE SMOOTH",
"139 703 OFFCURVE",
"89 681 OFFCURVE",
"46 638 CURVE SMOOTH",
"3 595 OFFCURVE",
"-19 545 OFFCURVE",
"-19 490 CURVE SMOOTH",
"-19 447 OFFCURVE",
"-4 410 OFFCURVE",
"26 378 CURVE SMOOTH",
"56 346 OFFCURVE",
"92 330 OFFCURVE",
"135 330 CURVE SMOOTH",
"214 330 OFFCURVE",
"269 387 OFFCURVE",
"269 466 CURVE SMOOTH",
"269 495 OFFCURVE",
"262 519 OFFCURVE",
"248 540 CURVE SMOOTH",
"232 563 OFFCURVE",
"210 575 OFFCURVE",
"182 575 CURVE SMOOTH",
"155 575 OFFCURVE",
"142 569 OFFCURVE",
"142 556 CURVE SMOOTH",
"142 545 OFFCURVE",
"148 539 OFFCURVE",
"159 539 CURVE SMOOTH",
"163 539 OFFCURVE",
"174 541 OFFCURVE",
"178 541 CURVE SMOOTH",
"214 541 OFFCURVE",
"236 505 OFFCURVE",
"236 465 CURVE SMOOTH",
"236 406 OFFCURVE",
"194 365 OFFCURVE",
"135 365 CURVE SMOOTH",
"102 365 OFFCURVE",
"74 377 OFFCURVE",
"50 401 CURVE SMOOTH",
"27 426 OFFCURVE",
"15 455 OFFCURVE",
"15 488 CURVE SMOOTH",
"15 534 OFFCURVE",
"33 576 OFFCURVE",
"70 613 CURVE SMOOTH",
"107 651 OFFCURVE",
"149 670 OFFCURVE",
"194 670 CURVE SMOOTH",
"291 670 OFFCURVE",
"339 608 OFFCURVE",
"339 485 CURVE SMOOTH",
"339 430 OFFCURVE",
"323 349 OFFCURVE",
"291 243 CURVE SMOOTH",
"215 0 LINE",
"212 -13 OFFCURVE",
"216 -19 OFFCURVE",
"229 -19 CURVE SMOOTH",
"242 -19 OFFCURVE",
"250 -13 OFFCURVE",
"255 -2 CURVE",
"266 33 LINE SMOOTH",
"301 144 OFFCURVE",
"336 241 OFFCURVE",
"370 324 CURVE SMOOTH",
"450 519 OFFCURVE",
"537 616 OFFCURVE",
"630 616 CURVE SMOOTH",
"657 616 OFFCURVE",
"679 607 OFFCURVE",
"694 588 CURVE SMOOTH",
"707 571 OFFCURVE",
"714 549 OFFCURVE",
"714 520 CURVE SMOOTH",
"714 469 OFFCURVE",
"702 413 OFFCURVE",
"678 353 CURVE SMOOTH",
"671 337 OFFCURVE",
"647 285 OFFCURVE",
"604 197 CURVE SMOOTH",
"573 134 OFFCURVE",
"552 81 OFFCURVE",
"542 37 CURVE SMOOTH",
"540 26 OFFCURVE",
"539 15 OFFCURVE",
"539 2 CURVE SMOOTH",
"539 -50 OFFCURVE",
"557 -76 OFFCURVE",
"593 -76 CURVE SMOOTH",
"606 -76 OFFCURVE",
"631 -66 OFFCURVE",
"631 -54 CURVE SMOOTH",
"631 -42 OFFCURVE",
"625 -36 OFFCURVE",
"614 -36 CURVE SMOOTH",
"609 -36 OFFCURVE",
"597 -42 OFFCURVE",
"592 -42 CURVE SMOOTH",
"578 -42 OFFCURVE",
"571 -30 OFFCURVE",
"571 -7 CURVE SMOOTH",
"571 4 OFFCURVE",
"573 19 OFFCURVE",
"576 38 CURVE SMOOTH",
"586 84 OFFCURVE",
"606 137 OFFCURVE",
"637 197 CURVE SMOOTH",
"681 282 OFFCURVE",
"706 332 OFFCURVE",
"712 347 CURVE SMOOTH",
"736 406 OFFCURVE",
"748 464 OFFCURVE",
"748 521 CURVE SMOOTH"
);
}
);
width = 694;
}
);
note = N;
unicode = 004E;
},
{
glyphname = Eng;
lastChange = "2021-11-27 17:27:09 +0000";
layers = (
{
background = {
hints = (
{
horizontal = 1;
place = "{-87, 34}";
type = Stem;
},
{
horizontal = 1;
place = "{290, 34}";
type = Stem;
},
{
horizontal = 1;
place = "{599, 78}";
type = Stem;
},
{
place = "{-5, 35}";
type = Stem;
},
{
place = "{285, 35}";
type = Stem;
},
{
place = "{363, 34}";
type = Stem;
},
{
horizontal = 1;
place = "{257, 35}";
type = Stem;
}
);
paths = (
{
closed = 1;
nodes = (
"570 139 OFFCURVE",
"527 -22 OFFCURVE",
"480 -137 CURVE SMOOTH",
"438 -239 OFFCURVE",
"385 -325 OFFCURVE",
"284 -325 CURVE SMOOTH",
"213 -325 OFFCURVE",
"167 -284 OFFCURVE",
"167 -223 CURVE SMOOTH",
"167 -157 OFFCURVE",
"209 -112 OFFCURVE",
"270 -112 CURVE SMOOTH",
"294 -112 OFFCURVE",
"305 -79 OFFCURVE",
"273 -79 CURVE SMOOTH",
"191 -79 OFFCURVE",
"134 -138 OFFCURVE",
"134 -223 CURVE SMOOTH",
"134 -301 OFFCURVE",
"197 -358 OFFCURVE",
"283 -358 CURVE SMOOTH",
"403 -358 OFFCURVE",
"463 -272 OFFCURVE",
"530 -103 CURVE SMOOTH",
"551 -50 OFFCURVE",
"634 193 OFFCURVE",
"686 304 CURVE",
"650 289 LINE"
);
}
);
};
hints = (
{
horizontal = 1;
place = "{-76, 34}";
type = Stem;
},
{
horizontal = 1;
place = "{330, 35}";
type = Stem;
},
{
horizontal = 1;
place = "{541, 34}";
type = Stem;
},
{
horizontal = 1;
place = "{670, 33}";
type = Stem;
},
{
place = "{-19, 34}";
type = Stem;
},
{
place = "{236, 33}";
type = Stem;
},
{
place = "{339, 34}";
type = Stem;
},
{
place = "{539, 32}";
type = Stem;
},
{
place = "{714, 34}";
type = Stem;
},
{
horizontal = 1;
place = "{616, 35}";
type = Stem;
}
);
layerId = "769237BE-90A6-4D5E-A4C9-331744B3656A";
paths = (
{
closed = 1;
nodes = (
"696 638 OFFCURVE",
"667 651 OFFCURVE",
"630 651 CURVE SMOOTH",
"525 651 OFFCURVE",
"435 565 OFFCURVE",
"362 392 CURVE",
"369 426 OFFCURVE",
"373 457 OFFCURVE",
"373 485 CURVE SMOOTH",
"373 548 OFFCURVE",
"360 599 OFFCURVE",
"333 637 CURVE SMOOTH",
"302 681 OFFCURVE",
"255 703 OFFCURVE",
"194 703 CURVE SMOOTH",
"139 703 OFFCURVE",
"89 681 OFFCURVE",
"46 638 CURVE SMOOTH",
"3 595 OFFCURVE",
"-19 545 OFFCURVE",
"-19 490 CURVE SMOOTH",
"-19 447 OFFCURVE",
"-4 410 OFFCURVE",
"26 378 CURVE SMOOTH",
"56 346 OFFCURVE",
"92 330 OFFCURVE",
"135 330 CURVE SMOOTH",
"214 330 OFFCURVE",
"269 387 OFFCURVE",
"269 466 CURVE SMOOTH",
"269 495 OFFCURVE",
"262 519 OFFCURVE",
"248 540 CURVE SMOOTH",
"232 563 OFFCURVE",
"210 575 OFFCURVE",
"182 575 CURVE SMOOTH",
"155 575 OFFCURVE",
"142 569 OFFCURVE",
"142 556 CURVE SMOOTH",
"142 545 OFFCURVE",
"148 539 OFFCURVE",
"159 539 CURVE SMOOTH",
"163 539 OFFCURVE",
"174 541 OFFCURVE",
"178 541 CURVE SMOOTH",
"214 541 OFFCURVE",
"236 505 OFFCURVE",
"236 465 CURVE SMOOTH",
"236 406 OFFCURVE",
"194 365 OFFCURVE",
"135 365 CURVE SMOOTH",
"102 365 OFFCURVE",
"74 377 OFFCURVE",
"50 401 CURVE SMOOTH",
"27 426 OFFCURVE",
"15 455 OFFCURVE",
"15 488 CURVE SMOOTH",
"15 534 OFFCURVE",
"33 576 OFFCURVE",
"70 613 CURVE SMOOTH",
"107 651 OFFCURVE",
"149 670 OFFCURVE",
"194 670 CURVE SMOOTH",
"291 670 OFFCURVE",
"339 608 OFFCURVE",
"339 485 CURVE SMOOTH",
"339 430 OFFCURVE",
"324 349 OFFCURVE",
"291 243 CURVE SMOOTH",
"215 0 LINE",
"212 -13 OFFCURVE",
"216 -19 OFFCURVE",
"229 -19 CURVE SMOOTH",
"242 -19 OFFCURVE",
"250 -13 OFFCURVE",
"255 -2 CURVE",
"266 33 LINE SMOOTH",
"301 144 OFFCURVE",
"336 241 OFFCURVE",
"370 324 CURVE SMOOTH",
"450 519 OFFCURVE",
"537 616 OFFCURVE",
"630 616 CURVE SMOOTH",
"657 616 OFFCURVE",
"679 607 OFFCURVE",
"694 588 CURVE SMOOTH",
"707 571 OFFCURVE",
"714 549 OFFCURVE",
"714 520 CURVE SMOOTH",
"714 469 OFFCURVE",
"701 414 OFFCURVE",
"678 353 CURVE SMOOTH",
"588 116 OFFCURVE",
"502 -115 OFFCURVE",
"444 -206 CURVE SMOOTH",
"402 -271 OFFCURVE",
"347 -325 OFFCURVE",
"284 -325 CURVE SMOOTH",
"213 -325 OFFCURVE",
"167 -284 OFFCURVE",
"167 -223 CURVE SMOOTH",
"167 -157 OFFCURVE",
"209 -112 OFFCURVE",
"270 -112 CURVE SMOOTH",
"294 -112 OFFCURVE",
"305 -79 OFFCURVE",
"273 -79 CURVE SMOOTH",
"191 -79 OFFCURVE",
"134 -138 OFFCURVE",
"134 -223 CURVE SMOOTH",
"134 -301 OFFCURVE",
"197 -358 OFFCURVE",
"283 -358 CURVE SMOOTH",
"357 -358 OFFCURVE",
"419 -306 OFFCURVE",
"471 -227 CURVE SMOOTH",
"531 -132 OFFCURVE",
"645 164 OFFCURVE",
"712 347 CURVE SMOOTH",
"734 406 OFFCURVE",
"748 464 OFFCURVE",
"748 521 CURVE SMOOTH",
"748 558 OFFCURVE",
"738 588 OFFCURVE",
"718 612 CURVE SMOOTH"
);
}
);
width = 724;
}
);
unicode = 014A;
},
{
glyphname = O;
layers = (
{
hints = (
{
horizontal = 1;
place = "{-70, 34}";
type = Stem;
},
{
horizontal = 1;
place = "{377, 34}";
type = Stem;
},
{
horizontal = 1;
place = "{682, 30}";
type = Stem;
},
{
place = "{56, 34}";
type = Stem;
},
{
place = "{669, 33}";
type = Stem;
},
{
place = "{776, 32}";
type = Stem;
}
);
layerId = "769237BE-90A6-4D5E-A4C9-331744B3656A";
paths = (
{
closed = 1;
nodes = (
"808 415 OFFCURVE",
"800 454 OFFCURVE",
"784 492 CURVE SMOOTH",
"763 541 OFFCURVE",
"735 566 OFFCURVE",
"700 566 CURVE",
"701 572 OFFCURVE",
"702 578 OFFCURVE",
"702 585 CURVE SMOOTH",
"702 629 OFFCURVE",
"680 662 OFFCURVE",
"637 685 CURVE SMOOTH",
"603 703 OFFCURVE",
"562 712 OFFCURVE",
"515 712 CURVE SMOOTH",
"438 712 OFFCURVE",
"361 688 OFFCURVE",
"286 641 CURVE SMOOTH",
"214 595 OFFCURVE",
"158 537 OFFCURVE",
"118 467 CURVE",
"58 504 OFFCURVE",
"18 555 OFFCURVE",
"-3 620 CURVE",
"-12 661 OFFCURVE",
"-11 682 OFFCURVE",
"-27 682 CURVE SMOOTH",
"-40 682 OFFCURVE",
"-46 676 OFFCURVE",
"-46 663 CURVE SMOOTH",
"-46 620 OFFCURVE",
"-31 576 OFFCURVE",
"0 533 CURVE SMOOTH",
"28 494 OFFCURVE",
"62 462 OFFCURVE",
"103 437 CURVE",
"72 372 OFFCURVE",
"56 304 OFFCURVE",
"56 232 CURVE SMOOTH",
"56 141 OFFCURVE",
"86 68 OFFCURVE",
"147 13 CURVE SMOOTH",
"208 -42 OFFCURVE",
"284 -70 OFFCURVE",
"375 -70 CURVE SMOOTH",
"496 -70 OFFCURVE",
"598 -25 OFFCURVE",
"683 64 CURVE SMOOTH",
"766 151 OFFCURVE",
"808 255 OFFCURVE",
"808 376 CURVE SMOOTH"
);
},
{
closed = 1;
nodes = (
"669 527 OFFCURVE",
"629 482 OFFCURVE",
"548 449 CURVE SMOOTH",
"485 424 OFFCURVE",
"419 411 OFFCURVE",
"348 411 CURVE SMOOTH",
"268 411 OFFCURVE",
"201 424 OFFCURVE",
"148 450 CURVE",
"184 514 OFFCURVE",
"235 568 OFFCURVE",
"302 612 CURVE SMOOTH",
"373 659 OFFCURVE",
"443 682 OFFCURVE",
"512 682 CURVE SMOOTH",
"552 682 OFFCURVE",
"586 675 OFFCURVE",
"615 662 CURVE SMOOTH",
"651 645 OFFCURVE",
"669 619 OFFCURVE",
"669 585 CURVE SMOOTH"
);
},
{
closed = 1;
nodes = (
"776 263 OFFCURVE",
"736 167 OFFCURVE",
"657 86 CURVE SMOOTH",
"578 5 OFFCURVE",
"483 -36 OFFCURVE",
"372 -36 CURVE SMOOTH",
"289 -36 OFFCURVE",
"222 -12 OFFCURVE",
"169 37 CURVE SMOOTH",
"116 86 OFFCURVE",
"90 152 OFFCURVE",
"90 234 CURVE SMOOTH",
"90 299 OFFCURVE",
"104 361 OFFCURVE",
"132 420 CURVE",
"190 391 OFFCURVE",
"262 377 OFFCURVE",
"347 377 CURVE SMOOTH",
"418 377 OFFCURVE",
"483 388 OFFCURVE",
"542 410 CURVE SMOOTH",
"616 438 OFFCURVE",
"665 480 OFFCURVE",
"690 535 CURVE",
"704 527 OFFCURVE",
"714 521 OFFCURVE",
"721 518 CURVE",
"758 491 OFFCURVE",
"776 443 OFFCURVE",
"776 374 CURVE SMOOTH"
);
}
);
width = 829;
}
);
note = O;
unicode = 004F;
},
{
glyphname = Oslash;
layers = (
{
hints = (
{
horizontal = 1;
place = "{-51, 34}";
type = Stem;
},
{
horizontal = 1;
place = "{260, 34}";
type = Stem;
},
{
horizontal = 1;
place = "{581, 35}";
type = Stem;
},
{
place = "{17, 34}";
type = Stem;
},
{
place = "{266, 34}";
type = Stem;
},
{
place = "{593, 33}";
type = Stem;
}
);
layerId = "769237BE-90A6-4D5E-A4C9-331744B3656A";
paths = (
{
closed = 1;
nodes = (
"80 82 LINE",
"61 117 OFFCURVE",
"51 158 OFFCURVE",
"51 206 CURVE SMOOTH",
"51 296 OFFCURVE",
"74 374 OFFCURVE",
"121 440 CURVE SMOOTH",
"150 481 OFFCURVE",
"189 515 OFFCURVE",
"236 541 CURVE SMOOTH",
"284 568 OFFCURVE",
"332 581 OFFCURVE",
"381 581 CURVE SMOOTH",
"440 581 OFFCURVE",
"488 564 OFFCURVE",
"527 531 CURVE",
"317 320 LINE",
"306 332 OFFCURVE",
"300 348 OFFCURVE",
"300 368 CURVE SMOOTH",
"300 376 OFFCURVE",
"305 397 OFFCURVE",
"305 405 CURVE SMOOTH",
"305 416 OFFCURVE",
"299 422 OFFCURVE",
"287 422 CURVE SMOOTH",
"273 422 OFFCURVE",
"266 404 OFFCURVE",
"266 368 CURVE SMOOTH",
"266 339 OFFCURVE",
"275 315 OFFCURVE",
"293 296 CURVE"
);
},
{
closed = 1;
nodes = (
"321 276 LINE",
"342 265 OFFCURVE",
"366 260 OFFCURVE",
"393 260 CURVE SMOOTH",
"434 260 OFFCURVE",
"472 270 OFFCURVE",
"509 290 CURVE SMOOTH",
"548 311 OFFCURVE",
"576 340 OFFCURVE",
"593 375 CURVE",
"593 358 LINE SMOOTH",
"593 298 OFFCURVE",
"582 242 OFFCURVE",
"559 191 CURVE SMOOTH",
"533 132 OFFCURVE",
"495 83 OFFCURVE",
"445 44 CURVE SMOOTH",
"391 3 OFFCURVE",
"333 -17 OFFCURVE",
"271 -17 CURVE SMOOTH",
"196 -17 OFFCURVE",
"139 6 OFFCURVE",
"100 53 CURVE"
);
},
{
closed = 1;
nodes = (
"550 506 LINE",
"565 485 OFFCURVE",
"572 461 OFFCURVE",
"572 435 CURVE SMOOTH",
"572 394 OFFCURVE",
"552 360 OFFCURVE",
"513 332 CURVE SMOOTH",
"478 307 OFFCURVE",
"438 294 OFFCURVE",
"395 294 CURVE SMOOTH",
"376 294 OFFCURVE",
"360 296 OFFCURVE",
"346 301 CURVE"
);
},
{
closed = 1;
nodes = (
"717 673 LINE SMOOTH",
"720 676 OFFCURVE",
"721 680 OFFCURVE",
"721 684 CURVE SMOOTH",
"721 696 OFFCURVE",
"715 702 OFFCURVE",
"703 702 CURVE SMOOTH",
"699 702 OFFCURVE",
"695 701 OFFCURVE",
"692 698 CURVE SMOOTH",
"553 557 LINE",
"510 596 OFFCURVE",
"452 616 OFFCURVE",
"377 616 CURVE SMOOTH",
"374 616 OFFCURVE",
"368 616 OFFCURVE",
"361 615 CURVE SMOOTH",
"259 604 OFFCURVE",
"176 559 OFFCURVE",
"111 480 CURVE SMOOTH",
"48 404 OFFCURVE",
"17 314 OFFCURVE",
"17 209 CURVE SMOOTH",
"17 150 OFFCURVE",
"30 100 OFFCURVE",
"56 57 CURVE",
"-24 -22 LINE SMOOTH",
"-27 -25 OFFCURVE",
"-28 -29 OFFCURVE",
"-28 -33 CURVE SMOOTH",
"-28 -45 OFFCURVE",
"-22 -51 OFFCURVE",
"-10 -51 CURVE SMOOTH",
"-6 -51 OFFCURVE",
"-2 -50 OFFCURVE",
"1 -47 CURVE SMOOTH",
"76 30 LINE",
"122 -24 OFFCURVE",
"186 -51 OFFCURVE",
"269 -51 CURVE SMOOTH",
"338 -51 OFFCURVE",
"403 -29 OFFCURVE",
"463 16 CURVE SMOOTH",
"519 58 OFFCURVE",
"561 112 OFFCURVE",
"590 178 CURVE SMOOTH",
"614 234 OFFCURVE",
"626 294 OFFCURVE",
"626 359 CURVE SMOOTH",
"626 430 OFFCURVE",
"609 488 OFFCURVE",
"576 532 CURVE"
);
}
);
width = 666;
}
);
note = Oslash;
unicode = 00D8;
},
{
glyphname = OE;
layers = (
{
hints = (
{
horizontal = 1;
place = "{-70, 34}";
type = Stem;
},
{
horizontal = 1;
place = "{216, 34}";
type = Stem;
},
{
horizontal = 1;
place = "{377, 34}";
type = Stem;
},
{
horizontal = 1;
place = "{482, 33}";
type = Stem;
},
{
horizontal = 1;
place = "{668, 34}";
type = Stem;
},
{
place = "{56, 34}";
type = Stem;
},
{
place = "{669, 33}";
type = Stem;
},
{
place = "{776, 32}";
type = Stem;
},
{
place = "{1083, 34}";
type = Stem;
},
{
place = "{1203, 34}";
type = Stem;
},
{
horizontal = 1;
place = "{682, 30}";
type = Stem;
},
{
horizontal = 1;
place = "{-65, 35}";
type = Stem;
},
{
horizontal = 1;
place = "{345, 69}";
type = Stem;
},
{
place = "{834, 34}";
type = Stem;
},
{
place = "{1234, 34}";
type = Stem;
}
);
layerId = "769237BE-90A6-4D5E-A4C9-331744B3656A";
paths = (
{
closed = 1;
nodes = (
"808 415 OFFCURVE",
"800 454 OFFCURVE",
"784 492 CURVE SMOOTH",
"763 541 OFFCURVE",
"735 566 OFFCURVE",
"700 566 CURVE",
"701 572 OFFCURVE",
"702 578 OFFCURVE",
"702 585 CURVE SMOOTH",
"702 629 OFFCURVE",
"680 662 OFFCURVE",
"637 685 CURVE SMOOTH",
"603 703 OFFCURVE",
"562 712 OFFCURVE",
"515 712 CURVE SMOOTH",
"438 712 OFFCURVE",
"361 688 OFFCURVE",
"286 641 CURVE SMOOTH",
"214 595 OFFCURVE",
"158 537 OFFCURVE",
"118 467 CURVE",
"58 504 OFFCURVE",
"18 555 OFFCURVE",
"-3 620 CURVE",
"-12 661 OFFCURVE",
"-11 682 OFFCURVE",
"-27 682 CURVE SMOOTH",
"-40 682 OFFCURVE",
"-46 676 OFFCURVE",
"-46 663 CURVE SMOOTH",
"-46 620 OFFCURVE",
"-31 576 OFFCURVE",
"0 533 CURVE SMOOTH",
"28 494 OFFCURVE",
"62 462 OFFCURVE",
"103 437 CURVE",
"72 372 OFFCURVE",
"56 304 OFFCURVE",
"56 232 CURVE SMOOTH",
"56 141 OFFCURVE",
"86 68 OFFCURVE",
"147 13 CURVE SMOOTH",
"208 -42 OFFCURVE",
"284 -70 OFFCURVE",
"375 -70 CURVE SMOOTH",
"493 -70 OFFCURVE",
"594 -27 OFFCURVE",
"678 58 CURVE",
"694 18 OFFCURVE",
"725 -13 OFFCURVE",
"771 -35 CURVE SMOOTH",
"812 -55 OFFCURVE",
"857 -65 OFFCURVE",
"906 -65 CURVE SMOOTH",
"976 -65 OFFCURVE",
"1039 -52 OFFCURVE",
"1095 -25 CURVE SMOOTH",
"1163 6 OFFCURVE",
"1207 51 OFFCURVE",
"1228 110 CURVE SMOOTH",
"1234 127 OFFCURVE",
"1237 144 OFFCURVE",
"1237 163 CURVE SMOOTH",
"1237 221 OFFCURVE",
"1214 250 OFFCURVE",
"1169 250 CURVE SMOOTH",
"1134 250 OFFCURVE",
"1116 243 OFFCURVE",
"1116 229 CURVE SMOOTH",
"1116 217 OFFCURVE",
"1122 211 OFFCURVE",
"1134 211 CURVE SMOOTH",
"1142 211 OFFCURVE",
"1160 216 OFFCURVE",
"1168 216 CURVE SMOOTH",
"1191 216 OFFCURVE",
"1203 200 OFFCURVE",
"1203 168 CURVE SMOOTH",
"1203 103 OFFCURVE",
"1169 52 OFFCURVE",
"1100 15 CURVE SMOOTH",
"1044 -15 OFFCURVE",
"980 -30 OFFCURVE",
"907 -30 CURVE SMOOTH",
"858 -30 OFFCURVE",
"815 -21 OFFCURVE",
"780 -4 CURVE SMOOTH",
"739 17 OFFCURVE",
"713 47 OFFCURVE",
"703 86 CURVE",
"756 150 OFFCURVE",
"790 223 OFFCURVE",
"803 305 CURVE",
"838 332 OFFCURVE",
"877 351 OFFCURVE",
"920 364 CURVE",
"947 351 OFFCURVE",
"985 345 OFFCURVE",
"1034 345 CURVE SMOOTH",
"1087 345 OFFCURVE",
"1113 357 OFFCURVE",
"1113 382 CURVE SMOOTH",
"1113 403 OFFCURVE",
"1094 414 OFFCURVE",
"1056 414 CURVE SMOOTH",
"1003 414 OFFCURVE",
"959 409 OFFCURVE",
"923 400 CURVE",
"886 421 OFFCURVE",
"868 453 OFFCURVE",
"868 495 CURVE SMOOTH",
"868 547 OFFCURVE",
"897 590 OFFCURVE",
"955 624 CURVE SMOOTH",
"1006 653 OFFCURVE",
"1060 668 OFFCURVE",
"1117 668 CURVE SMOOTH",
"1148 668 OFFCURVE",
"1174 663 OFFCURVE",
"1195 652 CURVE SMOOTH",
"1221 639 OFFCURVE",
"1234 620 OFFCURVE",
"1234 593 CURVE SMOOTH",
"1234 546 OFFCURVE",
"1196 515 OFFCURVE",
"1148 515 CURVE SMOOTH",
"1127 515 OFFCURVE",
"1117 521 OFFCURVE",
"1117 534 CURVE SMOOTH",
"1117 538 OFFCURVE",
"1121 549 OFFCURVE",
"1121 553 CURVE SMOOTH",
"1121 565 OFFCURVE",
"1115 571 OFFCURVE",
"1103 571 CURVE SMOOTH",
"1091 571 OFFCURVE",
"1083 549 OFFCURVE",
"1083 537 CURVE SMOOTH",
"1083 504 OFFCURVE",
"1116 482 OFFCURVE",
"1148 482 CURVE SMOOTH",
"1179 482 OFFCURVE",
"1206 492 OFFCURVE",
"1231 512 CURVE SMOOTH",
"1256 532 OFFCURVE",
"1268 557 OFFCURVE",
"1268 588 CURVE SMOOTH",
"1268 628 OFFCURVE",
"1251 658 OFFCURVE",
"1217 678 CURVE SMOOTH",
"1190 694 OFFCURVE",
"1156 702 OFFCURVE",
"1115 702 CURVE SMOOTH",
"1049 702 OFFCURVE",
"988 684 OFFCURVE",
"931 649 CURVE SMOOTH",
"866 608 OFFCURVE",
"834 556 OFFCURVE",
"834 493 CURVE SMOOTH",
"834 452 OFFCURVE",
"850 417 OFFCURVE",
"883 388 CURVE",
"856 378 OFFCURVE",
"831 366 OFFCURVE",
"807 351 CURVE",
"808 359 OFFCURVE",
"808 367 OFFCURVE",
"808 376 CURVE SMOOTH"
);
},
{
closed = 1;
nodes = (
"669 527 OFFCURVE",
"629 482 OFFCURVE",
"548 449 CURVE SMOOTH",
"485 424 OFFCURVE",
"419 411 OFFCURVE",
"348 411 CURVE SMOOTH",
"268 411 OFFCURVE",
"201 424 OFFCURVE",
"148 450 CURVE",
"184 514 OFFCURVE",
"235 568 OFFCURVE",
"302 612 CURVE SMOOTH",
"373 659 OFFCURVE",
"443 682 OFFCURVE",
"512 682 CURVE SMOOTH",
"552 682 OFFCURVE",
"586 675 OFFCURVE",
"615 662 CURVE SMOOTH",
"651 645 OFFCURVE",
"669 619 OFFCURVE",
"669 585 CURVE SMOOTH"
);
},
{
closed = 1;
nodes = (
"776 263 OFFCURVE",
"736 167 OFFCURVE",
"657 86 CURVE SMOOTH",
"578 5 OFFCURVE",
"483 -36 OFFCURVE",
"372 -36 CURVE SMOOTH",
"289 -36 OFFCURVE",
"222 -12 OFFCURVE",
"169 37 CURVE SMOOTH",
"116 86 OFFCURVE",
"90 152 OFFCURVE",
"90 234 CURVE SMOOTH",
"90 299 OFFCURVE",
"104 361 OFFCURVE",
"132 420 CURVE",
"190 391 OFFCURVE",
"262 377 OFFCURVE",
"347 377 CURVE SMOOTH",
"418 377 OFFCURVE",
"483 388 OFFCURVE",
"542 410 CURVE SMOOTH",
"616 438 OFFCURVE",
"665 480 OFFCURVE",
"690 535 CURVE",
"704 527 OFFCURVE",
"714 521 OFFCURVE",
"721 518 CURVE",
"758 491 OFFCURVE",
"776 443 OFFCURVE",
"776 374 CURVE SMOOTH"
);
}
);
width = 1283;
}
);
note = OE;
unicode = 0152;
},
{
glyphname = P;
layers = (
{
hints = (
{
horizontal = 1;
place = "{164, 34}";
type = Stem;
},
{
horizontal = 1;
place = "{389, 34}";
type = Stem;
},
{
horizontal = 1;
place = "{683, 32}";
type = Stem;
},
{
place = "{3, 34}";
type = Stem;
},
{
place = "{650, 34}";
type = Stem;
},
{
horizontal = 1;
place = "{453, -20}";
target = down;
type = TopGhost;
}
);
layerId = "769237BE-90A6-4D5E-A4C9-331744B3656A";
paths = (
{
closed = 1;
nodes = (
"684 541 OFFCURVE",
"660 597 OFFCURVE",
"611 640 CURVE SMOOTH",
"568 678 OFFCURVE",
"511 702 OFFCURVE",
"441 711 CURVE",
"446 718 OFFCURVE",
"453 723 OFFCURVE",
"462 728 CURVE SMOOTH",
"474 733 OFFCURVE",
"480 739 OFFCURVE",
"480 744 CURVE SMOOTH",
"480 753 OFFCURVE",
"474 758 OFFCURVE",
"461 758 CURVE SMOOTH",
"442 758 OFFCURVE",
"423 744 OFFCURVE",
"404 715 CURVE",
"367 715 LINE SMOOTH",
"278 715 OFFCURVE",
"200 700 OFFCURVE",
"133 669 CURVE SMOOTH",
"46 628 OFFCURVE",
"3 567 OFFCURVE",
"3 486 CURVE SMOOTH",
"3 457 OFFCURVE",
"15 433 OFFCURVE",
"40 414 CURVE SMOOTH",
"62 397 OFFCURVE",
"88 389 OFFCURVE",
"118 389 CURVE SMOOTH",
"147 389 OFFCURVE",
"170 403 OFFCURVE",
"185 430 CURVE SMOOTH",
"186 432 OFFCURVE",
"187 434 OFFCURVE",
"187 437 CURVE SMOOTH",
"187 448 OFFCURVE",
"181 453 OFFCURVE",
"170 453 CURVE SMOOTH",
"166 453 OFFCURVE",
"160 447 OFFCURVE",
"151 436 CURVE SMOOTH",
"144 427 OFFCURVE",
"133 423 OFFCURVE",
"118 423 CURVE SMOOTH",
"99 423 OFFCURVE",
"82 428 OFFCURVE",
"65 439 CURVE SMOOTH",
"46 452 OFFCURVE",
"37 466 OFFCURVE",
"37 482 CURVE SMOOTH",
"37 553 OFFCURVE",
"78 606 OFFCURVE",
"159 641 CURVE SMOOTH",
"221 669 OFFCURVE",
"294 683 OFFCURVE",
"377 683 CURVE SMOOTH",
"380 683 OFFCURVE",
"383 683 OFFCURVE",
"385 682 CURVE",
"358 629 OFFCURVE",
"327 551 OFFCURVE",
"291 446 CURVE SMOOTH",
"253 336 OFFCURVE",
"222 257 OFFCURVE",
"199 208 CURVE",
"182 213 OFFCURVE",
"168 222 OFFCURVE",
"156 234 CURVE SMOOTH",
"151 239 OFFCURVE",
"146 242 OFFCURVE",
"139 242 CURVE SMOOTH",
"130 242 OFFCURVE",
"125 236 OFFCURVE",
"125 225 CURVE SMOOTH",
"125 206 OFFCURVE",
"145 190 OFFCURVE",
"185 177 CURVE",
"153 113 OFFCURVE",
"124 65 OFFCURVE",
"97 34 CURVE SMOOTH",
"58 -13 OFFCURVE",
"13 -43 OFFCURVE",
"-38 -56 CURVE SMOOTH",
"-47 -59 OFFCURVE",
"-52 -64 OFFCURVE",
"-52 -71 CURVE SMOOTH",
"-52 -84 OFFCURVE",
"-46 -90 OFFCURVE",
"-33 -90 CURVE SMOOTH",
"12 -90 OFFCURVE",
"62 -57 OFFCURVE",
"117 9 CURVE SMOOTH",
"155 55 OFFCURVE",
"189 108 OFFCURVE",
"219 168 CURVE",
"237 165 OFFCURVE",
"255 164 OFFCURVE",
"273 164 CURVE SMOOTH",
"376 164 OFFCURVE",
"467 189 OFFCURVE",
"546 238 CURVE SMOOTH",
"638 296 OFFCURVE",
"684 374 OFFCURVE",
"684 473 CURVE SMOOTH"
);
},
{
closed = 1;
nodes = (
"650 384 OFFCURVE",
"608 315 OFFCURVE",
"524 264 CURVE SMOOTH",
"452 220 OFFCURVE",
"368 198 OFFCURVE",
"273 198 CURVE SMOOTH",
"260 198 OFFCURVE",
"247 199 OFFCURVE",
"234 200 CURVE",
"256 246 OFFCURVE",
"286 326 OFFCURVE",
"325 441 CURVE SMOOTH",
"360 545 OFFCURVE",
"393 624 OFFCURVE",
"422 679 CURVE",
"488 672 OFFCURVE",
"541 652 OFFCURVE",
"581 621 CURVE SMOOTH",
"627 584 OFFCURVE",
"650 535 OFFCURVE",
"650 473 CURVE SMOOTH"
);
}
);
width = 672;
}
);
note = P;
unicode = 0050;
},
{
glyphname = Thorn;
layers = (
{
hints = (
{
horizontal = 1;
place = "{123, 34}";
type = Stem;
},
{
horizontal = 1;
place = "{640, 34}";
type = Stem;
},
{
place = "{631, 34}";
type = Stem;
}
);
layerId = "769237BE-90A6-4D5E-A4C9-331744B3656A";
paths = (
{
closed = 1;
nodes = (
"665 500 OFFCURVE",
"641 556 OFFCURVE",
"592 599 CURVE SMOOTH",
"549 637 OFFCURVE",
"492 661 OFFCURVE",
"422 670 CURVE",
"427 677 OFFCURVE",
"452 744 OFFCURVE",
"494 817 CURVE SMOOTH",
"500 828 OFFCURVE",
"516 852 OFFCURVE",
"516 857 CURVE SMOOTH",
"516 866 OFFCURVE",
"510 871 OFFCURVE",
"497 871 CURVE SMOOTH",
"478 871 OFFCURVE",
"421 755 OFFCURVE",
"385 674 CURVE",
"348 674 LINE SMOOTH",
"315 674 OFFCURVE",
"326 628 OFFCURVE",
"349 640 CURVE",
"352 641 OFFCURVE",
"364 642 OFFCURVE",
"366 641 CURVE",
"339 588 OFFCURVE",
"308 510 OFFCURVE",
"272 405 CURVE SMOOTH",
"234 295 OFFCURVE",
"203 216 OFFCURVE",
"180 167 CURVE",
"163 172 OFFCURVE",
"149 181 OFFCURVE",
"137 193 CURVE SMOOTH",
"132 198 OFFCURVE",
"127 201 OFFCURVE",
"120 201 CURVE SMOOTH",
"111 201 OFFCURVE",
"106 195 OFFCURVE",
"106 184 CURVE SMOOTH",
"106 165 OFFCURVE",
"126 149 OFFCURVE",
"166 136 CURVE",
"134 72 OFFCURVE",
"124 65 OFFCURVE",
"97 34 CURVE SMOOTH",
"58 -13 OFFCURVE",
"13 -43 OFFCURVE",
"-38 -56 CURVE SMOOTH",
"-47 -59 OFFCURVE",
"-52 -64 OFFCURVE",
"-52 -71 CURVE SMOOTH",
"-52 -84 OFFCURVE",
"-46 -90 OFFCURVE",
"-33 -90 CURVE SMOOTH",
"12 -90 OFFCURVE",
"62 -57 OFFCURVE",
"117 9 CURVE SMOOTH",
"155 55 OFFCURVE",
"170 67 OFFCURVE",
"200 127 CURVE",
"218 124 OFFCURVE",
"236 123 OFFCURVE",
"254 123 CURVE SMOOTH",
"357 123 OFFCURVE",
"448 148 OFFCURVE",
"527 197 CURVE SMOOTH",
"619 255 OFFCURVE",
"665 333 OFFCURVE",
"665 432 CURVE SMOOTH"
);
},
{
closed = 1;
nodes = (
"631 343 OFFCURVE",
"589 274 OFFCURVE",
"505 223 CURVE SMOOTH",
"433 179 OFFCURVE",
"349 157 OFFCURVE",
"254 157 CURVE SMOOTH",
"241 157 OFFCURVE",
"228 158 OFFCURVE",
"215 159 CURVE",
"237 205 OFFCURVE",
"267 285 OFFCURVE",
"306 400 CURVE SMOOTH",
"341 504 OFFCURVE",
"374 583 OFFCURVE",
"403 638 CURVE",
"469 631 OFFCURVE",
"522 611 OFFCURVE",
"562 580 CURVE SMOOTH",
"608 543 OFFCURVE",
"631 494 OFFCURVE",
"631 432 CURVE SMOOTH"
);
}
);
width = 672;
}
);
note = Thorn;
unicode = 00DE;
},
{
glyphname = Q;
layers = (
{
hints = (
{
horizontal = 1;
place = "{-162, 35}";
type = Stem;
},
{
horizontal = 1;
place = "{-68, 35}";
type = Stem;
},
{
horizontal = 1;
place = "{224, 33}";
type = Stem;
},
{
horizontal = 1;
place = "{679, 33}";
type = Stem;
},
{
place = "{64, 38}";
type = Stem;
},
{
place = "{757, 35}";
type = Stem;
},
{
place = "{80, 34}";
type = Stem;
},
{
place = "{57, 34}";
type = Stem;
}
);
layerId = "769237BE-90A6-4D5E-A4C9-331744B3656A";
paths = (
{
closed = 1;
nodes = (
"795 -123 OFFCURVE",
"790 -118 OFFCURVE",
"779 -118 CURVE SMOOTH",
"767 -118 OFFCURVE",
"741 -127 OFFCURVE",
"730 -127 CURVE SMOOTH",
"681 -127 OFFCURVE",
"615 -97 OFFCURVE",
"534 -37 CURVE",
"613 -6 OFFCURVE",
"676 41 OFFCURVE",
"722 105 CURVE SMOOTH",
"769 170 OFFCURVE",
"792 244 OFFCURVE",
"792 328 CURVE SMOOTH",
"792 434 OFFCURVE",
"758 524 OFFCURVE",
"691 598 CURVE SMOOTH",
"621 674 OFFCURVE",
"534 712 OFFCURVE",
"429 712 CURVE SMOOTH",
"333 712 OFFCURVE",
"248 679 OFFCURVE",
"174 613 CURVE SMOOTH",
"101 547 OFFCURVE",
"64 469 OFFCURVE",
"64 379 CURVE SMOOTH",
"64 346 OFFCURVE",
"69 314 OFFCURVE",
"80 281 CURVE SMOOTH",
"83 273 OFFCURVE",
"89 269 OFFCURVE",
"97 269 CURVE SMOOTH",
"112 269 OFFCURVE",
"118 275 OFFCURVE",
"114 287 CURVE SMOOTH",
"106 313 OFFCURVE",
"102 340 OFFCURVE",
"102 368 CURVE SMOOTH",
"102 451 OFFCURVE",
"132 522 OFFCURVE",
"192 583 CURVE SMOOTH",
"255 647 OFFCURVE",
"334 679 OFFCURVE",
"429 679 CURVE SMOOTH",
"524 679 OFFCURVE",
"603 644 OFFCURVE",
"666 575 CURVE SMOOTH",
"727 508 OFFCURVE",
"757 426 OFFCURVE",
"757 329 CURVE SMOOTH",
"757 248 OFFCURVE",
"734 177 OFFCURVE",
"688 116 CURVE SMOOTH",
"642 56 OFFCURVE",
"580 13 OFFCURVE",
"502 -13 CURVE",
"310 143 LINE SMOOTH",
"212 219 OFFCURVE",
"146 257 OFFCURVE",
"113 257 CURVE SMOOTH",
"76 257 OFFCURVE",
"57 230 OFFCURVE",
"57 177 CURVE SMOOTH",
"57 124 OFFCURVE",
"82 74 OFFCURVE",
"133 28 CURVE SMOOTH",
"176 -11 OFFCURVE",
"226 -38 OFFCURVE",
"283 -54 CURVE SMOOTH",
"315 -63 OFFCURVE",
"348 -68 OFFCURVE",
"381 -68 CURVE SMOOTH",
"418 -68 OFFCURVE",
"457 -62 OFFCURVE",
"496 -51 CURVE",
"592 -125 OFFCURVE",
"670 -162 OFFCURVE",
"730 -162 CURVE SMOOTH",
"741 -162 OFFCURVE",
"754 -160 OFFCURVE",
"768 -156 CURVE SMOOTH",
"786 -151 OFFCURVE",
"795 -143 OFFCURVE",
"795 -134 CURVE SMOOTH"
);
},
{
closed = 1;
nodes = (
"462 -25 LINE",
"437 -30 OFFCURVE",
"411 -33 OFFCURVE",
"385 -33 CURVE SMOOTH",
"310 -33 OFFCURVE",
"241 -10 OFFCURVE",
"178 35 CURVE SMOOTH",
"120 76 OFFCURVE",
"91 124 OFFCURVE",
"91 178 CURVE SMOOTH",
"91 209 OFFCURVE",
"98 224 OFFCURVE",
"111 224 CURVE SMOOTH",
"138 224 OFFCURVE",
"197 188 OFFCURVE",
"290 116 CURVE SMOOTH"
);
}
);
width = 829;
}
);
note = Q;
unicode = 0051;
},
{
glyphname = R;
layers = (
{
hints = (
{
horizontal = 1;
place = "{-59, 34}";
type = Stem;
},
{
horizontal = 1;
place = "{199, 33}";
type = Stem;
},
{
horizontal = 1;
place = "{307, 34}";
type = Stem;
},
{
horizontal = 1;
place = "{403, 34}";
type = Stem;
},
{
horizontal = 1;
place = "{649, 34}";
type = Stem;
},
{
place = "{68, 34}";
type = Stem;
},
{
place = "{188, 33}";
type = Stem;
},
{
place = "{649, 34}";
type = Stem;
},
{
horizontal = 1;
place = "{-74, 38}";
type = Stem;
}
);
layerId = "769237BE-90A6-4D5E-A4C9-331744B3656A";
paths = (
{
closed = 1;
nodes = (
"683 521 OFFCURVE",
"659 573 OFFCURVE",
"611 613 CURVE SMOOTH",
"569 648 OFFCURVE",
"515 670 OFFCURVE",
"450 679 CURVE",
"451 690 OFFCURVE",
"442 699 OFFCURVE",
"431 699 CURVE SMOOTH",
"426 699 OFFCURVE",
"417 694 OFFCURVE",
"406 683 CURVE",
"374 683 LINE SMOOTH",
"303 684 OFFCURVE",
"238 671 OFFCURVE",
"180 644 CURVE SMOOTH",
"105 610 OFFCURVE",
"68 560 OFFCURVE",
"68 495 CURVE SMOOTH",
"68 468 OFFCURVE",
"79 445 OFFCURVE",
"100 428 CURVE SMOOTH",
"119 411 OFFCURVE",
"143 403 OFFCURVE",
"171 403 CURVE SMOOTH",
"209 403 OFFCURVE",
"237 418 OFFCURVE",
"256 448 CURVE SMOOTH",
"258 451 OFFCURVE",
"259 453 OFFCURVE",
"259 456 CURVE SMOOTH",
"259 467 OFFCURVE",
"253 473 OFFCURVE",
"240 473 CURVE SMOOTH",
"238 473 OFFCURVE",
"230 467 OFFCURVE",
"216 455 CURVE SMOOTH",
"203 443 OFFCURVE",
"188 437 OFFCURVE",
"171 437 CURVE SMOOTH",
"132 437 OFFCURVE",
"102 461 OFFCURVE",
"102 498 CURVE SMOOTH",
"102 547 OFFCURVE",
"134 586 OFFCURVE",
"199 615 CURVE SMOOTH",
"251 638 OFFCURVE",
"306 649 OFFCURVE",
"365 649 CURVE SMOOTH",
"382 649 LINE",
"357 608 OFFCURVE",
"334 557 OFFCURVE",
"311 495 CURVE SMOOTH",
"255 335 LINE",
"248 339 OFFCURVE",
"240 341 OFFCURVE",
"231 341 CURVE SMOOTH",
"202 341 OFFCURVE",
"188 327 OFFCURVE",
"188 298 CURVE SMOOTH",
"188 277 OFFCURVE",
"199 256 OFFCURVE",
"220 235 CURVE",
"175 112 OFFCURVE",
"136 31 OFFCURVE",
"103 -9 CURVE SMOOTH",
"88 -27 OFFCURVE",
"75 -36 OFFCURVE",
"62 -36 CURVE",
"62 -36 OFFCURVE",
"59 -36 OFFCURVE",
"52 -36 CURVE SMOOTH",
"33 -35 OFFCURVE",
"24 -41 OFFCURVE",
"24 -54 CURVE SMOOTH",
"24 -67 OFFCURVE",
"33 -74 OFFCURVE",
"50 -74 CURVE SMOOTH",
"69 -74 OFFCURVE",
"86 -69 OFFCURVE",
"99 -60 CURVE SMOOTH",
"140 -33 OFFCURVE",
"189 59 OFFCURVE",
"248 214 CURVE",
"265 206 OFFCURVE",
"285 201 OFFCURVE",
"310 199 CURVE",
"352 120 OFFCURVE",
"391 62 OFFCURVE",
"427 25 CURVE SMOOTH",
"482 -31 OFFCURVE",
"545 -59 OFFCURVE",
"615 -59 CURVE SMOOTH",
"626 -59 OFFCURVE",
"631 -53 OFFCURVE",
"631 -42 CURVE SMOOTH",
"631 -31 OFFCURVE",
"626 -25 OFFCURVE",
"615 -25 CURVE SMOOTH",
"556 -25 OFFCURVE",
"502 -1 OFFCURVE",
"453 47 CURVE SMOOTH",
"418 81 OFFCURVE",
"383 132 OFFCURVE",
"348 199 CURVE",
"425 202 OFFCURVE",
"498 227 OFFCURVE",
"566 272 CURVE SMOOTH",
"644 324 OFFCURVE",
"683 386 OFFCURVE",
"683 458 CURVE SMOOTH"
);
},
{
closed = 1;
nodes = (
"649 393 OFFCURVE",
"611 338 OFFCURVE",
"536 293 CURVE SMOOTH",
"469 253 OFFCURVE",
"401 233 OFFCURVE",
"330 232 CURVE",
"314 265 OFFCURVE",
"299 291 OFFCURVE",
"284 310 CURVE",
"303 368 OFFCURVE",
"323 426 OFFCURVE",
"343 485 CURVE SMOOTH",
"370 560 OFFCURVE",
"395 615 OFFCURVE",
"418 648 CURVE",
"482 643 OFFCURVE",
"535 626 OFFCURVE",
"576 597 CURVE SMOOTH",
"625 562 OFFCURVE",
"649 516 OFFCURVE",
"649 458 CURVE SMOOTH"
);
},
{
closed = 1;
nodes = (
"280 236 OFFCURVE",
"270 240 OFFCURVE",
"260 247 CURVE",
"269 271 LINE",
"278 258 OFFCURVE",
"285 246 OFFCURVE",
"291 235 CURVE"
);
},
{
closed = 1;
nodes = (
"233 271 LINE",
"225 282 OFFCURVE",
"221 292 OFFCURVE",
"221 299 CURVE SMOOTH",
"221 304 OFFCURVE",
"223 307 OFFCURVE",
"228 307 CURVE SMOOTH",
"233 307 OFFCURVE",
"239 305 OFFCURVE",
"244 301 CURVE"
);
}
);
width = 672;
}
);
note = R;
unicode = 0052;
},
{
glyphname = S;
layers = (
{
hints = (
{
horizontal = 1;
place = "{-63, 34}";
type = Stem;
},
{
horizontal = 1;
place = "{268, 35}";
type = Stem;
},
{
horizontal = 1;
place = "{457, 33}";
type = Stem;
},
{
horizontal = 1;
place = "{655, 34}";
type = Stem;
},
{
place = "{-20, 34}";
type = Stem;
},
{
place = "{143, 34}";
type = Stem;
},
{
place = "{499, 34}";
type = Stem;
},
{
place = "{494, 35}";
type = Stem;
}
);
layerId = "769237BE-90A6-4D5E-A4C9-331744B3656A";
paths = (
{
closed = 1;
nodes = (
"533 256 OFFCURVE",
"502 310 OFFCURVE",
"441 345 CURVE",
"269 411 LINE SMOOTH",
"208 436 OFFCURVE",
"177 471 OFFCURVE",
"177 518 CURVE SMOOTH",
"177 559 OFFCURVE",
"198 593 OFFCURVE",
"240 620 CURVE SMOOTH",
"277 643 OFFCURVE",
"319 655 OFFCURVE",
"364 655 CURVE SMOOTH",
"401 655 OFFCURVE",
"431 647 OFFCURVE",
"454 632 CURVE SMOOTH",
"481 614 OFFCURVE",
"494 588 OFFCURVE",
"494 554 CURVE SMOOTH",
"494 518 OFFCURVE",
"459 490 OFFCURVE",
"428 490 CURVE SMOOTH",
"415 490 OFFCURVE",
"406 495 OFFCURVE",
"403 506 CURVE SMOOTH",
"399 521 OFFCURVE",
"393 529 OFFCURVE",
"385 529 CURVE SMOOTH",
"374 529 OFFCURVE",
"368 523 OFFCURVE",
"368 512 CURVE SMOOTH",
"368 479 OFFCURVE",
"394 457 OFFCURVE",
"427 457 CURVE SMOOTH",
"454 457 OFFCURVE",
"478 466 OFFCURVE",
"498 485 CURVE SMOOTH",
"519 504 OFFCURVE",
"529 527 OFFCURVE",
"529 554 CURVE SMOOTH",
"529 597 OFFCURVE",
"512 631 OFFCURVE",
"478 656 CURVE SMOOTH",
"448 678 OFFCURVE",
"411 689 OFFCURVE",
"368 689 CURVE SMOOTH",
"311 689 OFFCURVE",
"261 675 OFFCURVE",
"218 647 CURVE SMOOTH",
"168 614 OFFCURVE",
"143 570 OFFCURVE",
"143 515 CURVE SMOOTH",
"143 458 OFFCURVE",
"174 416 OFFCURVE",
"235 389 CURVE",
"406 326 LINE",
"468 295 OFFCURVE",
"499 248 OFFCURVE",
"499 183 CURVE SMOOTH",
"499 119 OFFCURVE",
"469 67 OFFCURVE",
"410 26 CURVE SMOOTH",
"356 -11 OFFCURVE",
"293 -29 OFFCURVE",
"222 -29 CURVE SMOOTH",
"163 -30 OFFCURVE",
"115 -17 OFFCURVE",
"77 9 CURVE SMOOTH",
"35 38 OFFCURVE",
"14 78 OFFCURVE",
"14 129 CURVE SMOOTH",
"14 166 OFFCURVE",
"29 198 OFFCURVE",
"58 226 CURVE SMOOTH",
"88 254 OFFCURVE",
"122 268 OFFCURVE",
"159 268 CURVE SMOOTH",
"183 268 OFFCURVE",
"201 261 OFFCURVE",
"212 247 CURVE SMOOTH",
"218 241 OFFCURVE",
"224 228 OFFCURVE",
"230 209 CURVE SMOOTH",
"234 196 OFFCURVE",
"240 189 OFFCURVE",
"247 189 CURVE SMOOTH",
"258 189 OFFCURVE",
"264 194 OFFCURVE",
"264 205 CURVE SMOOTH",
"264 265 OFFCURVE",
"216 303 OFFCURVE",
"157 303 CURVE SMOOTH",
"111 303 OFFCURVE",
"70 285 OFFCURVE",
"34 250 CURVE SMOOTH",
"-2 215 OFFCURVE",
"-20 174 OFFCURVE",
"-20 128 CURVE SMOOTH",
"-20 66 OFFCURVE",
"5 18 OFFCURVE",
"55 -17 CURVE SMOOTH",
"100 -48 OFFCURVE",
"157 -64 OFFCURVE",
"225 -63 CURVE SMOOTH",
"306 -62 OFFCURVE",
"376 -41 OFFCURVE",
"435 1 CURVE SMOOTH",
"500 48 OFFCURVE",
"533 109 OFFCURVE",
"533 184 CURVE SMOOTH"
);
}
);
width = 538;
}
);
note = S;
unicode = 0053;
},
{
glyphname = Germandbls;
lastChange = "2021-11-27 16:58:19 +0000";
layers = (
{
hints = (
{
horizontal = 1;
place = "{-65, 34}";
type = Stem;
},
{
horizontal = 1;
place = "{343, 56}";
type = Stem;
},
{
horizontal = 1;
place = "{644, 28}";
type = Stem;
},
{
place = "{615, 35}";
type = Stem;
}
);
layerId = "769237BE-90A6-4D5E-A4C9-331744B3656A";
paths = (
{
closed = 1;
nodes = (
"528 618 OFFCURVE",
"454 673 OFFCURVE",
"372 673 CURVE SMOOTH",
"272 673 OFFCURVE",
"195 596 OFFCURVE",
"159 495 CURVE SMOOTH",
"125 404 OFFCURVE",
"50 17 OFFCURVE",
"3 -71 CURVE SMOOTH",
"-28 -130 OFFCURVE",
"-56 -161 OFFCURVE",
"-79 -165 CURVE SMOOTH",
"-92 -168 OFFCURVE",
"-100 -173 OFFCURVE",
"-100 -181 CURVE SMOOTH",
"-100 -191 OFFCURVE",
"-94 -197 OFFCURVE",
"-83 -202 CURVE",
"-82 -202 LINE SMOOTH",
"-43 -202 OFFCURVE",
"-6 -160 OFFCURVE",
"32 -89 CURVE SMOOTH",
"85 12 OFFCURVE",
"160 388 OFFCURVE",
"178 439 CURVE SMOOTH",
"221 563 OFFCURVE",
"274 643 OFFCURVE",
"376 643 CURVE SMOOTH",
"441 643 OFFCURVE",
"490 597 OFFCURVE",
"490 535 CURVE SMOOTH",
"490 498 OFFCURVE",
"475 465 OFFCURVE",
"443 437 CURVE SMOOTH",
"415 412 OFFCURVE",
"381 396 OFFCURVE",
"340 389 CURVE",
"310 396 OFFCURVE",
"278 400 OFFCURVE",
"249 400 CURVE SMOOTH",
"223 400 OFFCURVE",
"202 385 OFFCURVE",
"202 368 CURVE SMOOTH",
"202 350 OFFCURVE",
"219 342 OFFCURVE",
"249 342 CURVE SMOOTH",
"274 342 OFFCURVE",
"304 345 OFFCURVE",
"338 352 CURVE",
"431 323 OFFCURVE",
"490 256 OFFCURVE",
"490 183 CURVE SMOOTH",
"490 92 OFFCURVE",
"414 29 OFFCURVE",
"308 -3 CURVE SMOOTH",
"249 -21 OFFCURVE",
"159 -14 OFFCURVE",
"123 -6 CURVE SMOOTH",
"109 -3 OFFCURVE",
"102 -8 OFFCURVE",
"100 -19 CURVE SMOOTH",
"97 -31 OFFCURVE",
"102 -39 OFFCURVE",
"117 -42 CURVE SMOOTH",
"167 -52 OFFCURVE",
"262 -55 OFFCURVE",
"327 -34 CURVE SMOOTH",
"443 4 OFFCURVE",
"529 78 OFFCURVE",
"529 185 CURVE SMOOTH",
"529 260 OFFCURVE",
"478 328 OFFCURVE",
"395 368 CURVE",
"483 406 OFFCURVE",
"528 462 OFFCURVE",
"528 536 CURVE SMOOTH"
);
}
);
width = 627;
}
);
unicode = 1E9E;
},
{
glyphname = Schwa;
lastChange = "2021-11-28 05:56:07 +0000";
layers = (
{
hints = (
{
horizontal = 1;
place = "{-96, 34}";
type = Stem;
},
{
horizontal = 1;
place = "{339, 35}";
type = Stem;
},
{
horizontal = 1;
place = "{675, 34}";
type = Stem;
},
{
place = "{25, 35}";
type = Stem;
},
{
place = "{409, 35}";
type = Stem;
},
{
place = "{674, 34}";
type = Stem;
}
);
layerId = "769237BE-90A6-4D5E-A4C9-331744B3656A";
paths = (
{
closed = 1;
nodes = (
"25 -34 OFFCURVE",
"135 -96 OFFCURVE",
"271 -96 CURVE SMOOTH",
"542 -96 OFFCURVE",
"708 126 OFFCURVE",
"708 377 CURVE SMOOTH",
"708 581 OFFCURVE",
"575 709 OFFCURVE",
"374 709 CURVE SMOOTH",
"254 709 OFFCURVE",
"165 670 OFFCURVE",
"108 591 CURVE SMOOTH",
"89 564 OFFCURVE",
"79 546 OFFCURVE",
"79 536 CURVE SMOOTH",
"79 525 OFFCURVE",
"85 519 OFFCURVE",
"97 519 CURVE SMOOTH",
"105 519 OFFCURVE",
"115 532 OFFCURVE",
"128 559 CURVE SMOOTH",
"147 598 OFFCURVE",
"183 627 OFFCURVE",
"235 648 CURVE SMOOTH",
"278 666 OFFCURVE",
"324 675 OFFCURVE",
"373 675 CURVE SMOOTH",
"556 675 OFFCURVE",
"673 545 OFFCURVE",
"673 363 CURVE SMOOTH",
"673 140 OFFCURVE",
"498 -62 OFFCURVE",
"271 -62 CURVE SMOOTH",
"155 -62 OFFCURVE",
"59 -5 OFFCURVE",
"59 109 CURVE SMOOTH",
"59 239 OFFCURVE",
"241 339 OFFCURVE",
"427 339 CURVE SMOOTH",
"566 339 OFFCURVE",
"655 315 OFFCURVE",
"655 268 CURVE SMOOTH",
"655 259 OFFCURVE",
"655 236 OFFCURVE",
"646 212 CURVE SMOOTH",
"641 199 OFFCURVE",
"641 194 OFFCURVE",
"655 192 CURVE SMOOTH",
"668 190 OFFCURVE",
"690 231 OFFCURVE",
"690 270 CURVE SMOOTH",
"690 347 OFFCURVE",
"574 374 OFFCURVE",
"427 374 CURVE SMOOTH",
"273 374 OFFCURVE",
"25 301 OFFCURVE",
"25 109 CURVE SMOOTH"
);
}
);
width = 651;
}
);
unicode = 018F;
},
{
glyphname = T;
layers = (
{
hints = (
{
horizontal = 1;
place = "{-56, 34}";
type = Stem;
},
{
horizontal = 1;
place = "{269, 34}";
type = Stem;
},
{
horizontal = 1;
place = "{401, 33}";
type = Stem;
},
{
horizontal = 1;
place = "{488, 33}";
type = Stem;
},
{
horizontal = 1;
place = "{611, 34}";
type = Stem;
},
{
place = "{-122, 34}";
type = Stem;
},
{
place = "{-8, 33}";
type = Stem;
},
{
place = "{128, 35}";
type = Stem;
}
);
layerId = "769237BE-90A6-4D5E-A4C9-331744B3656A";
paths = (
{
closed = 1;
nodes = (
"770 512 OFFCURVE",
"782 522 OFFCURVE",
"782 533 CURVE SMOOTH",
"782 545 OFFCURVE",
"776 551 OFFCURVE",
"764 551 CURVE SMOOTH",
"763 551 OFFCURVE",
"761 550 OFFCURVE",
"759 549 CURVE SMOOTH",
"752 546 LINE SMOOTH",
"720 529 OFFCURVE",
"693 521 OFFCURVE",
"671 521 CURVE SMOOTH",
"632 521 OFFCURVE",
"579 531 OFFCURVE",
"512 551 CURVE",
"514 554 OFFCURVE",
"517 556 OFFCURVE",
"520 558 CURVE SMOOTH",
"544 572 LINE SMOOTH",
"555 579 OFFCURVE",
"560 586 OFFCURVE",
"560 591 CURVE SMOOTH",
"560 602 OFFCURVE",
"555 608 OFFCURVE",
"544 608 CURVE SMOOTH",
"525 608 OFFCURVE",
"503 593 OFFCURVE",
"476 564 CURVE",
"330 615 LINE SMOOTH",
"271 635 OFFCURVE",
"221 645 OFFCURVE",
"179 645 CURVE SMOOTH",
"131 645 OFFCURVE",
"89 634 OFFCURVE",
"54 611 CURVE SMOOTH",
"13 584 OFFCURVE",
"-8 548 OFFCURVE",
"-8 501 CURVE SMOOTH",
"-8 476 OFFCURVE",
"0 453 OFFCURVE",
"17 432 CURVE SMOOTH",
"34 411 OFFCURVE",
"56 401 OFFCURVE",
"81 401 CURVE SMOOTH",
"96 401 OFFCURVE",
"109 405 OFFCURVE",
"121 412 CURVE SMOOTH",
"136 421 OFFCURVE",
"143 432 OFFCURVE",
"143 446 CURVE SMOOTH",
"143 457 OFFCURVE",
"138 462 OFFCURVE",
"129 462 CURVE SMOOTH",
"127 462 OFFCURVE",
"125 461 OFFCURVE",
"124 460 CURVE SMOOTH",
"112 448 OFFCURVE",
"104 434 OFFCURVE",
"81 434 CURVE SMOOTH",
"49 434 OFFCURVE",
"25 468 OFFCURVE",
"25 501 CURVE SMOOTH",
"25 537 OFFCURVE",
"42 565 OFFCURVE",
"75 585 CURVE SMOOTH",
"104 602 OFFCURVE",
"138 611 OFFCURVE",
"177 611 CURVE SMOOTH",
"234 611 OFFCURVE",
"326 586 OFFCURVE",
"453 535 CURVE",
"420 488 OFFCURVE",
"398 435 OFFCURVE",
"386 374 CURVE SMOOTH",
"363 256 OFFCURVE",
"335 169 OFFCURVE",
"303 113 CURVE SMOOTH",
"252 23 OFFCURVE",
"181 -22 OFFCURVE",
"90 -22 CURVE SMOOTH",
"41 -22 OFFCURVE",
"0 -10 OFFCURVE",
"-33 15 CURVE SMOOTH",
"-70 43 OFFCURVE",
"-88 80 OFFCURVE",
"-88 126 CURVE SMOOTH",
"-88 164 OFFCURVE",
"-76 197 OFFCURVE",
"-51 226 CURVE SMOOTH",
"-26 255 OFFCURVE",
"4 269 OFFCURVE",
"41 269 CURVE SMOOTH",
"71 269 OFFCURVE",
"94 260 OFFCURVE",
"109 243 CURVE SMOOTH",
"122 228 OFFCURVE",
"128 209 OFFCURVE",
"128 187 CURVE SMOOTH",
"128 178 OFFCURVE",
"127 169 OFFCURVE",
"125 160 CURVE",
"122 153 OFFCURVE",
"133 141 OFFCURVE",
"142 141 CURVE SMOOTH",
"151 141 OFFCURVE",
"157 149 OFFCURVE",
"160 164 CURVE SMOOTH",
"162 174 OFFCURVE",
"163 184 OFFCURVE",
"163 193 CURVE SMOOTH",
"163 226 OFFCURVE",
"150 254 OFFCURVE",
"124 275 CURVE SMOOTH",
"101 294 OFFCURVE",
"73 303 OFFCURVE",
"42 303 CURVE SMOOTH",
"-5 303 OFFCURVE",
"-44 285 OFFCURVE",
"-75 250 CURVE SMOOTH",
"-106 215 OFFCURVE",
"-122 174 OFFCURVE",
"-122 127 CURVE SMOOTH",
"-122 72 OFFCURVE",
"-101 27 OFFCURVE",
"-58 -8 CURVE SMOOTH",
"-19 -40 OFFCURVE",
"29 -56 OFFCURVE",
"85 -56 CURVE SMOOTH",
"230 -56 OFFCURVE",
"331 38 OFFCURVE",
"387 226 CURVE",
"399 277 OFFCURVE",
"411 329 OFFCURVE",
"424 380 CURVE SMOOTH",
"439 438 OFFCURVE",
"460 486 OFFCURVE",
"488 524 CURVE",
"562 500 OFFCURVE",
"622 488 OFFCURVE",
"668 488 CURVE SMOOTH",
"698 488 OFFCURVE",
"724 492 OFFCURVE",
"745 501 CURVE SMOOTH"
);
}
);
width = 435;
}
);
note = T;
unicode = 0054;
},
{
glyphname = U;
layers = (
{
hints = (
{
horizontal = 1;
place = "{-43, 34}";
type = Stem;
},
{
horizontal = 1;
place = "{292, 34}";
type = Stem;
},
{
horizontal = 1;
place = "{561, 34}";
type = Stem;
},
{
horizontal = 1;
place = "{729, 33}";
type = Stem;
},
{
place = "{-40, 34}";
type = Stem;
},
{
place = "{294, 34}";
type = Stem;
},
{
place = "{439, 33}";
type = Stem;
},
{
place = "{697, 37}";
type = Stem;
},
{
horizontal = 1;
place = "{612, 27}";
type = Stem;
},
{
place = "{829, 42}";
type = Stem;
},
{
place = "{307, 34}";
type = Stem;
},
{
horizontal = 1;
place = "{-39, 36}";
type = Stem;
}
);
layerId = "769237BE-90A6-4D5E-A4C9-331744B3656A";
paths = (
{
closed = 1;
nodes = (
"875 627 OFFCURVE",
"871 639 OFFCURVE",
"855 639 CURVE SMOOTH",
"845 639 OFFCURVE",
"836 630 OFFCURVE",
"829 612 CURVE",
"829 612 OFFCURVE",
"825 599 OFFCURVE",
"817 573 CURVE SMOOTH",
"696 185 OFFCURVE",
"564 -9 OFFCURVE",
"423 -9 CURVE SMOOTH",
"360 -9 OFFCURVE",
"328 19 OFFCURVE",
"328 75 CURVE SMOOTH",
"328 128 OFFCURVE",
"348 206 OFFCURVE",
"388 310 CURVE SMOOTH",
"439 443 OFFCURVE",
"455 487 OFFCURVE",
"462 514 CURVE SMOOTH",
"469 541 OFFCURVE",
"472 567 OFFCURVE",
"472 592 CURVE SMOOTH",
"472 644 OFFCURVE",
"457 685 OFFCURVE",
"427 714 CURVE SMOOTH",
"394 746 OFFCURVE",
"346 762 OFFCURVE",
"283 762 CURVE SMOOTH",
"200 762 OFFCURVE",
"126 732 OFFCURVE",
"61 671 CURVE SMOOTH",
"-6 610 OFFCURVE",
"-40 538 OFFCURVE",
"-40 456 CURVE SMOOTH",
"-40 406 OFFCURVE",
"-22 366 OFFCURVE",
"14 335 CURVE SMOOTH",
"48 306 OFFCURVE",
"90 292 OFFCURVE",
"140 292 CURVE SMOOTH",
"194 292 OFFCURVE",
"241 311 OFFCURVE",
"281 348 CURVE SMOOTH",
"321 386 OFFCURVE",
"341 432 OFFCURVE",
"341 486 CURVE SMOOTH",
"341 559 OFFCURVE",
"309 595 OFFCURVE",
"245 595 CURVE SMOOTH",
"198 595 OFFCURVE",
"174 587 OFFCURVE",
"174 571 CURVE SMOOTH",
"174 559 OFFCURVE",
"179 553 OFFCURVE",
"190 553 CURVE SMOOTH",
"202 553 OFFCURVE",
"233 561 OFFCURVE",
"245 561 CURVE SMOOTH",
"286 561 OFFCURVE",
"307 536 OFFCURVE",
"307 487 CURVE SMOOTH",
"307 441 OFFCURVE",
"290 403 OFFCURVE",
"257 372 CURVE SMOOTH",
"224 341 OFFCURVE",
"184 326 OFFCURVE",
"137 326 CURVE SMOOTH",
"56 326 OFFCURVE",
"-6 376 OFFCURVE",
"-6 455 CURVE SMOOTH",
"-6 528 OFFCURVE",
"24 592 OFFCURVE",
"85 647 CURVE SMOOTH",
"144 702 OFFCURVE",
"210 729 OFFCURVE",
"283 729 CURVE SMOOTH",
"387 729 OFFCURVE",
"439 684 OFFCURVE",
"439 595 CURVE SMOOTH",
"439 573 OFFCURVE",
"436 548 OFFCURVE",
"429 521 CURVE SMOOTH",
"423 497 OFFCURVE",
"406 453 OFFCURVE",
"355 316 CURVE SMOOTH",
"314 209 OFFCURVE",
"294 131 OFFCURVE",
"294 80 CURVE SMOOTH",
"294 -2 OFFCURVE",
"335 -43 OFFCURVE",
"418 -43 CURVE SMOOTH",
"527 -43 OFFCURVE",
"626 42 OFFCURVE",
"713 213 CURVE",
"702 163 OFFCURVE",
"697 121 OFFCURVE",
"697 87 CURVE SMOOTH",
"697 3 OFFCURVE",
"736 -39 OFFCURVE",
"814 -39 CURVE SMOOTH",
"825 -39 OFFCURVE",
"830 -33 OFFCURVE",
"830 -22 CURVE SMOOTH",
"830 -10 OFFCURVE",
"819 -4 OFFCURVE",
"797 -3 CURVE SMOOTH",
"755 -3 OFFCURVE",
"734 29 OFFCURVE",
"734 92 CURVE SMOOTH",
"734 156 OFFCURVE",
"751 242 OFFCURVE",
"784 349 CURVE SMOOTH",
"868 603 LINE SMOOTH"
);
}
);
width = 849;
}
);
note = U;
unicode = 0055;
},
{
glyphname = V;
layers = (
{
hints = (
{
horizontal = 1;
place = "{238, 34}";
type = Stem;
},
{
horizontal = 1;
place = "{663, 34}";
type = Stem;
},
{
place = "{38, 33}";
type = Stem;
},
{
place = "{528, 33}";
type = Stem;
},
{
horizontal = 1;
place = "{611, 33}";
type = Stem;
}
);
layerId = "769237BE-90A6-4D5E-A4C9-331744B3656A";
paths = (
{
closed = 1;
nodes = (
"1043 639 OFFCURVE",
"1036 644 OFFCURVE",
"1023 644 CURVE SMOOTH",
"956 644 OFFCURVE",
"865 556 OFFCURVE",
"749 381 CURVE SMOOTH",
"696 301 OFFCURVE",
"627 180 OFFCURVE",
"540 19 CURVE",
"554 125 OFFCURVE",
"561 214 OFFCURVE",
"561 287 CURVE SMOOTH",
"561 560 OFFCURVE",
"476 697 OFFCURVE",
"306 697 CURVE SMOOTH",
"231 697 OFFCURVE",
"168 670 OFFCURVE",
"116 615 CURVE SMOOTH",
"64 561 OFFCURVE",
"38 496 OFFCURVE",
"38 421 CURVE SMOOTH",
"38 369 OFFCURVE",
"54 326 OFFCURVE",
"85 292 CURVE SMOOTH",
"118 256 OFFCURVE",
"160 238 OFFCURVE",
"211 238 CURVE SMOOTH",
"255 238 OFFCURVE",
"291 253 OFFCURVE",
"318 282 CURVE SMOOTH",
"321 285 OFFCURVE",
"322 288 OFFCURVE",
"322 292 CURVE SMOOTH",
"322 303 OFFCURVE",
"316 309 OFFCURVE",
"305 309 CURVE SMOOTH",
"303 309 OFFCURVE",
"299 307 OFFCURVE",
"292 303 CURVE",
"265 282 OFFCURVE",
"238 272 OFFCURVE",
"211 272 CURVE SMOOTH",
"126 272 OFFCURVE",
"71 334 OFFCURVE",
"71 422 CURVE SMOOTH",
"71 488 OFFCURVE",
"94 545 OFFCURVE",
"139 592 CURVE SMOOTH",
"184 639 OFFCURVE",
"240 663 OFFCURVE",
"305 663 CURVE SMOOTH",
"454 663 OFFCURVE",
"528 538 OFFCURVE",
"528 288 CURVE SMOOTH",
"528 210 OFFCURVE",
"519 104 OFFCURVE",
"500 -29 CURVE SMOOTH",
"497 -51 OFFCURVE",
"495 -63 OFFCURVE",
"495 -66 CURVE SMOOTH",
"495 -77 OFFCURVE",
"501 -83 OFFCURVE",
"513 -83 CURVE SMOOTH",
"518 -83 OFFCURVE",
"523 -81 OFFCURVE",
"526 -76 CURVE SMOOTH",
"539 -54 OFFCURVE",
"548 -37 OFFCURVE",
"553 -26 CURVE SMOOTH",
"784 399 OFFCURVE",
"940 611 OFFCURVE",
"1021 611 CURVE SMOOTH",
"1036 611 OFFCURVE",
"1043 617 OFFCURVE",
"1043 628 CURVE SMOOTH"
);
}
);
width = 782;
}
);
note = V;
unicode = 0056;
},
{
glyphname = W;
layers = (
{
hints = (
{
horizontal = 1;
place = "{-52, 34}";
type = Stem;
},
{
horizontal = 1;
place = "{293, 35}";
type = Stem;
},
{
horizontal = 1;
place = "{562, 34}";
type = Stem;
},
{
horizontal = 1;
place = "{735, 32}";
type = Stem;
},
{
place = "{-37, 35}";
type = Stem;
},
{
place = "{301, 34}";
type = Stem;
},
{
place = "{440, 35}";
type = Stem;
},
{
place = "{752, 31}";
type = Stem;
},
{
place = "{1188, 35}";
type = Stem;
},
{
horizontal = 1;
place = "{-31, 34}";
type = Stem;
}
);
layerId = "769237BE-90A6-4D5E-A4C9-331744B3656A";
paths = (
{
closed = 1;
nodes = (
"1214 439 OFFCURVE",
"1223 504 OFFCURVE",
"1223 578 CURVE SMOOTH",
"1223 637 OFFCURVE",
"1212 674 OFFCURVE",
"1191 689 CURVE SMOOTH",
"1187 692 OFFCURVE",
"1181 693 OFFCURVE",
"1174 693 CURVE SMOOTH",
"1163 693 OFFCURVE",
"1158 690 OFFCURVE",
"1158 683 CURVE SMOOTH",
"1158 678 OFFCURVE",
"1161 673 OFFCURVE",
"1167 666 CURVE SMOOTH",
"1181 649 OFFCURVE",
"1188 618 OFFCURVE",
"1188 571 CURVE SMOOTH",
"1188 504 OFFCURVE",
"1180 445 OFFCURVE",
"1163 394 CURVE SMOOTH",
"1134 304 OFFCURVE",
"1098 224 OFFCURVE",
"1054 154 CURVE SMOOTH",
"991 53 OFFCURVE",
"928 3 OFFCURVE",
"865 3 CURVE SMOOTH",
"810 3 OFFCURVE",
"783 55 OFFCURVE",
"783 159 CURVE SMOOTH",
"783 229 OFFCURVE",
"795 318 OFFCURVE",
"819 426 CURVE SMOOTH",
"834 495 OFFCURVE",
"849 556 OFFCURVE",
"866 608 CURVE SMOOTH",
"867 611 OFFCURVE",
"867 614 OFFCURVE",
"867 617 CURVE SMOOTH",
"867 630 OFFCURVE",
"862 636 OFFCURVE",
"852 636 CURVE SMOOTH",
"843 636 OFFCURVE",
"836 629 OFFCURVE",
"830 616 CURVE",
"823 595 OFFCURVE",
"817 580 OFFCURVE",
"814 569 CURVE SMOOTH",
"759 400 OFFCURVE",
"714 281 OFFCURVE",
"679 212 CURVE SMOOTH",
"602 59 OFFCURVE",
"517 -18 OFFCURVE",
"426 -18 CURVE SMOOTH",
"365 -18 OFFCURVE",
"335 11 OFFCURVE",
"335 70 CURVE SMOOTH",
"335 131 OFFCURVE",
"353 208 OFFCURVE",
"389 301 CURVE SMOOTH",
"438 427 OFFCURVE",
"456 468 OFFCURVE",
"462 492 CURVE SMOOTH",
"471 527 OFFCURVE",
"475 559 OFFCURVE",
"475 589 CURVE SMOOTH",
"475 648 OFFCURVE",
"458 693 OFFCURVE",
"423 724 CURVE SMOOTH",
"391 753 OFFCURVE",
"349 767 OFFCURVE",
"297 767 CURVE SMOOTH",
"217 767 OFFCURVE",
"143 739 OFFCURVE",
"75 682 CURVE SMOOTH",
"0 620 OFFCURVE",
"-37 545 OFFCURVE",
"-37 457 CURVE SMOOTH",
"-37 408 OFFCURVE",
"-19 368 OFFCURVE",
"17 337 CURVE SMOOTH",
"50 308 OFFCURVE",
"92 293 OFFCURVE",
"142 293 CURVE SMOOTH",
"195 293 OFFCURVE",
"241 311 OFFCURVE",
"279 346 CURVE SMOOTH",
"318 381 OFFCURVE",
"337 426 OFFCURVE",
"337 479 CURVE SMOOTH",
"337 543 OFFCURVE",
"298 596 OFFCURVE",
"234 596 CURVE SMOOTH",
"195 596 OFFCURVE",
"177 587 OFFCURVE",
"177 572 CURVE SMOOTH",
"177 561 OFFCURVE",
"182 556 OFFCURVE",
"193 556 CURVE SMOOTH",
"202 556 OFFCURVE",
"226 562 OFFCURVE",
"235 562 CURVE SMOOTH",
"278 562 OFFCURVE",
"303 526 OFFCURVE",
"303 481 CURVE SMOOTH",
"303 436 OFFCURVE",
"287 399 OFFCURVE",
"256 370 CURVE SMOOTH",
"225 342 OFFCURVE",
"186 328 OFFCURVE",
"140 328 CURVE SMOOTH",
"59 328 OFFCURVE",
"-2 378 OFFCURVE",
"-2 457 CURVE SMOOTH",
"-2 534 OFFCURVE",
"31 600 OFFCURVE",
"98 657 CURVE SMOOTH",
"160 709 OFFCURVE",
"226 735 OFFCURVE",
"296 735 CURVE SMOOTH",
"339 735 OFFCURVE",
"373 723 OFFCURVE",
"398 700 CURVE SMOOTH",
"426 674 OFFCURVE",
"440 636 OFFCURVE",
"440 587 CURVE SMOOTH",
"440 561 OFFCURVE",
"436 532 OFFCURVE",
"428 500 CURVE SMOOTH",
"423 478 OFFCURVE",
"404 436 OFFCURVE",
"355 307 CURVE SMOOTH",
"319 212 OFFCURVE",
"301 135 OFFCURVE",
"301 77 CURVE SMOOTH",
"301 -9 OFFCURVE",
"341 -52 OFFCURVE",
"421 -52 CURVE SMOOTH",
"554 -52 OFFCURVE",
"669 71 OFFCURVE",
"765 317 CURVE",
"756 261 OFFCURVE",
"752 212 OFFCURVE",
"752 169 CURVE SMOOTH",
"752 36 OFFCURVE",
"791 -31 OFFCURVE",
"868 -31 CURVE SMOOTH",
"940 -31 OFFCURVE",
"1010 22 OFFCURVE",
"1078 128 CURVE SMOOTH",
"1126 203 OFFCURVE",
"1165 287 OFFCURVE",
"1196 382 CURVE SMOOTH"
);
}
);
width = 1174;
}
);
note = W;
unicode = 0057;
},
{
glyphname = X;
layers = (
{
hints = (
{
horizontal = 1;
place = "{-59, 694}";
type = Stem;
},
{
place = "{85, 34}";
type = Stem;
}
);
layerId = "769237BE-90A6-4D5E-A4C9-331744B3656A";
paths = (
{
closed = 1;
nodes = (
"536 630 OFFCURVE",
"530 635 OFFCURVE",
"519 635 CURVE SMOOTH",
"511 635 OFFCURVE",
"505 631 OFFCURVE",
"502 622 CURVE SMOOTH",
"486 579 OFFCURVE",
"454 530 OFFCURVE",
"407 475 CURVE SMOOTH",
"347 410 OFFCURVE",
"301 361 OFFCURVE",
"270 329 CURVE",
"169 482 OFFCURVE",
"119 576 OFFCURVE",
"119 609 CURVE SMOOTH",
"119 620 OFFCURVE",
"113 625 OFFCURVE",
"102 625 CURVE SMOOTH",
"91 625 OFFCURVE",
"85 619 OFFCURVE",
"85 608 CURVE SMOOTH",
"85 569 OFFCURVE",
"139 467 OFFCURVE",
"247 304 CURVE",
"63 117 OFFCURVE",
"-29 4 OFFCURVE",
"-29 -35 CURVE SMOOTH",
"-29 -51 OFFCURVE",
"-26 -59 OFFCURVE",
"-19 -59 CURVE SMOOTH",
"-12 -59 OFFCURVE",
"-6 -53 OFFCURVE",
"0 -41 CURVE SMOOTH",
"33 21 OFFCURVE",
"122 126 OFFCURVE",
"265 275 CURVE",
"376 116 LINE SMOOTH",
"421 54 OFFCURVE",
"464 5 OFFCURVE",
"503 -30 CURVE SMOOTH",
"506 -33 OFFCURVE",
"509 -34 OFFCURVE",
"513 -34 CURVE SMOOTH",
"525 -34 OFFCURVE",
"531 -29 OFFCURVE",
"531 -19 CURVE SMOOTH",
"531 -15 OFFCURVE",
"529 -11 OFFCURVE",
"526 -7 CURVE SMOOTH",
"429 100 OFFCURVE",
"350 202 OFFCURVE",
"289 299 CURVE",
"350 362 OFFCURVE",
"397 413 OFFCURVE",
"430 452 CURVE SMOOTH",
"501 534 OFFCURVE",
"536 590 OFFCURVE",
"536 619 CURVE SMOOTH"
);
}
);
width = 593;
}
);
note = X;
unicode = 0058;
},
{
glyphname = Y;
layers = (
{
hints = (
{
horizontal = 1;
place = "{-308, 34}";
type = Stem;
},
{
horizontal = 1;
place = "{-69, 34}";
type = Stem;
},
{
horizontal = 1;
place = "{327, 34}";
type = Stem;
},
{
horizontal = 1;
place = "{674, 36}";
type = Stem;
},
{
place = "{-46, 35}";
type = Stem;
},
{
place = "{173, 33}";
type = Stem;
},
{
place = "{309, 36}";
type = Stem;
},
{
place = "{571, 37}";
type = Stem;
},
{
place = "{648, 34}";
type = Stem;
},
{
place = "{671, 33}";
type = Stem;
},
{
horizontal = 1;
place = "{-6, 35}";
type = Stem;
},
{
horizontal = 1;
place = "{574, 40}";
type = Stem;
},
{
place = "{199, 36}";
type = Stem;
}
);
layerId = "769237BE-90A6-4D5E-A4C9-331744B3656A";
paths = (
{
closed = 1;
nodes = (
"694 -208 OFFCURVE",
"704 -186 OFFCURVE",
"704 -171 CURVE SMOOTH",
"704 -142 OFFCURVE",
"688 -117 OFFCURVE",
"657 -96 CURVE SMOOTH",
"620 -71 OFFCURVE",
"575 -53 OFFCURVE",
"523 -42 CURVE",
"566 51 OFFCURVE",
"593 154 OFFCURVE",
"604 269 CURVE",
"656 374 OFFCURVE",
"682 458 OFFCURVE",
"682 521 CURVE SMOOTH",
"682 577 OFFCURVE",
"658 614 OFFCURVE",
"629 614 CURVE SMOOTH",
"614 614 OFFCURVE",
"602 604 OFFCURVE",
"591 585 CURVE SMOOTH",
"579 563 OFFCURVE",
"573 531 OFFCURVE",
"572 490 CURVE SMOOTH",
"571 395 OFFCURVE",
"571 325 OFFCURVE",
"571 279 CURVE",
"541 221 OFFCURVE",
"505 169 OFFCURVE",
"462 122 CURVE SMOOTH",
"406 60 OFFCURVE",
"355 29 OFFCURVE",
"310 29 CURVE SMOOTH",
"286 29 OFFCURVE",
"267 40 OFFCURVE",
"253 62 CURVE SMOOTH",
"241 82 OFFCURVE",
"235 105 OFFCURVE",
"235 132 CURVE SMOOTH",
"235 174 OFFCURVE",
"253 239 OFFCURVE",
"290 326 CURVE SMOOTH",
"327 413 OFFCURVE",
"345 484 OFFCURVE",
"345 537 CURVE SMOOTH",
"345 591 OFFCURVE",
"327 634 OFFCURVE",
"290 666 CURVE SMOOTH",
"255 695 OFFCURVE",
"211 710 OFFCURVE",
"158 710 CURVE SMOOTH",
"102 710 OFFCURVE",
"54 689 OFFCURVE",
"14 647 CURVE SMOOTH",
"-26 606 OFFCURVE",
"-46 557 OFFCURVE",
"-46 500 CURVE SMOOTH",
"-46 455 OFFCURVE",
"-32 416 OFFCURVE",
"-3 382 CURVE SMOOTH",
"28 345 OFFCURVE",
"65 327 OFFCURVE",
"109 327 CURVE SMOOTH",
"153 327 OFFCURVE",
"191 354 OFFCURVE",
"203 397 CURVE SMOOTH",
"206 406 OFFCURVE",
"199 417 OFFCURVE",
"188 417 CURVE SMOOTH",
"181 417 OFFCURVE",
"175 412 OFFCURVE",
"170 402 CURVE SMOOTH",
"154 375 OFFCURVE",
"135 361 OFFCURVE",
"113 361 CURVE SMOOTH",
"77 361 OFFCURVE",
"47 375 OFFCURVE",
"23 404 CURVE SMOOTH",
"0 431 OFFCURVE",
"-11 463 OFFCURVE",
"-11 500 CURVE SMOOTH",
"-11 547 OFFCURVE",
"6 588 OFFCURVE",
"39 622 CURVE SMOOTH",
"73 657 OFFCURVE",
"114 674 OFFCURVE",
"161 674 CURVE SMOOTH",
"250 674 OFFCURVE",
"309 626 OFFCURVE",
"309 537 CURVE SMOOTH",
"309 486 OFFCURVE",
"291 417 OFFCURVE",
"254 329 CURVE SMOOTH",
"217 241 OFFCURVE",
"199 175 OFFCURVE",
"199 130 CURVE SMOOTH",
"199 93 OFFCURVE",
"209 62 OFFCURVE",
"228 37 CURVE SMOOTH",
"249 8 OFFCURVE",
"277 -6 OFFCURVE",
"313 -6 CURVE SMOOTH",
"355 -6 OFFCURVE",
"401 17 OFFCURVE",
"452 64 CURVE SMOOTH",
"489 99 OFFCURVE",
"525 142 OFFCURVE",
"559 193 CURVE",
"544 107 OFFCURVE",
"521 30 OFFCURVE",
"489 -37 CURVE",
"478 -36 OFFCURVE",
"467 -35 OFFCURVE",
"456 -35 CURVE SMOOTH",
"399 -35 OFFCURVE",
"339 -55 OFFCURVE",
"277 -94 CURVE SMOOTH",
"208 -138 OFFCURVE",
"173 -188 OFFCURVE",
"173 -244 CURVE SMOOTH",
"173 -284 OFFCURVE",
"208 -308 OFFCURVE",
"248 -308 CURVE SMOOTH",
"297 -308 OFFCURVE",
"349 -280 OFFCURVE",
"403 -224 CURVE SMOOTH",
"444 -181 OFFCURVE",
"479 -132 OFFCURVE",
"509 -75 CURVE",
"560 -85 OFFCURVE",
"605 -103 OFFCURVE",
"642 -129 CURVE SMOOTH",
"669 -148 OFFCURVE",
"674 -161 OFFCURVE",
"671 -174 CURVE SMOOTH",
"669 -186 OFFCURVE",
"668 -192 OFFCURVE",
"668 -191 CURVE SMOOTH",
"668 -202 OFFCURVE",
"672 -208 OFFCURVE",
"681 -208 CURVE SMOOTH"
);
},
{
closed = 1;
nodes = (
"648 486 OFFCURVE",
"635 433 OFFCURVE",
"608 364 CURVE",
"606 471 OFFCURVE",
"610 536 OFFCURVE",
"619 559 CURVE SMOOTH",
"624 571 OFFCURVE",
"629 576 OFFCURVE",
"634 574 CURVE SMOOTH",
"643 571 OFFCURVE",
"648 554 OFFCURVE",
"648 525 CURVE SMOOTH"
);
},
{
closed = 1;
nodes = (
"473 -69 LINE",
"446 -120 OFFCURVE",
"414 -164 OFFCURVE",
"378 -201 CURVE SMOOTH",
"331 -250 OFFCURVE",
"287 -274 OFFCURVE",
"247 -274 CURVE SMOOTH",
"227 -274 OFFCURVE",
"206 -263 OFFCURVE",
"206 -247 CURVE SMOOTH",
"206 -201 OFFCURVE",
"237 -159 OFFCURVE",
"299 -121 CURVE SMOOTH",
"354 -86 OFFCURVE",
"407 -69 OFFCURVE",
"456 -69 CURVE SMOOTH"
);
}
);
width = 654;
}
);
note = Y;
unicode = 0059;
},
{
glyphname = Z;
layers = (
{
hints = (
{
horizontal = 1;
place = "{-68, 36}";
type = Stem;
},
{
horizontal = 1;
place = "{183, 34}";
type = Stem;
},
{
horizontal = 1;
place = "{425, 34}";
type = Stem;
},
{
horizontal = 1;
place = "{637, 34}";
type = Stem;
},
{
place = "{93, 35}";
type = Stem;
},
{
place = "{563, 35}";
type = Stem;
},
{
horizontal = 1;
place = "{655, 35}";
type = Stem;
},
{
horizontal = 1;
place = "{-9, 33}";
type = Stem;
}
);
layerId = "769237BE-90A6-4D5E-A4C9-331744B3656A";
paths = (
{
closed = 1;
nodes = (
"606 664 OFFCURVE",
"607 667 OFFCURVE",
"607 670 CURVE SMOOTH",
"607 683 OFFCURVE",
"601 689 OFFCURVE",
"590 689 CURVE SMOOTH",
"588 689 OFFCURVE",
"586 689 OFFCURVE",
"584 688 CURVE SMOOTH",
"557 677 OFFCURVE",
"527 671 OFFCURVE",
"494 671 CURVE SMOOTH",
"473 671 OFFCURVE",
"440 674 OFFCURVE",
"393 680 CURVE SMOOTH",
"346 687 OFFCURVE",
"311 690 OFFCURVE",
"288 690 CURVE SMOOTH",
"253 690 OFFCURVE",
"224 685 OFFCURVE",
"199 675 CURVE SMOOTH",
"140 650 OFFCURVE",
"93 587 OFFCURVE",
"93 526 CURVE SMOOTH",
"93 466 OFFCURVE",
"134 425 OFFCURVE",
"194 425 CURVE SMOOTH",
"227 425 OFFCURVE",
"254 440 OFFCURVE",
"274 470 CURVE SMOOTH",
"276 473 OFFCURVE",
"277 476 OFFCURVE",
"277 479 CURVE SMOOTH",
"277 490 OFFCURVE",
"271 496 OFFCURVE",
"259 496 CURVE SMOOTH",
"257 496 OFFCURVE",
"249 490 OFFCURVE",
"236 477 CURVE SMOOTH",
"223 465 OFFCURVE",
"209 459 OFFCURVE",
"194 459 CURVE SMOOTH",
"154 459 OFFCURVE",
"128 485 OFFCURVE",
"128 524 CURVE SMOOTH",
"128 572 OFFCURVE",
"168 624 OFFCURVE",
"213 643 CURVE SMOOTH",
"231 651 OFFCURVE",
"255 655 OFFCURVE",
"284 655 CURVE SMOOTH",
"307 655 OFFCURVE",
"341 652 OFFCURVE",
"386 646 CURVE SMOOTH",
"432 640 OFFCURVE",
"463 637 OFFCURVE",
"480 637 CURVE SMOOTH",
"503 637 OFFCURVE",
"523 638 OFFCURVE",
"540 640 CURVE",
"251 327 LINE SMOOTH",
"139 205 OFFCURVE",
"46 98 OFFCURVE",
"-29 7 CURVE SMOOTH",
"-31 4 OFFCURVE",
"-32 1 OFFCURVE",
"-32 -3 CURVE SMOOTH",
"-32 -14 OFFCURVE",
"-21 -24 OFFCURVE",
"-9 -20 CURVE SMOOTH",
"11 -13 OFFCURVE",
"32 -9 OFFCURVE",
"53 -9 CURVE SMOOTH",
"94 -9 OFFCURVE",
"155 -19 OFFCURVE",
"235 -38 CURVE SMOOTH",
"315 -58 OFFCURVE",
"376 -68 OFFCURVE",
"418 -68 CURVE SMOOTH",
"476 -68 OFFCURVE",
"521 -52 OFFCURVE",
"554 -20 CURVE SMOOTH",
"583 8 OFFCURVE",
"598 42 OFFCURVE",
"598 83 CURVE SMOOTH",
"598 119 OFFCURVE",
"586 150 OFFCURVE",
"562 177 CURVE SMOOTH",
"538 204 OFFCURVE",
"506 217 OFFCURVE",
"465 217 CURVE SMOOTH",
"406 217 OFFCURVE",
"366 191 OFFCURVE",
"345 140 CURVE SMOOTH",
"341 128 OFFCURVE",
"350 117 OFFCURVE",
"362 117 CURVE SMOOTH",
"368 117 OFFCURVE",
"374 123 OFFCURVE",
"381 134 CURVE SMOOTH",
"391 149 OFFCURVE",
"400 160 OFFCURVE",
"407 166 CURVE SMOOTH",
"422 177 OFFCURVE",
"441 183 OFFCURVE",
"464 183 CURVE SMOOTH",
"524 183 OFFCURVE",
"563 136 OFFCURVE",
"563 83 CURVE SMOOTH",
"563 52 OFFCURVE",
"551 25 OFFCURVE",
"528 4 CURVE SMOOTH",
"501 -20 OFFCURVE",
"464 -32 OFFCURVE",
"416 -32 CURVE SMOOTH",
"375 -32 OFFCURVE",
"314 -23 OFFCURVE",
"234 -4 CURVE SMOOTH",
"155 15 OFFCURVE",
"94 24 OFFCURVE",
"53 24 CURVE SMOOTH",
"46 24 OFFCURVE",
"38 24 OFFCURVE",
"31 23 CURVE",
"92 97 OFFCURVE",
"189 204 OFFCURVE",
"321 345 CURVE SMOOTH",
"448 480 OFFCURVE",
"543 586 OFFCURVE",
"604 661 CURVE SMOOTH"
);
}
);
width = 585;
}
);
note = Z;
unicode = 005A;
},
{
glyphname = a;
lastChange = "2021-11-28 05:52:11 +0000";
layers = (
{
hints = (
{
horizontal = 1;
place = "{-19, 34}";
type = Stem;
},
{
horizontal = 1;
place = "{230, 34}";
type = Stem;
},
{
horizontal = 1;
place = "{360, 34}";
type = Stem;
},
{
place = "{5, 34}";
type = Stem;
},
{
place = "{298, 34}";
type = Stem;
},
{
horizontal = 1;
place = "{-26, 35}";
type = Stem;
},
{
place = "{256, 34}";
type = Stem;
}
);
layerId = "769237BE-90A6-4D5E-A4C9-331744B3656A";
paths = (
{
closed = 1;
nodes = (
"513 104 OFFCURVE",
"516 110 OFFCURVE",
"516 117 CURVE SMOOTH",
"516 127 OFFCURVE",
"510 130 OFFCURVE",
"504 130 CURVE SMOOTH",
"494 130 OFFCURVE",
"485 116 OFFCURVE",
"477 104 CURVE SMOOTH",
"463 83 OFFCURVE",
"445 60 OFFCURVE",
"425 43 CURVE SMOOTH",
"395 17 OFFCURVE",
"372 7 OFFCURVE",
"352 8 CURVE SMOOTH",
"305 8 OFFCURVE",
"284 69 OFFCURVE",
"317 162 CURVE SMOOTH",
"349 253 LINE",
"352 266 OFFCURVE",
"346 272 OFFCURVE",
"330 272 CURVE SMOOTH",
"323 272 OFFCURVE",
"319 269 OFFCURVE",
"316 264 CURVE",
"304 233 OFFCURVE",
"295 208 OFFCURVE",
"289 191 CURVE SMOOTH",
"270 139 OFFCURVE",
"250 100 OFFCURVE",
"231 75 CURVE SMOOTH",
"200 35 OFFCURVE",
"164 15 OFFCURVE",
"122 15 CURVE SMOOTH",
"73 15 OFFCURVE",
"48 47 OFFCURVE",
"48 111 CURVE SMOOTH",
"48 125 OFFCURVE",
"49 140 OFFCURVE",
"52 155 CURVE SMOOTH",
"59 200 OFFCURVE",
"82 244 OFFCURVE",
"121 288 CURVE SMOOTH",
"162 336 OFFCURVE",
"204 360 OFFCURVE",
"245 360 CURVE SMOOTH",
"286 360 OFFCURVE",
"307 342 OFFCURVE",
"307 305 CURVE SMOOTH",
"307 285 OFFCURVE",
"286 264 OFFCURVE",
"266 264 CURVE SMOOTH",
"262 264 OFFCURVE",
"253 267 OFFCURVE",
"249 267 CURVE SMOOTH",
"238 267 OFFCURVE",
"232 261 OFFCURVE",
"232 250 CURVE SMOOTH",
"232 237 OFFCURVE",
"244 230 OFFCURVE",
"268 230 CURVE SMOOTH",
"305 230 OFFCURVE",
"341 268 OFFCURVE",
"341 305 CURVE SMOOTH",
"341 361 OFFCURVE",
"301 394 OFFCURVE",
"246 394 CURVE SMOOTH",
"195 394 OFFCURVE",
"145 367 OFFCURVE",
"97 313 CURVE SMOOTH",
"54 264 OFFCURVE",
"27 214 OFFCURVE",
"18 161 CURVE SMOOTH",
"15 146 OFFCURVE",
"14 131 OFFCURVE",
"14 116 CURVE SMOOTH",
"14 78 OFFCURVE",
"21 47 OFFCURVE",
"36 24 CURVE SMOOTH",
"54 -5 OFFCURVE",
"81 -19 OFFCURVE",
"118 -19 CURVE SMOOTH",
"175 -19 OFFCURVE",
"224 10 OFFCURVE",
"265 68 CURVE",
"260 11 OFFCURVE",
"297 -20 OFFCURVE",
"345 -20 CURVE SMOOTH",
"378 -21 OFFCURVE",
"415 -7 OFFCURVE",
"448 23 CURVE SMOOTH",
"472 45 OFFCURVE",
"494 73 OFFCURVE",
"511 101 CURVE SMOOTH"
);
}
);
width = 477;
}
);
note = a;
unicode = 0061;
},
{
glyphname = ae;
layers = (
{
hints = (
{
horizontal = 1;
place = "{-19, 34}";
type = Stem;
},
{
horizontal = 1;
place = "{178, 34}";
type = Stem;
},
{
horizontal = 1;
place = "{360, 34}";
type = Stem;
},
{
place = "{5, 34}";
type = Stem;
},
{
place = "{298, 34}";
type = Stem;
},
{
place = "{552, 34}";
type = Stem;
},
{
horizontal = 1;
place = "{-26, 34}";
type = Stem;
},
{
horizontal = 1;
place = "{230, 34}";
type = Stem;
},
{
horizontal = 1;
place = "{353, 34}";
type = Stem;
},
{
place = "{256, 40}";
type = Stem;
}
);
layerId = "769237BE-90A6-4D5E-A4C9-331744B3656A";
paths = (
{
closed = 1;
nodes = (
"280 191 LINE SMOOTH",
"261 139 OFFCURVE",
"241 100 OFFCURVE",
"222 75 CURVE SMOOTH",
"191 35 OFFCURVE",
"155 15 OFFCURVE",
"113 15 CURVE SMOOTH",
"64 15 OFFCURVE",
"39 47 OFFCURVE",
"39 111 CURVE SMOOTH",
"39 125 OFFCURVE",
"40 140 OFFCURVE",
"43 155 CURVE SMOOTH",
"50 200 OFFCURVE",
"73 244 OFFCURVE",
"112 288 CURVE SMOOTH",
"153 336 OFFCURVE",
"195 360 OFFCURVE",
"236 360 CURVE SMOOTH",
"277 360 OFFCURVE",
"298 342 OFFCURVE",
"298 305 CURVE SMOOTH",
"298 285 OFFCURVE",
"277 264 OFFCURVE",
"257 264 CURVE SMOOTH",
"253 264 OFFCURVE",
"244 267 OFFCURVE",
"240 267 CURVE SMOOTH",
"229 267 OFFCURVE",
"223 261 OFFCURVE",
"223 250 CURVE SMOOTH",
"223 237 OFFCURVE",
"235 230 OFFCURVE",
"259 230 CURVE SMOOTH",
"273 230 OFFCURVE",
"287 235 OFFCURVE",
"300 245 CURVE"
);
},
{
closed = 1;
nodes = (
"596 106 OFFCURVE",
"597 109 OFFCURVE",
"597 112 CURVE SMOOTH",
"597 124 OFFCURVE",
"591 130 OFFCURVE",
"580 130 CURVE SMOOTH",
"575 130 OFFCURVE",
"570 127 OFFCURVE",
"566 122 CURVE SMOOTH",
"537 83 OFFCURVE",
"512 56 OFFCURVE",
"492 41 CURVE SMOOTH",
"463 19 OFFCURVE",
"428 8 OFFCURVE",
"389 8 CURVE SMOOTH",
"366 8 OFFCURVE",
"345 16 OFFCURVE",
"326 31 CURVE SMOOTH",
"302 50 OFFCURVE",
"292 74 OFFCURVE",
"296 103 CURVE SMOOTH",
"300 130 OFFCURVE",
"307 158 OFFCURVE",
"318 187 CURVE",
"336 181 OFFCURVE",
"358 178 OFFCURVE",
"383 178 CURVE SMOOTH",
"434 178 OFFCURVE",
"479 189 OFFCURVE",
"518 210 CURVE SMOOTH",
"563 235 OFFCURVE",
"586 267 OFFCURVE",
"586 308 CURVE SMOOTH",
"586 359 OFFCURVE",
"548 387 OFFCURVE",
"495 387 CURVE SMOOTH",
"432 387 OFFCURVE",
"377 360 OFFCURVE",
"332 305 CURVE",
"332 361 OFFCURVE",
"292 394 OFFCURVE",
"237 394 CURVE SMOOTH",
"186 394 OFFCURVE",
"136 367 OFFCURVE",
"88 313 CURVE SMOOTH",
"45 264 OFFCURVE",
"18 214 OFFCURVE",
"9 161 CURVE SMOOTH",
"6 146 OFFCURVE",
"5 131 OFFCURVE",
"5 116 CURVE SMOOTH",
"5 78 OFFCURVE",
"12 47 OFFCURVE",
"27 24 CURVE SMOOTH",
"45 -5 OFFCURVE",
"72 -19 OFFCURVE",
"109 -19 CURVE SMOOTH",
"164 -19 OFFCURVE",
"213 12 OFFCURVE",
"256 75 CURVE",
"257 48 OFFCURVE",
"270 25 OFFCURVE",
"294 6 CURVE SMOOTH",
"320 -15 OFFCURVE",
"352 -26 OFFCURVE",
"390 -26 CURVE SMOOTH",
"431 -26 OFFCURVE",
"471 -13 OFFCURVE",
"509 12 CURVE SMOOTH",
"544 35 OFFCURVE",
"572 66 OFFCURVE",
"594 103 CURVE SMOOTH"
);
},
{
closed = 1;
nodes = (
"552 280 OFFCURVE",
"533 256 OFFCURVE",
"494 237 CURVE SMOOTH",
"460 220 OFFCURVE",
"422 212 OFFCURVE",
"381 212 CURVE SMOOTH",
"360 212 OFFCURVE",
"343 214 OFFCURVE",
"329 219 CURVE",
"339 250 LINE",
"355 279 OFFCURVE",
"376 303 OFFCURVE",
"402 322 CURVE SMOOTH",
"431 343 OFFCURVE",
"460 353 OFFCURVE",
"491 353 CURVE SMOOTH",
"532 353 OFFCURVE",
"552 339 OFFCURVE",
"552 310 CURVE SMOOTH"
);
}
);
width = 557;
}
);
note = ae;
unicode = 00E6;
},
{
glyphname = b;
layers = (
{
hints = (
{
horizontal = 1;
place = "{-32, 37}";
type = Stem;
},
{
horizontal = 1;
place = "{220, 34}";
type = Stem;
},
{
horizontal = 1;
place = "{289, 34}";
type = Stem;
},
{
horizontal = 1;
place = "{641, 32}";
type = Stem;
},
{
place = "{18, 33}";
type = Stem;
},
{
place = "{236, 35}";
type = Stem;
},
{
place = "{309, 35}";
type = Stem;
},
{
horizontal = 1;
place = "{292, 36}";
type = Stem;
},
{
place = "{112, 34}";
type = Stem;
}
);
layerId = "769237BE-90A6-4D5E-A4C9-331744B3656A";
paths = (
{
closed = 1;
nodes = (
"344 649 OFFCURVE",
"328 673 OFFCURVE",
"295 673 CURVE SMOOTH",
"268 673 OFFCURVE",
"242 658 OFFCURVE",
"215 627 CURVE SMOOTH",
"158 562 OFFCURVE",
"104 462 OFFCURVE",
"53 325 CURVE",
"45 327 OFFCURVE",
"39 328 OFFCURVE",
"35 328 CURVE SMOOTH",
"24 328 OFFCURVE",
"18 322 OFFCURVE",
"18 311 CURVE SMOOTH",
"18 301 OFFCURVE",
"25 295 OFFCURVE",
"40 292 CURVE SMOOTH",
"42 292 LINE",
"26 232 OFFCURVE",
"18 176 OFFCURVE",
"18 124 CURVE SMOOTH",
"18 23 OFFCURVE",
"51 -29 OFFCURVE",
"116 -32 CURVE SMOOTH",
"154 -34 OFFCURVE",
"189 -17 OFFCURVE",
"220 19 CURVE SMOOTH",
"254 56 OFFCURVE",
"271 101 OFFCURVE",
"271 154 CURVE SMOOTH",
"271 221 OFFCURVE",
"246 254 OFFCURVE",
"195 254 CURVE SMOOTH",
"152 254 OFFCURVE",
"112 222 OFFCURVE",
"112 185 CURVE SMOOTH",
"112 172 OFFCURVE",
"120 153 OFFCURVE",
"133 153 CURVE SMOOTH",
"144 153 OFFCURVE",
"150 159 OFFCURVE",
"150 170 CURVE SMOOTH",
"150 175 OFFCURVE",
"146 181 OFFCURVE",
"146 184 CURVE SMOOTH",
"146 200 OFFCURVE",
"171 220 OFFCURVE",
"195 220 CURVE SMOOTH",
"222 220 OFFCURVE",
"236 198 OFFCURVE",
"236 154 CURVE SMOOTH",
"236 116 OFFCURVE",
"224 82 OFFCURVE",
"199 51 CURVE SMOOTH",
"174 21 OFFCURVE",
"149 6 OFFCURVE",
"122 5 CURVE SMOOTH",
"75 4 OFFCURVE",
"51 44 OFFCURVE",
"51 126 CURVE SMOOTH",
"51 183 OFFCURVE",
"59 238 OFFCURVE",
"76 289 CURVE",
"141 285 OFFCURVE",
"203 321 OFFCURVE",
"262 397 CURVE SMOOTH",
"317 467 OFFCURVE",
"344 535 OFFCURVE",
"344 601 CURVE SMOOTH"
);
},
{
closed = 1;
nodes = (
"309 548 OFFCURVE",
"287 488 OFFCURVE",
"242 426 CURVE SMOOTH",
"195 360 OFFCURVE",
"143 326 OFFCURVE",
"88 323 CURVE",
"139 458 OFFCURVE",
"192 556 OFFCURVE",
"248 616 CURVE SMOOTH",
"264 633 OFFCURVE",
"278 641 OFFCURVE",
"289 641 CURVE SMOOTH",
"302 641 OFFCURVE",
"309 629 OFFCURVE",
"309 605 CURVE SMOOTH"
);
}
);
width = 301;
}
);
note = b;
unicode = 0062;
},
{
glyphname = c;
lastChange = "2021-11-28 05:50:28 +0000";
layers = (
{
hints = (
{
horizontal = 1;
place = "{-32, 35}";
type = Stem;
},
{
horizontal = 1;
place = "{193, 34}";
type = Stem;
},
{
horizontal = 1;
place = "{347, 34}";
type = Stem;
},
{
place = "{3, 34}";
type = Stem;
},
{
place = "{152, 34}";
type = Stem;
},
{
place = "{272, 34}";
type = Stem;
}
);
layerId = "769237BE-90A6-4D5E-A4C9-331744B3656A";
paths = (
{
closed = 1;
nodes = (
"371 103 OFFCURVE",
"373 111 OFFCURVE",
"373 114 CURVE SMOOTH",
"373 125 OFFCURVE",
"370 129 OFFCURVE",
"362 129 CURVE SMOOTH",
"353 129 OFFCURVE",
"343 115 OFFCURVE",
"336 104 CURVE SMOOTH",
"297 38 OFFCURVE",
"236 0 OFFCURVE",
"172 0 CURVE SMOOTH",
"88 0 OFFCURVE",
"43 61 OFFCURVE",
"43 148 CURVE SMOOTH",
"43 195 OFFCURVE",
"60 240 OFFCURVE",
"95 283 CURVE SMOOTH",
"130 326 OFFCURVE",
"171 347 OFFCURVE",
"217 347 CURVE SMOOTH",
"258 347 OFFCURVE",
"278 328 OFFCURVE",
"278 291 CURVE SMOOTH",
"278 258 OFFCURVE",
"254 227 OFFCURVE",
"218 227 CURVE SMOOTH",
"201 227 OFFCURVE",
"192 235 OFFCURVE",
"192 251 CURVE SMOOTH",
"192 272 OFFCURVE",
"186 282 OFFCURVE",
"174 282 CURVE SMOOTH",
"163 282 OFFCURVE",
"158 272 OFFCURVE",
"158 252 CURVE SMOOTH",
"158 212 OFFCURVE",
"177 192 OFFCURVE",
"216 193 CURVE SMOOTH",
"245 193 OFFCURVE",
"269 204 OFFCURVE",
"287 225 CURVE SMOOTH",
"304 244 OFFCURVE",
"312 266 OFFCURVE",
"312 292 CURVE SMOOTH",
"312 317 OFFCURVE",
"304 337 OFFCURVE",
"289 354 CURVE SMOOTH",
"272 372 OFFCURVE",
"248 381 OFFCURVE",
"217 381 CURVE SMOOTH",
"161 381 OFFCURVE",
"112 355 OFFCURVE",
"69 304 CURVE SMOOTH",
"29 255 OFFCURVE",
"9 203 OFFCURVE",
"9 146 CURVE SMOOTH",
"9 93 OFFCURVE",
"23 51 OFFCURVE",
"50 19 CURVE SMOOTH",
"79 -15 OFFCURVE",
"120 -32 OFFCURVE",
"173 -32 CURVE SMOOTH",
"240 -32 OFFCURVE",
"323 5 OFFCURVE",
"370 101 CURVE SMOOTH"
);
}
);
width = 336;
}
);
note = c;
unicode = 0063;
},
{
glyphname = d;
lastChange = "2021-11-28 05:49:15 +0000";
layers = (
{
hints = (
{
horizontal = 1;
place = "{-19, 34}";
type = Stem;
},
{
horizontal = 1;
place = "{233, 34}";
type = Stem;
},
{
horizontal = 1;
place = "{344, 36}";
type = Stem;
},
{
horizontal = 1;
place = "{576, 33}";
type = Stem;
},
{
place = "{5, 35}";
type = Stem;
},
{
place = "{276, 35}";
type = Stem;
},
{
place = "{487, 34}";
type = Stem;
},
{
horizontal = 1;
place = "{-29, 35}";
type = Stem;
}
);
layerId = "769237BE-90A6-4D5E-A4C9-331744B3656A";
paths = (
{
closed = 1;
nodes = (
"555 104 OFFCURVE",
"558 115 OFFCURVE",
"558 119 CURVE SMOOTH",
"558 124 OFFCURVE",
"556 130 OFFCURVE",
"549 130 CURVE SMOOTH",
"539 130 OFFCURVE",
"526 114 OFFCURVE",
"520 104 CURVE SMOOTH",
"490 53 OFFCURVE",
"445 3 OFFCURVE",
"389 3 CURVE SMOOTH",
"342 3 OFFCURVE",
"315 41 OFFCURVE",
"311 110 CURVE",
"380 229 OFFCURVE",
"422 302 OFFCURVE",
"437 330 CURVE SMOOTH",
"493 437 OFFCURVE",
"521 513 OFFCURVE",
"521 556 CURVE SMOOTH",
"521 591 OFFCURVE",
"503 609 OFFCURVE",
"468 609 CURVE SMOOTH",
"405 609 OFFCURVE",
"350 525 OFFCURVE",
"305 357 CURVE",
"290 372 OFFCURVE",
"269 380 OFFCURVE",
"242 380 CURVE SMOOTH",
"189 380 OFFCURVE",
"137 357 OFFCURVE",
"88 311 CURVE SMOOTH",
"33 260 OFFCURVE",
"5 199 OFFCURVE",
"5 130 CURVE SMOOTH",
"5 90 OFFCURVE",
"15 56 OFFCURVE",
"35 28 CURVE SMOOTH",
"57 -3 OFFCURVE",
"88 -19 OFFCURVE",
"127 -19 CURVE SMOOTH",
"185 -19 OFFCURVE",
"237 10 OFFCURVE",
"284 69 CURVE",
"297 4 OFFCURVE",
"332 -29 OFFCURVE",
"388 -29 CURVE SMOOTH",
"459 -29 OFFCURVE",
"524 42 OFFCURVE",
"554 101 CURVE SMOOTH"
);
},
{
closed = 1;
nodes = (
"481 502 OFFCURVE",
"456 441 OFFCURVE",
"411 356 CURVE SMOOTH",
"394 324 OFFCURVE",
"360 266 OFFCURVE",
"311 181 CURVE",
"314 240 OFFCURVE",
"324 301 OFFCURVE",
"341 363 CURVE SMOOTH",
"360 432 OFFCURVE",
"383 487 OFFCURVE",
"410 527 CURVE SMOOTH",
"433 560 OFFCURVE",
"453 576 OFFCURVE",
"470 576 CURVE SMOOTH",
"485 576 OFFCURVE",
"491 564 OFFCURVE",
"487 539 CURVE SMOOTH"
);
},
{
closed = 1;
nodes = (
"288 283 LINE SMOOTH",
"285 272 OFFCURVE",
"274 267 OFFCURVE",
"259 267 CURVE SMOOTH",
"253 267 LINE",
"250 268 OFFCURVE",
"248 268 OFFCURVE",
"247 268 CURVE SMOOTH",
"235 268 OFFCURVE",
"229 262 OFFCURVE",
"229 249 CURVE SMOOTH",
"229 238 OFFCURVE",
"238 233 OFFCURVE",
"256 233 CURVE SMOOTH",
"265 233 OFFCURVE",
"274 234 OFFCURVE",
"281 236 CURVE",
"278 207 OFFCURVE",
"276 180 OFFCURVE",
"276 154 CURVE SMOOTH",
"276 142 OFFCURVE",
"276 130 OFFCURVE",
"277 118 CURVE",
"234 49 OFFCURVE",
"184 15 OFFCURVE",
"128 15 CURVE SMOOTH",
"99 15 OFFCURVE",
"76 27 OFFCURVE",
"60 51 CURVE SMOOTH",
"47 72 OFFCURVE",
"40 99 OFFCURVE",
"40 131 CURVE SMOOTH",
"40 184 OFFCURVE",
"60 232 OFFCURVE",
"100 277 CURVE SMOOTH",
"141 322 OFFCURVE",
"187 344 OFFCURVE",
"239 344 CURVE SMOOTH",
"272 344 OFFCURVE",
"291 332 OFFCURVE",
"294 307 CURVE"
);
}
);
width = 520;
}
);
note = d;
unicode = 0064;
},
{
glyphname = eth;
layers = (
{
hints = (
{
horizontal = 1;
place = "{-14, 37}";
type = Stem;
},
{
horizontal = 1;
place = "{374, 35}";
type = Stem;
},
{
horizontal = 1;
place = "{600, 34}";
type = Stem;
},
{
place = "{70, 37}";
type = Stem;
},
{
place = "{408, 36}";
type = Stem;
}
);
layerId = "769237BE-90A6-4D5E-A4C9-331744B3656A";
paths = (
{
closed = 1;
nodes = (
"247 492 OFFCURVE",
"254 490 OFFCURVE",
"263 495 CURVE SMOOTH",
"271 499 OFFCURVE",
"291 514 OFFCURVE",
"299 519 CURVE",
"360 545 LINE",
"393 498 OFFCURVE",
"405 428 OFFCURVE",
"408 361 CURVE",
"397 405 OFFCURVE",
"324 419 OFFCURVE",
"271 401 CURVE SMOOTH",
"222 385 OFFCURVE",
"180 356 OFFCURVE",
"143 313 CURVE SMOOTH",
"101 264 OFFCURVE",
"77 208 OFFCURVE",
"70 146 CURVE SMOOTH",
"60 48 OFFCURVE",
"114 -40 OFFCURVE",
"215 -7 CURVE SMOOTH",
"275 13 OFFCURVE",
"326 51 OFFCURVE",
"367 106 CURVE SMOOTH",
"408 161 OFFCURVE",
"433 223 OFFCURVE",
"440 290 CURVE SMOOTH",
"450 388 OFFCURVE",
"442 492 OFFCURVE",
"399 560 CURVE",
"415 567 OFFCURVE",
"427 573 OFFCURVE",
"437 578 CURVE SMOOTH",
"451 585 OFFCURVE",
"466 604 OFFCURVE",
"457 621 CURVE SMOOTH",
"452 631 OFFCURVE",
"445 634 OFFCURVE",
"435 628 CURVE SMOOTH",
"429 625 OFFCURVE",
"427 610 OFFCURVE",
"420 607 CURVE SMOOTH",
"410 601 OFFCURVE",
"396 595 OFFCURVE",
"379 587 CURVE",
"339 629 OFFCURVE",
"279 647 OFFCURVE",
"192 624 CURVE SMOOTH",
"178 620 OFFCURVE",
"165 615 OFFCURVE",
"152 609 CURVE SMOOTH",
"133 600 OFFCURVE",
"124 592 OFFCURVE",
"123 585 CURVE SMOOTH",
"122 575 OFFCURVE",
"128 565 OFFCURVE",
"136 567 CURVE SMOOTH",
"146 570 OFFCURVE",
"172 585 OFFCURVE",
"197 592 CURVE SMOOTH",
"260 609 OFFCURVE",
"305 598 OFFCURVE",
"337 571 CURVE",
"311 561 OFFCURVE",
"293 553 OFFCURVE",
"280 546 CURVE SMOOTH",
"267 539 OFFCURVE",
"256 532 OFFCURVE",
"246 524 CURVE SMOOTH",
"239 518 OFFCURVE",
"237 511 OFFCURVE",
"242 502 CURVE SMOOTH"
);
},
{
closed = 1;
nodes = (
"388 217 LINE",
"377 183 OFFCURVE",
"362 150 OFFCURVE",
"340 120 CURVE SMOOTH",
"308 75 OFFCURVE",
"267 45 OFFCURVE",
"216 28 CURVE SMOOTH",
"136 2 OFFCURVE",
"100 82 OFFCURVE",
"107 159 CURVE SMOOTH",
"112 208 OFFCURVE",
"132 252 OFFCURVE",
"166 292 CURVE SMOOTH",
"196 327 OFFCURVE",
"230 352 OFFCURVE",
"272 365 CURVE SMOOTH",
"310 378 OFFCURVE",
"341 377 OFFCURVE",
"365 361 CURVE SMOOTH",
"391 342 OFFCURVE",
"401 309 OFFCURVE",
"396 263 CURVE",
"396 254 OFFCURVE",
"389 229 OFFCURVE",
"388 220 CURVE SMOOTH"
);
}
);
width = 483;
}
);
note = eth;
unicode = 00F0;
},
{
glyphname = e;
lastChange = "2021-11-28 05:48:02 +0000";
layers = (
{
hints = (
{
horizontal = 1;
place = "{-26, 34}";
type = Stem;
},
{
horizontal = 1;
place = "{178, 34}";
type = Stem;
},
{
horizontal = 1;
place = "{353, 34}";
type = Stem;
},
{
place = "{8, 35}";
type = Stem;
},
{
place = "{284, 34}";
type = Stem;
}
);
layerId = "769237BE-90A6-4D5E-A4C9-331744B3656A";
paths = (
{
closed = 1;
nodes = (
"368 104 OFFCURVE",
"371 109 OFFCURVE",
"371 118 CURVE SMOOTH",
"371 127 OFFCURVE",
"366 130 OFFCURVE",
"361 130 CURVE SMOOTH",
"350 130 OFFCURVE",
"343 120 OFFCURVE",
"333 104 CURVE SMOOTH",
"292 40 OFFCURVE",
"233 5 OFFCURVE",
"164 5 CURVE SMOOTH",
"85 5 OFFCURVE",
"43 62 OFFCURVE",
"43 143 CURVE SMOOTH",
"43 158 OFFCURVE",
"45 173 OFFCURVE",
"48 188 CURVE",
"66 181 OFFCURVE",
"88 178 OFFCURVE",
"115 178 CURVE SMOOTH",
"166 178 OFFCURVE",
"211 189 OFFCURVE",
"250 210 CURVE SMOOTH",
"295 235 OFFCURVE",
"318 267 OFFCURVE",
"318 308 CURVE SMOOTH",
"318 359 OFFCURVE",
"281 387 OFFCURVE",
"226 387 CURVE SMOOTH",
"174 387 OFFCURVE",
"126 366 OFFCURVE",
"83 325 CURVE SMOOTH",
"33 278 OFFCURVE",
"8 218 OFFCURVE",
"8 143 CURVE SMOOTH",
"8 43 OFFCURVE",
"65 -26 OFFCURVE",
"165 -26 CURVE SMOOTH",
"245 -26 OFFCURVE",
"321 23 OFFCURVE",
"367 101 CURVE"
);
},
{
closed = 1;
nodes = (
"284 280 OFFCURVE",
"265 256 OFFCURVE",
"226 237 CURVE SMOOTH",
"192 220 OFFCURVE",
"154 212 OFFCURVE",
"112 212 CURVE SMOOTH",
"90 212 OFFCURVE",
"72 215 OFFCURVE",
"57 221 CURVE",
"72 258 OFFCURVE",
"93 288 OFFCURVE",
"121 312 CURVE SMOOTH",
"152 339 OFFCURVE",
"186 353 OFFCURVE",
"223 353 CURVE SMOOTH",
"264 353 OFFCURVE",
"284 339 OFFCURVE",
"284 310 CURVE SMOOTH"
);
}
);
width = 333;
}
);
note = e;
unicode = 0065;
},
{
glyphname = schwa;
lastChange = "2021-11-28 05:58:03 +0000";
layers = (
{
hints = (
{
horizontal = 1;
place = "{479, -34}";
type = Stem;
},
{
horizontal = 1;
place = "{275, -34}";
type = Stem;
},
{
horizontal = 1;
place = "{100, -34}";
type = Stem;
},
{
place = "{325, -35}";
type = Stem;
},
{
place = "{49, -34}";
type = Stem;
}
);
layerId = "769237BE-90A6-4D5E-A4C9-331744B3656A";
paths = (
{
closed = 1;
nodes = (
"0 102 OFFCURVE",
"-3 97 OFFCURVE",
"-3 88 CURVE SMOOTH",
"-3 79 OFFCURVE",
"2 76 OFFCURVE",
"7 76 CURVE SMOOTH",
"18 76 OFFCURVE",
"23 83 OFFCURVE",
"26 88 CURVE SMOOTH",
"76 171 OFFCURVE",
"159 368 OFFCURVE",
"276 368 CURVE SMOOTH",
"334 368 OFFCURVE",
"376 311 OFFCURVE",
"376 230 CURVE SMOOTH",
"376 215 OFFCURVE",
"374 200 OFFCURVE",
"371 185 CURVE",
"353 192 OFFCURVE",
"331 195 OFFCURVE",
"304 195 CURVE SMOOTH",
"253 195 OFFCURVE",
"208 184 OFFCURVE",
"169 163 CURVE SMOOTH",
"124 138 OFFCURVE",
"101 106 OFFCURVE",
"101 65 CURVE SMOOTH",
"101 14 OFFCURVE",
"138 -14 OFFCURVE",
"193 -14 CURVE SMOOTH",
"245 -14 OFFCURVE",
"293 7 OFFCURVE",
"336 48 CURVE SMOOTH",
"386 95 OFFCURVE",
"411 155 OFFCURVE",
"411 230 CURVE SMOOTH",
"411 330 OFFCURVE",
"354 399 OFFCURVE",
"277 399 CURVE SMOOTH",
"136 399 OFFCURVE",
"47 184 OFFCURVE",
"1 105 CURVE"
);
},
{
closed = 1;
nodes = (
"135 93 OFFCURVE",
"154 117 OFFCURVE",
"193 136 CURVE SMOOTH",
"227 153 OFFCURVE",
"265 161 OFFCURVE",
"307 161 CURVE SMOOTH",
"329 161 OFFCURVE",
"347 158 OFFCURVE",
"362 152 CURVE",
"347 115 OFFCURVE",
"326 85 OFFCURVE",
"298 61 CURVE SMOOTH",
"267 34 OFFCURVE",
"233 20 OFFCURVE",
"196 20 CURVE SMOOTH",
"155 20 OFFCURVE",
"135 34 OFFCURVE",
"135 63 CURVE SMOOTH"
);
}
);
width = 436;
}
);
unicode = 0259;
},
{
glyphname = f;
lastChange = "2021-11-28 05:47:13 +0000";
layers = (
{
hints = (
{
horizontal = 1;
place = "{-303, 34}";
type = Stem;
},
{
horizontal = 1;
place = "{-44, 89}";
type = Stem;
},
{
horizontal = 1;
place = "{675, 28}";
type = Stem;
},
{
place = "{-26, 34}";
type = Stem;
},
{
place = "{116, 34}";
type = Stem;
},
{
place = "{295, 37}";
type = Stem;
}
);
layerId = "769237BE-90A6-4D5E-A4C9-331744B3656A";
paths = (
{
closed = 1;
nodes = (
"327 104 OFFCURVE",
"328 111 OFFCURVE",
"328 117 CURVE SMOOTH",
"328 124 OFFCURVE",
"325 129 OFFCURVE",
"318 129 CURVE SMOOTH",
"311 129 OFFCURVE",
"298 116 OFFCURVE",
"291 104 CURVE SMOOTH",
"256 45 OFFCURVE",
"187 3 OFFCURVE",
"122 -10 CURVE",
"92 25 OFFCURVE",
"63 42 OFFCURVE",
"30 45 CURVE",
"41 111 LINE",
"111 140 OFFCURVE",
"184 236 OFFCURVE",
"260 397 CURVE SMOOTH",
"311 506 OFFCURVE",
"337 588 OFFCURVE",
"337 641 CURVE SMOOTH",
"337 682 OFFCURVE",
"320 703 OFFCURVE",
"287 703 CURVE SMOOTH",
"221 703 OFFCURVE",
"155 607 OFFCURVE",
"89 414 CURVE SMOOTH",
"46 286 OFFCURVE",
"14 161 OFFCURVE",
"-7 38 CURVE",
"-20 30 OFFCURVE",
"-26 20 OFFCURVE",
"-26 7 CURVE SMOOTH",
"-26 -4 OFFCURVE",
"-22 -13 OFFCURVE",
"-14 -21 CURVE",
"-19 -62 OFFCURVE",
"-21 -99 OFFCURVE",
"-21 -131 CURVE SMOOTH",
"-21 -188 OFFCURVE",
"-12 -231 OFFCURVE",
"5 -262 CURVE SMOOTH",
"20 -289 OFFCURVE",
"39 -303 OFFCURVE",
"62 -303 CURVE SMOOTH",
"85 -303 OFFCURVE",
"106 -289 OFFCURVE",
"124 -262 CURVE SMOOTH",
"144 -232 OFFCURVE",
"154 -194 OFFCURVE",
"155 -147 CURVE SMOOTH",
"156 -102 OFFCURVE",
"149 -64 OFFCURVE",
"135 -35 CURVE",
"218 -16 OFFCURVE",
"282 24 OFFCURVE",
"325 101 CURVE SMOOTH"
);
},
{
closed = 1;
nodes = (
"294 675 OFFCURVE",
"300 662 OFFCURVE",
"300 635 CURVE SMOOTH",
"300 580 OFFCURVE",
"275 503 OFFCURVE",
"224 404 CURVE SMOOTH",
"163 286 OFFCURVE",
"105 204 OFFCURVE",
"51 157 CURVE",
"78 263 OFFCURVE",
"108 362 OFFCURVE",
"143 454 CURVE SMOOTH",
"170 528 OFFCURVE",
"198 585 OFFCURVE",
"226 625 CURVE SMOOTH",
"249 658 OFFCURVE",
"267 675 OFFCURVE",
"282 675 CURVE SMOOTH"
);
},
{
closed = 1;
nodes = (
"121 -216 OFFCURVE",
"94 -265 OFFCURVE",
"66 -269 CURVE SMOOTH",
"53 -270 OFFCURVE",
"41 -261 OFFCURVE",
"31 -240 CURVE SMOOTH",
"19 -215 OFFCURVE",
"13 -177 OFFCURVE",
"13 -126 CURVE SMOOTH",
"13 -99 OFFCURVE",
"15 -70 OFFCURVE",
"18 -39 CURVE",
"41 -45 OFFCURVE",
"68 -46 OFFCURVE",
"99 -41 CURVE",
"114 -65 OFFCURVE",
"121 -99 OFFCURVE",
"121 -144 CURVE SMOOTH"
);
}
);
width = 291;
}
);
note = f;
unicode = 0066;
},
{
glyphname = g;
lastChange = "2021-11-28 05:46:16 +0000";
layers = (
{
hints = (
{
horizontal = 1;
place = "{-283, 27}";
type = Stem;
},
{
horizontal = 1;
place = "{-19, 33}";
type = Stem;
},
{
horizontal = 1;
place = "{191, 35}";
type = Stem;
},
{
horizontal = 1;
place = "{266, 17}";
type = Stem;
},
{
horizontal = 1;
place = "{323, 34}";
type = Stem;
},
{
place = "{0, 34}";
type = Stem;
},
{
place = "{288, 32}";
type = Stem;
},
{
place = "{-29, 38}";
type = Stem;
}
);
layerId = "769237BE-90A6-4D5E-A4C9-331744B3656A";
paths = (
{
closed = 1;
nodes = (
"457 109 OFFCURVE",
"457 115 OFFCURVE",
"457 122 CURVE SMOOTH",
"457 130 OFFCURVE",
"452 133 OFFCURVE",
"446 133 CURVE SMOOTH",
"436 133 OFFCURVE",
"422 111 OFFCURVE",
"418 105 CURVE SMOOTH",
"370 40 OFFCURVE",
"340 20 OFFCURVE",
"313 0 CURVE",
"336 96 OFFCURVE",
"353 167 OFFCURVE",
"362 214 CURVE SMOOTH",
"369 249 OFFCURVE",
"372 266 OFFCURVE",
"372 266 CURVE",
"372 277 OFFCURVE",
"366 283 OFFCURVE",
"353 283 CURVE SMOOTH",
"347 283 OFFCURVE",
"343 280 OFFCURVE",
"340 275 CURVE SMOOTH",
"329 251 OFFCURVE",
"322 232 OFFCURVE",
"319 219 CURVE",
"296 160 OFFCURVE",
"271 115 OFFCURVE",
"243 82 CURVE SMOOTH",
"204 37 OFFCURVE",
"162 14 OFFCURVE",
"117 14 CURVE SMOOTH",
"69 14 OFFCURVE",
"45 46 OFFCURVE",
"45 109 CURVE SMOOTH",
"45 161 OFFCURVE",
"63 209 OFFCURVE",
"99 253 CURVE SMOOTH",
"138 300 OFFCURVE",
"182 323 OFFCURVE",
"232 323 CURVE SMOOTH",
"277 323 OFFCURVE",
"299 307 OFFCURVE",
"299 274 CURVE SMOOTH",
"299 249 OFFCURVE",
"278 226 OFFCURVE",
"247 226 CURVE SMOOTH",
"228 226 OFFCURVE",
"218 220 OFFCURVE",
"218 208 CURVE SMOOTH",
"218 197 OFFCURVE",
"228 191 OFFCURVE",
"247 191 CURVE SMOOTH",
"298 191 OFFCURVE",
"331 230 OFFCURVE",
"331 274 CURVE SMOOTH",
"331 319 OFFCURVE",
"295 357 OFFCURVE",
"230 357 CURVE SMOOTH",
"171 357 OFFCURVE",
"120 330 OFFCURVE",
"75 276 CURVE SMOOTH",
"32 225 OFFCURVE",
"11 169 OFFCURVE",
"11 110 CURVE SMOOTH",
"11 67 OFFCURVE",
"21 34 OFFCURVE",
"42 11 CURVE SMOOTH",
"61 -9 OFFCURVE",
"85 -19 OFFCURVE",
"116 -19 CURVE SMOOTH",
"160 -19 OFFCURVE",
"202 -2 OFFCURVE",
"241 33 CURVE SMOOTH",
"264 53 OFFCURVE",
"286 79 OFFCURVE",
"305 110 CURVE",
"292 52 OFFCURVE",
"279 5 OFFCURVE",
"266 -32 CURVE",
"195 -69 OFFCURVE",
"140 -96 OFFCURVE",
"103 -112 CURVE",
"22 -155 OFFCURVE",
"-18 -195 OFFCURVE",
"-18 -233 CURVE SMOOTH",
"-18 -266 OFFCURVE",
"1 -283 OFFCURVE",
"39 -283 CURVE SMOOTH",
"72 -283 OFFCURVE",
"103 -274 OFFCURVE",
"130 -256 CURVE SMOOTH",
"201 -211 OFFCURVE",
"255 -143 OFFCURVE",
"299 -45 CURVE",
"365 -4 OFFCURVE",
"420 51 OFFCURVE",
"452 101 CURVE SMOOTH"
);
},
{
closed = 1;
nodes = (
"204 -151 OFFCURVE",
"160 -200 OFFCURVE",
"107 -233 CURVE SMOOTH",
"82 -248 OFFCURVE",
"61 -256 OFFCURVE",
"45 -256 CURVE SMOOTH",
"30 -256 OFFCURVE",
"21 -250 OFFCURVE",
"20 -239 CURVE SMOOTH",
"17 -209 OFFCURVE",
"47 -177 OFFCURVE",
"112 -144 CURVE SMOOTH",
"169 -117 OFFCURVE",
"211 -98 OFFCURVE",
"240 -85 CURVE"
);
}
);
width = 418;
}
);
note = g;
unicode = 0067;
},
{
glyphname = h;
lastChange = "2021-11-28 05:45:20 +0000";
layers = (
{
hints = (
{
horizontal = 1;
place = "{-22, 34}";
type = Stem;
},
{
horizontal = 1;
place = "{359, 34}";
type = Stem;
},
{
horizontal = 1;
place = "{689, 37}";
type = Stem;
},
{
place = "{226, 35}";
type = Stem;
},
{
place = "{304, 37}";
type = Stem;
},
{
horizontal = 1;
place = "{374, 34}";
type = Stem;
},
{
place = "{328, 38}";
type = Stem;
}
);
layerId = "769237BE-90A6-4D5E-A4C9-331744B3656A";
paths = (
{
closed = 1;
nodes = (
"497 124 OFFCURVE",
"492 130 OFFCURVE",
"486 130 CURVE SMOOTH",
"473 130 OFFCURVE",
"470 122 OFFCURVE",
"459 104 CURVE SMOOTH",
"423 47 OFFCURVE",
"385 10 OFFCURVE",
"323 10 CURVE SMOOTH",
"281 10 OFFCURVE",
"263 29 OFFCURVE",
"263 67 CURVE SMOOTH",
"263 111 OFFCURVE",
"306 200 OFFCURVE",
"319 233 CURVE SMOOTH",
"334 270 OFFCURVE",
"341 300 OFFCURVE",
"341 325 CURVE SMOOTH",
"341 370 OFFCURVE",
"316 393 OFFCURVE",
"267 393 CURVE SMOOTH",
"207 393 OFFCURVE",
"144 336 OFFCURVE",
"78 222 CURVE",
"94 274 OFFCURVE",
"111 325 OFFCURVE",
"130 374 CURVE",
"171 373 OFFCURVE",
"213 393 OFFCURVE",
"256 432 CURVE SMOOTH",
"294 467 OFFCURVE",
"324 509 OFFCURVE",
"345 557 CURVE SMOOTH",
"359 589 OFFCURVE",
"366 619 OFFCURVE",
"366 648 CURVE SMOOTH",
"366 668 OFFCURVE",
"362 685 OFFCURVE",
"354 699 CURVE SMOOTH",
"345 717 OFFCURVE",
"331 726 OFFCURVE",
"313 726 CURVE SMOOTH",
"283 726 OFFCURVE",
"251 701 OFFCURVE",
"218 651 CURVE SMOOTH",
"197 620 OFFCURVE",
"177 581 OFFCURVE",
"157 534 CURVE SMOOTH",
"155 530 OFFCURVE",
"138 489 OFFCURVE",
"107 411 CURVE",
"97 420 OFFCURVE",
"90 427 OFFCURVE",
"86 433 CURVE SMOOTH",
"80 440 OFFCURVE",
"75 444 OFFCURVE",
"70 444 CURVE SMOOTH",
"59 444 OFFCURVE",
"53 439 OFFCURVE",
"53 428 CURVE SMOOTH",
"53 409 OFFCURVE",
"76 388 OFFCURVE",
"97 380 CURVE",
"49 237 OFFCURVE",
"14 129 OFFCURVE",
"-9 57 CURVE SMOOTH",
"-18 25 OFFCURVE",
"-23 8 OFFCURVE",
"-23 5 CURVE SMOOTH",
"-23 -6 OFFCURVE",
"-17 -12 OFFCURVE",
"-4 -12 CURVE SMOOTH",
"1 -12 OFFCURVE",
"5 -9 OFFCURVE",
"8 -4 CURVE SMOOTH",
"21 25 OFFCURVE",
"31 47 OFFCURVE",
"37 62 CURVE SMOOTH",
"123 260 OFFCURVE",
"199 359 OFFCURVE",
"266 359 CURVE SMOOTH",
"291 359 OFFCURVE",
"304 346 OFFCURVE",
"304 320 CURVE SMOOTH",
"304 312 OFFCURVE",
"303 302 OFFCURVE",
"300 291 CURVE SMOOTH",
"275 219 OFFCURVE",
"226 120 OFFCURVE",
"226 61 CURVE SMOOTH",
"226 6 OFFCURVE",
"257 -22 OFFCURVE",
"320 -22 CURVE SMOOTH",
"378 -22 OFFCURVE",
"446 16 OFFCURVE",
"493 101 CURVE SMOOTH",
"496 106 OFFCURVE",
"497 112 OFFCURVE",
"497 117 CURVE SMOOTH"
);
},
{
closed = 1;
nodes = (
"322 689 OFFCURVE",
"328 677 OFFCURVE",
"328 652 CURVE SMOOTH",
"328 625 OFFCURVE",
"320 595 OFFCURVE",
"305 562 CURVE SMOOTH",
"287 525 OFFCURVE",
"264 492 OFFCURVE",
"237 465 CURVE SMOOTH",
"207 434 OFFCURVE",
"176 415 OFFCURVE",
"143 408 CURVE",
"183 511 OFFCURVE",
"218 585 OFFCURVE",
"248 631 CURVE SMOOTH",
"273 670 OFFCURVE",
"294 689 OFFCURVE",
"309 689 CURVE SMOOTH"
);
}
);
width = 459;
}
);
note = h;
unicode = 0068;
},
{
glyphname = i;
lastChange = "2021-11-28 05:44:01 +0000";
layers = (
{
hints = (
{
horizontal = 1;
place = "{-20, 34}";
type = Stem;
},
{
horizontal = 1;
place = "{383, 70}";
type = Stem;
},
{
place = "{11, 34}";
type = Stem;
},
{
place = "{79, 34}";
type = Stem;
},
{
place = "{101, 70}";
type = Stem;
}
);
layerId = "769237BE-90A6-4D5E-A4C9-331744B3656A";
paths = (
{
closed = 1;
nodes = (
"171 441 OFFCURVE",
"159 453 OFFCURVE",
"136 453 CURVE SMOOTH",
"113 453 OFFCURVE",
"101 441 OFFCURVE",
"101 418 CURVE SMOOTH",
"101 395 OFFCURVE",
"113 383 OFFCURVE",
"136 383 CURVE SMOOTH",
"159 383 OFFCURVE",
"171 395 OFFCURVE",
"171 418 CURVE SMOOTH"
);
},
{
closed = 1;
nodes = (
"262 122 OFFCURVE",
"262 133 OFFCURVE",
"246 133 CURVE SMOOTH",
"238 133 OFFCURVE",
"231 127 OFFCURVE",
"217 104 CURVE SMOOTH",
"184 53 OFFCURVE",
"144 14 OFFCURVE",
"95 14 CURVE SMOOTH",
"67 14 OFFCURVE",
"45 39 OFFCURVE",
"45 70 CURVE SMOOTH",
"45 95 OFFCURVE",
"56 132 OFFCURVE",
"79 183 CURVE SMOOTH",
"102 234 OFFCURVE",
"113 271 OFFCURVE",
"113 294 CURVE SMOOTH",
"113 311 OFFCURVE",
"107 320 OFFCURVE",
"96 320 CURVE SMOOTH",
"85 320 OFFCURVE",
"79 315 OFFCURVE",
"79 304 CURVE SMOOTH",
"79 275 OFFCURVE",
"68 236 OFFCURVE",
"45 186 CURVE SMOOTH",
"22 136 OFFCURVE",
"11 96 OFFCURVE",
"11 67 CURVE SMOOTH",
"11 18 OFFCURVE",
"46 -20 OFFCURVE",
"91 -20 CURVE SMOOTH",
"158 -20 OFFCURVE",
"213 33 OFFCURVE",
"251 101 CURVE SMOOTH"
);
}
);
width = 217;
}
);
note = i;
unicode = 0069;
},
{
color = 11;
glyphname = idotless;
lastChange = "2021-11-28 05:43:52 +0000";
layers = (
{
hints = (
{
horizontal = 1;
place = "{-20, 34}";
type = Stem;
},
{
horizontal = 1;
place = "{383, 70}";
type = Stem;
},
{
place = "{11, 34}";
type = Stem;
},
{
place = "{79, 34}";
type = Stem;
},
{
place = "{101, 70}";
type = Stem;
}
);
layerId = "769237BE-90A6-4D5E-A4C9-331744B3656A";
paths = (
{
closed = 1;
nodes = (
"262 122 OFFCURVE",
"262 133 OFFCURVE",
"246 133 CURVE SMOOTH",
"238 133 OFFCURVE",
"231 127 OFFCURVE",
"217 104 CURVE SMOOTH",
"184 53 OFFCURVE",
"144 14 OFFCURVE",
"95 14 CURVE SMOOTH",
"67 14 OFFCURVE",
"45 39 OFFCURVE",
"45 70 CURVE SMOOTH",
"45 95 OFFCURVE",
"56 132 OFFCURVE",
"79 183 CURVE SMOOTH",
"102 234 OFFCURVE",
"113 271 OFFCURVE",
"113 294 CURVE SMOOTH",
"113 311 OFFCURVE",
"107 320 OFFCURVE",
"96 320 CURVE SMOOTH",
"85 320 OFFCURVE",
"79 315 OFFCURVE",
"79 304 CURVE SMOOTH",
"79 275 OFFCURVE",
"68 236 OFFCURVE",
"45 186 CURVE SMOOTH",
"22 136 OFFCURVE",
"11 96 OFFCURVE",
"11 67 CURVE SMOOTH",
"11 18 OFFCURVE",
"46 -20 OFFCURVE",
"91 -20 CURVE SMOOTH",
"158 -20 OFFCURVE",
"213 33 OFFCURVE",
"251 101 CURVE SMOOTH"
);
}
);
width = 217;
}
);
unicode = 0131;
},
{
glyphname = j;
lastChange = "2021-11-28 05:43:21 +0000";
layers = (
{
hints = (
{
horizontal = 1;
place = "{-248, 34}";
type = Stem;
},
{
horizontal = 1;
place = "{420, 70}";
type = Stem;
},
{
place = "{-305, 40}";
type = Stem;
},
{
place = "{90, 37}";
type = Stem;
},
{
place = "{84, 70}";
type = Stem;
}
);
layerId = "769237BE-90A6-4D5E-A4C9-331744B3656A";
paths = (
{
closed = 1;
nodes = (
"154 478 OFFCURVE",
"142 490 OFFCURVE",
"119 490 CURVE SMOOTH",
"96 490 OFFCURVE",
"84 478 OFFCURVE",
"84 455 CURVE SMOOTH",
"84 432 OFFCURVE",
"96 420 OFFCURVE",
"119 420 CURVE SMOOTH",
"142 420 OFFCURVE",
"154 432 OFFCURVE",
"154 455 CURVE SMOOTH"
);
},
{
closed = 1;
nodes = (
"227 106 OFFCURVE",
"228 112 OFFCURVE",
"228 117 CURVE SMOOTH",
"228 125 OFFCURVE",
"219 127 OFFCURVE",
"214 127 CURVE SMOOTH",
"207 127 OFFCURVE",
"197 116 OFFCURVE",
"190 104 CURVE SMOOTH",
"174 78 OFFCURVE",
"151 49 OFFCURVE",
"130 30 CURVE SMOOTH",
"106 9 OFFCURVE",
"73 -8 OFFCURVE",
"30 -21 CURVE",
"52 26 OFFCURVE",
"73 85 OFFCURVE",
"94 156 CURVE SMOOTH",
"116 234 OFFCURVE",
"127 292 OFFCURVE",
"127 331 CURVE SMOOTH",
"127 346 OFFCURVE",
"121 354 OFFCURVE",
"110 354 CURVE SMOOTH",
"97 354 OFFCURVE",
"90 348 OFFCURVE",
"90 337 CURVE SMOOTH",
"90 299 OFFCURVE",
"78 239 OFFCURVE",
"55 156 CURVE SMOOTH",
"32 73 OFFCURVE",
"9 10 OFFCURVE",
"-13 -34 CURVE",
"-153 -59 LINE",
"-205 -71 OFFCURVE",
"-244 -89 OFFCURVE",
"-271 -114 CURVE SMOOTH",
"-294 -135 OFFCURVE",
"-305 -158 OFFCURVE",
"-305 -183 CURVE SMOOTH",
"-305 -218 OFFCURVE",
"-277 -244 OFFCURVE",
"-234 -248 CURVE SMOOTH",
"-184 -253 OFFCURVE",
"-133 -230 OFFCURVE",
"-80 -179 CURVE SMOOTH",
"-45 -147 OFFCURVE",
"-16 -108 OFFCURVE",
"9 -62 CURVE",
"120 -33 OFFCURVE",
"181 23 OFFCURVE",
"224 101 CURVE SMOOTH"
);
},
{
closed = 1;
nodes = (
"-95 -164 OFFCURVE",
"-155 -211 OFFCURVE",
"-217 -214 CURVE SMOOTH",
"-249 -216 OFFCURVE",
"-265 -206 OFFCURVE",
"-265 -183 CURVE SMOOTH",
"-265 -140 OFFCURVE",
"-226 -110 OFFCURVE",
"-147 -92 CURVE SMOOTH",
"-96 -83 OFFCURVE",
"-59 -76 OFFCURVE",
"-36 -73 CURVE"
);
}
);
width = 190;
}
);
note = j;
unicode = 006A;
},
{
color = 11;
glyphname = jdotless;
lastChange = "2021-11-28 05:42:58 +0000";
layers = (
{
hints = (
{
horizontal = 1;
place = "{-248, 34}";
type = Stem;
},
{
horizontal = 1;
place = "{420, 70}";
type = Stem;
},
{
place = "{-305, 40}";
type = Stem;
},
{
place = "{90, 37}";
type = Stem;
},
{
place = "{84, 70}";
type = Stem;
}
);
layerId = "769237BE-90A6-4D5E-A4C9-331744B3656A";
paths = (
{
closed = 1;
nodes = (
"227 106 OFFCURVE",
"228 112 OFFCURVE",
"228 117 CURVE SMOOTH",
"228 125 OFFCURVE",
"219 127 OFFCURVE",
"214 127 CURVE SMOOTH",
"207 127 OFFCURVE",
"197 116 OFFCURVE",
"190 104 CURVE SMOOTH",
"174 78 OFFCURVE",
"151 49 OFFCURVE",
"130 30 CURVE SMOOTH",
"106 9 OFFCURVE",
"73 -8 OFFCURVE",
"30 -21 CURVE",
"52 26 OFFCURVE",
"73 85 OFFCURVE",
"94 156 CURVE SMOOTH",
"116 234 OFFCURVE",
"127 292 OFFCURVE",
"127 331 CURVE SMOOTH",
"127 346 OFFCURVE",
"121 354 OFFCURVE",
"110 354 CURVE SMOOTH",
"97 354 OFFCURVE",
"90 348 OFFCURVE",
"90 337 CURVE SMOOTH",
"90 299 OFFCURVE",
"78 239 OFFCURVE",
"55 156 CURVE SMOOTH",
"32 73 OFFCURVE",
"9 10 OFFCURVE",
"-13 -34 CURVE",
"-153 -59 LINE",
"-205 -71 OFFCURVE",
"-244 -89 OFFCURVE",
"-271 -114 CURVE SMOOTH",
"-294 -135 OFFCURVE",
"-305 -158 OFFCURVE",
"-305 -183 CURVE SMOOTH",
"-305 -218 OFFCURVE",
"-277 -244 OFFCURVE",
"-234 -248 CURVE SMOOTH",
"-184 -253 OFFCURVE",
"-133 -230 OFFCURVE",
"-80 -179 CURVE SMOOTH",
"-45 -147 OFFCURVE",
"-16 -108 OFFCURVE",
"9 -62 CURVE",
"120 -33 OFFCURVE",
"181 23 OFFCURVE",
"224 101 CURVE SMOOTH"
);
},
{
closed = 1;
nodes = (
"-95 -164 OFFCURVE",
"-155 -211 OFFCURVE",
"-217 -214 CURVE SMOOTH",
"-249 -216 OFFCURVE",
"-265 -206 OFFCURVE",
"-265 -183 CURVE SMOOTH",
"-265 -140 OFFCURVE",
"-226 -110 OFFCURVE",
"-147 -92 CURVE SMOOTH",
"-96 -83 OFFCURVE",
"-59 -76 OFFCURVE",
"-36 -73 CURVE"
);
}
);
width = 190;
}
);
unicode = 0237;
},
{
glyphname = k;
lastChange = "2021-11-28 05:41:45 +0000";
layers = (
{
hints = (
{
horizontal = 1;
place = "{-24, 35}";
type = Stem;
},
{
horizontal = 1;
place = "{173, 33}";
type = Stem;
},
{
horizontal = 1;
place = "{373, 34}";
type = Stem;
},
{
horizontal = 1;
place = "{688, 35}";
type = Stem;
},
{
place = "{104, 34}";
type = Stem;
},
{
place = "{347, 35}";
type = Stem;
},
{
horizontal = 1;
place = "{351, 34}";
type = Stem;
},
{
place = "{314, 37}";
type = Stem;
}
);
layerId = "769237BE-90A6-4D5E-A4C9-331744B3656A";
paths = (
{
closed = 1;
nodes = (
"402 103 OFFCURVE",
"403 111 OFFCURVE",
"403 114 CURVE SMOOTH",
"403 121 OFFCURVE",
"400 127 OFFCURVE",
"392 127 CURVE SMOOTH",
"384 127 OFFCURVE",
"372 111 OFFCURVE",
"367 104 CURVE SMOOTH",
"330 49 OFFCURVE",
"307 11 OFFCURVE",
"246 11 CURVE SMOOTH",
"208 11 OFFCURVE",
"179 30 OFFCURVE",
"159 68 CURVE SMOOTH",
"143 100 OFFCURVE",
"136 137 OFFCURVE",
"138 179 CURVE",
"151 175 OFFCURVE",
"166 173 OFFCURVE",
"181 173 CURVE SMOOTH",
"224 173 OFFCURVE",
"263 185 OFFCURVE",
"296 210 CURVE SMOOTH",
"333 237 OFFCURVE",
"351 270 OFFCURVE",
"351 311 CURVE SMOOTH",
"351 354 OFFCURVE",
"325 385 OFFCURVE",
"282 385 CURVE SMOOTH",
"258 385 OFFCURVE",
"231 376 OFFCURVE",
"202 358 CURVE SMOOTH",
"155 329 OFFCURVE",
"111 271 OFFCURVE",
"71 186 CURVE",
"88 247 OFFCURVE",
"108 310 OFFCURVE",
"133 374 CURVE",
"140 373 OFFCURVE",
"146 373 OFFCURVE",
"153 373 CURVE SMOOTH",
"194 373 OFFCURVE",
"234 390 OFFCURVE",
"271 424 CURVE SMOOTH",
"304 453 OFFCURVE",
"331 491 OFFCURVE",
"352 537 CURVE SMOOTH",
"372 581 OFFCURVE",
"382 620 OFFCURVE",
"382 654 CURVE SMOOTH",
"382 700 OFFCURVE",
"366 723 OFFCURVE",
"333 723 CURVE SMOOTH",
"286 723 OFFCURVE",
"236 674 OFFCURVE",
"183 575 CURVE",
"150 505 OFFCURVE",
"127 453 OFFCURVE",
"114 420 CURVE",
"105 436 OFFCURVE",
"97 444 OFFCURVE",
"91 444 CURVE SMOOTH",
"79 444 OFFCURVE",
"73 438 OFFCURVE",
"73 427 CURVE SMOOTH",
"73 411 OFFCURVE",
"82 397 OFFCURVE",
"101 386 CURVE",
"33 211 OFFCURVE",
"-1 82 OFFCURVE",
"-1 -1 CURVE SMOOTH",
"-1 -12 OFFCURVE",
"5 -18 OFFCURVE",
"18 -18 CURVE SMOOTH",
"24 -18 OFFCURVE",
"28 -15 OFFCURVE",
"31 -9 CURVE SMOOTH",
"43 21 OFFCURVE",
"51 44 OFFCURVE",
"56 60 CURVE SMOOTH",
"69 96 OFFCURVE",
"85 134 OFFCURVE",
"104 175 CURVE",
"103 124 OFFCURVE",
"113 80 OFFCURVE",
"134 43 CURVE SMOOTH",
"160 -2 OFFCURVE",
"197 -24 OFFCURVE",
"246 -24 CURVE SMOOTH",
"322 -24 OFFCURVE",
"371 44 OFFCURVE",
"401 101 CURVE SMOOTH"
);
},
{
closed = 1;
nodes = (
"341 688 OFFCURVE",
"347 676 OFFCURVE",
"347 653 CURVE SMOOTH",
"347 622 OFFCURVE",
"337 585 OFFCURVE",
"316 542 CURVE SMOOTH",
"273 453 OFFCURVE",
"216 408 OFFCURVE",
"145 407 CURVE",
"165 456 OFFCURVE",
"188 505 OFFCURVE",
"214 555 CURVE SMOOTH",
"261 644 OFFCURVE",
"300 688 OFFCURVE",
"329 688 CURVE SMOOTH"
);
},
{
closed = 1;
nodes = (
"312 278 OFFCURVE",
"295 252 OFFCURVE",
"262 232 CURVE SMOOTH",
"234 215 OFFCURVE",
"204 206 OFFCURVE",
"171 206 CURVE SMOOTH",
"152 206 OFFCURVE",
"138 210 OFFCURVE",
"129 217 CURVE",
"156 266 OFFCURVE",
"186 303 OFFCURVE",
"221 327 CURVE SMOOTH",
"244 343 OFFCURVE",
"264 351 OFFCURVE",
"280 351 CURVE SMOOTH",
"304 351 OFFCURVE",
"315 337 OFFCURVE",
"314 309 CURVE SMOOTH"
);
}
);
width = 367;
}
);
note = k;
unicode = 006B;
},
{
glyphname = kgreenlandic;
lastChange = "2021-11-28 05:30:14 +0000";
layers = (
{
hints = (
{
horizontal = 1;
place = "{-24, 35}";
type = Stem;
},
{
horizontal = 1;
place = "{173, 33}";
type = Stem;
},
{
horizontal = 1;
place = "{373, 34}";
type = Stem;
},
{
horizontal = 1;
place = "{688, 35}";
type = Stem;
},
{
place = "{104, 34}";
type = Stem;
},
{
place = "{347, 35}";
type = Stem;
},
{
horizontal = 1;
place = "{351, 34}";
type = Stem;
},
{
place = "{314, 37}";
type = Stem;
}
);
layerId = "769237BE-90A6-4D5E-A4C9-331744B3656A";
paths = (
{
closed = 1;
nodes = (
"375 385 OFFCURVE",
"341 385 CURVE SMOOTH",
"270 385 OFFCURVE",
"110 268 OFFCURVE",
"71 186 CURVE",
"108 320 OFFCURVE",
"151 435 OFFCURVE",
"214 555 CURVE SMOOTH",
"228 582 OFFCURVE",
"192 596 OFFCURVE",
"181 575 CURVE SMOOTH",
"104 426 OFFCURVE",
"-1 134 OFFCURVE",
"-1 -1 CURVE SMOOTH",
"-1 -12 OFFCURVE",
"5 -18 OFFCURVE",
"18 -18 CURVE SMOOTH",
"24 -18 OFFCURVE",
"30 -15 OFFCURVE",
"31 -9 CURVE SMOOTH",
"40 37 OFFCURVE",
"67 138 OFFCURVE",
"90 172 CURVE",
"110 80 OFFCURVE",
"139 -24 OFFCURVE",
"246 -24 CURVE SMOOTH",
"323 -24 OFFCURVE",
"363 30 OFFCURVE",
"402 103 CURVE SMOOTH",
"403 105 OFFCURVE",
"403 107 OFFCURVE",
"403 110 CURVE SMOOTH",
"403 121 OFFCURVE",
"402 129 OFFCURVE",
"391 129 CURVE SMOOTH",
"385 129 OFFCURVE",
"371 111 OFFCURVE",
"367 104 CURVE SMOOTH",
"344 66 OFFCURVE",
"309 11 OFFCURVE",
"246 11 CURVE SMOOTH",
"163 11 OFFCURVE",
"135 126 OFFCURVE",
"126 208 CURVE",
"169 249 OFFCURVE",
"293 351 OFFCURVE",
"339 351 CURVE SMOOTH",
"358 351 OFFCURVE"
);
}
);
width = 367;
}
);
unicode = 0138;
},
{
glyphname = l;
lastChange = "2021-11-28 05:40:49 +0000";
layers = (
{
hints = (
{
horizontal = 1;
place = "{-30, 34}";
type = Stem;
},
{
horizontal = 1;
place = "{657, 33}";
type = Stem;
},
{
place = "{17, 37}";
type = Stem;
},
{
place = "{294, 33}";
type = Stem;
}
);
layerId = "769237BE-90A6-4D5E-A4C9-331744B3656A";
paths = (
{
closed = 1;
nodes = (
"327 666 OFFCURVE",
"312 690 OFFCURVE",
"282 690 CURVE SMOOTH",
"247 690 OFFCURVE",
"209 654 OFFCURVE",
"170 583 CURVE SMOOTH",
"137 524 OFFCURVE",
"103 443 OFFCURVE",
"69 341 CURVE SMOOTH",
"31 226 OFFCURVE",
"14 140 OFFCURVE",
"17 85 CURVE SMOOTH",
"22 8 OFFCURVE",
"52 -29 OFFCURVE",
"107 -29 CURVE SMOOTH",
"195 -29 OFFCURVE",
"258 39 OFFCURVE",
"290 101 CURVE SMOOTH",
"294 108 OFFCURVE",
"295 117 OFFCURVE",
"295 120 CURVE SMOOTH",
"295 130 OFFCURVE",
"292 133 OFFCURVE",
"285 133 CURVE SMOOTH",
"275 133 OFFCURVE",
"260 109 OFFCURVE",
"256 104 CURVE SMOOTH",
"201 23 OFFCURVE",
"160 4 OFFCURVE",
"113 4 CURVE SMOOTH",
"74 4 OFFCURVE",
"54 36 OFFCURVE",
"54 99 CURVE SMOOTH",
"54 125 OFFCURVE",
"58 155 OFFCURVE",
"65 190 CURVE",
"140 251 OFFCURVE",
"208 335 OFFCURVE",
"269 441 CURVE SMOOTH",
"308 509 OFFCURVE",
"327 568 OFFCURVE",
"327 618 CURVE SMOOTH"
);
},
{
closed = 1;
nodes = (
"289 657 OFFCURVE",
"294 646 OFFCURVE",
"294 625 CURVE SMOOTH",
"294 580 OFFCURVE",
"275 524 OFFCURVE",
"238 459 CURVE SMOOTH",
"193 380 OFFCURVE",
"140 310 OFFCURVE",
"81 250 CURVE",
"113 348 OFFCURVE",
"145 435 OFFCURVE",
"178 510 CURVE SMOOTH",
"205 572 OFFCURVE",
"230 615 OFFCURVE",
"253 640 CURVE SMOOTH",
"264 651 OFFCURVE",
"273 657 OFFCURVE",
"280 657 CURVE SMOOTH"
);
}
);
width = 256;
}
);
note = l;
unicode = 006C;
},
{
glyphname = m;
lastChange = "2021-11-28 05:38:46 +0000";
layers = (
{
hints = (
{
horizontal = 1;
place = "{-22, 35}";
type = Stem;
},
{
horizontal = 1;
place = "{343, 37}";
type = Stem;
},
{
place = "{62, 34}";
type = Stem;
},
{
place = "{260, 37}";
type = Stem;
},
{
place = "{407, 35}";
type = Stem;
},
{
place = "{478, 37}";
type = Stem;
},
{
horizontal = 1;
place = "{352, 37}";
type = Stem;
}
);
layerId = "769237BE-90A6-4D5E-A4C9-331744B3656A";
paths = (
{
closed = 1;
nodes = (
"649 104 OFFCURVE",
"653 112 OFFCURVE",
"653 115 CURVE SMOOTH",
"653 124 OFFCURVE",
"647 129 OFFCURVE",
"636 129 CURVE SMOOTH",
"629 129 OFFCURVE",
"616 109 OFFCURVE",
"613 104 CURVE SMOOTH",
"582 58 OFFCURVE",
"531 13 OFFCURVE",
"483 13 CURVE SMOOTH",
"456 13 OFFCURVE",
"442 28 OFFCURVE",
"442 57 CURVE SMOOTH",
"442 93 OFFCURVE",
"468 163 OFFCURVE",
"491 224 CURVE SMOOTH",
"507 267 OFFCURVE",
"515 297 OFFCURVE",
"515 312 CURVE SMOOTH",
"515 363 OFFCURVE",
"495 389 OFFCURVE",
"455 389 CURVE SMOOTH",
"430 389 OFFCURVE",
"401 377 OFFCURVE",
"368 353 CURVE SMOOTH",
"343 335 OFFCURVE",
"320 309 OFFCURVE",
"297 275 CURVE",
"297 288 LINE SMOOTH",
"297 349 OFFCURVE",
"275 380 OFFCURVE",
"232 380 CURVE SMOOTH",
"195 380 OFFCURVE",
"158 362 OFFCURVE",
"122 326 CURVE SMOOTH",
"111 315 OFFCURVE",
"100 300 OFFCURVE",
"88 283 CURVE",
"93 314 OFFCURVE",
"96 342 OFFCURVE",
"96 368 CURVE SMOOTH",
"96 383 OFFCURVE",
"91 390 OFFCURVE",
"80 390 CURVE SMOOTH",
"68 390 OFFCURVE",
"62 384 OFFCURVE",
"62 373 CURVE SMOOTH",
"62 320 OFFCURVE",
"51 258 OFFCURVE",
"29 187 CURVE SMOOTH",
"-28 6 LINE",
"-28 -7 OFFCURVE",
"-21 -13 OFFCURVE",
"-8 -13 CURVE SMOOTH",
"-2 -13 OFFCURVE",
"2 -10 OFFCURVE",
"5 -3 CURVE SMOOTH",
"22 50 OFFCURVE",
"40 102 OFFCURVE",
"58 155 CURVE SMOOTH",
"79 209 OFFCURVE",
"108 257 OFFCURVE",
"145 298 CURVE SMOOTH",
"171 328 OFFCURVE",
"197 343 OFFCURVE",
"224 343 CURVE SMOOTH",
"248 343 OFFCURVE",
"260 325 OFFCURVE",
"260 290 CURVE SMOOTH",
"260 246 OFFCURVE",
"235 165 OFFCURVE",
"184 47 CURVE SMOOTH",
"174 25 OFFCURVE",
"169 12 OFFCURVE",
"169 8 CURVE SMOOTH",
"169 0 OFFCURVE",
"181 -9 OFFCURVE",
"192 -9 CURVE SMOOTH",
"197 -9 OFFCURVE",
"201 -6 OFFCURVE",
"204 -1 CURVE",
"213 20 OFFCURVE",
"228 54 OFFCURVE",
"247 103 CURVE SMOOTH",
"264 146 OFFCURVE",
"279 180 OFFCURVE",
"291 203 CURVE SMOOTH",
"313 244 OFFCURVE",
"342 282 OFFCURVE",
"378 318 CURVE SMOOTH",
"400 341 OFFCURVE",
"423 352 OFFCURVE",
"446 352 CURVE SMOOTH",
"467 352 OFFCURVE",
"478 338 OFFCURVE",
"478 311 CURVE SMOOTH",
"478 298 OFFCURVE",
"471 272 OFFCURVE",
"456 231 CURVE SMOOTH",
"423 142 OFFCURVE",
"407 83 OFFCURVE",
"407 52 CURVE SMOOTH",
"407 3 OFFCURVE",
"433 -22 OFFCURVE",
"484 -22 CURVE SMOOTH",
"541 -22 OFFCURVE",
"616 38 OFFCURVE",
"647 101 CURVE SMOOTH"
);
}
);
width = 613;
}
);
note = m;
unicode = 006D;
},
{
glyphname = n;
lastChange = "2021-11-28 05:40:02 +0000";
layers = (
{
hints = (
{
horizontal = 1;
place = "{-21, 34}";
type = Stem;
},
{
horizontal = 1;
place = "{353, 35}";
type = Stem;
},
{
place = "{66, 39}";
type = Stem;
},
{
place = "{286, 40}";
type = Stem;
},
{
place = "{227, 35}";
type = Stem;
}
);
layerId = "769237BE-90A6-4D5E-A4C9-331744B3656A";
paths = (
{
closed = 1;
nodes = (
"468 104 OFFCURVE",
"472 116 OFFCURVE",
"472 119 CURVE SMOOTH",
"472 128 OFFCURVE",
"467 133 OFFCURVE",
"460 133 CURVE SMOOTH",
"449 133 OFFCURVE",
"444 123 OFFCURVE",
"432 105 CURVE SMOOTH",
"403 59 OFFCURVE",
"343 13 OFFCURVE",
"300 13 CURVE SMOOTH",
"244 13 OFFCURVE",
"267 90 OFFCURVE",
"285 142 CURVE SMOOTH",
"312 219 OFFCURVE",
"326 271 OFFCURVE",
"326 298 CURVE SMOOTH",
"326 358 OFFCURVE",
"298 388 OFFCURVE",
"243 388 CURVE SMOOTH",
"190 388 OFFCURVE",
"141 357 OFFCURVE",
"96 295 CURVE",
"102 320 OFFCURVE",
"105 342 OFFCURVE",
"105 360 CURVE SMOOTH",
"105 373 OFFCURVE",
"96 397 OFFCURVE",
"83 397 CURVE SMOOTH",
"72 397 OFFCURVE",
"66 391 OFFCURVE",
"66 378 CURVE SMOOTH",
"66 312 OFFCURVE",
"44 220 OFFCURVE",
"1 101 CURVE SMOOTH",
"-22 38 OFFCURVE",
"-33 6 OFFCURVE",
"-33 4 CURVE SMOOTH",
"-33 -4 OFFCURVE",
"-23 -15 OFFCURVE",
"-14 -15 CURVE SMOOTH",
"-9 -15 OFFCURVE",
"-4 -11 OFFCURVE",
"-1 -4 CURVE SMOOTH",
"14 32 OFFCURVE",
"25 59 OFFCURVE",
"31 78 CURVE SMOOTH",
"60 154 OFFCURVE",
"85 210 OFFCURVE",
"107 247 CURVE SMOOTH",
"149 318 OFFCURVE",
"193 353 OFFCURVE",
"238 353 CURVE SMOOTH",
"270 353 OFFCURVE",
"286 334 OFFCURVE",
"286 296 CURVE SMOOTH",
"286 285 OFFCURVE",
"285 273 OFFCURVE",
"282 259 CURVE SMOOTH",
"279 246 OFFCURVE",
"269 212 OFFCURVE",
"251 158 CURVE SMOOTH",
"235 112 OFFCURVE",
"225 72 OFFCURVE",
"225 55 CURVE SMOOTH",
"225 7 OFFCURVE",
"255 -21 OFFCURVE",
"304 -21 CURVE SMOOTH",
"361 -21 OFFCURVE",
"432 37 OFFCURVE",
"466 101 CURVE SMOOTH"
);
}
);
width = 432;
}
);
note = n;
unicode = 006E;
},
{
glyphname = eng;
lastChange = "2021-11-27 17:30:07 +0000";
layers = (
{
hints = (
{
horizontal = 1;
place = "{-21, 34}";
type = Stem;
},
{
horizontal = 1;
place = "{353, 35}";
type = Stem;
},
{
place = "{66, 39}";
type = Stem;
},
{
place = "{286, 40}";
type = Stem;
},
{
place = "{227, 35}";
type = Stem;
}
);
layerId = "769237BE-90A6-4D5E-A4C9-331744B3656A";
paths = (
{
closed = 1;
nodes = (
"190 388 OFFCURVE",
"141 357 OFFCURVE",
"96 295 CURVE",
"102 320 OFFCURVE",
"105 342 OFFCURVE",
"105 360 CURVE SMOOTH",
"105 373 OFFCURVE",
"96 397 OFFCURVE",
"83 397 CURVE SMOOTH",
"72 397 OFFCURVE",
"66 391 OFFCURVE",
"66 378 CURVE SMOOTH",
"66 312 OFFCURVE",
"44 220 OFFCURVE",
"1 101 CURVE SMOOTH",
"-22 38 OFFCURVE",
"-33 6 OFFCURVE",
"-33 4 CURVE SMOOTH",
"-33 -4 OFFCURVE",
"-23 -15 OFFCURVE",
"-14 -15 CURVE SMOOTH",
"-9 -15 OFFCURVE",
"-4 -11 OFFCURVE",
"-1 -4 CURVE SMOOTH",
"14 32 OFFCURVE",
"25 59 OFFCURVE",
"31 78 CURVE SMOOTH",
"60 154 OFFCURVE",
"85 210 OFFCURVE",
"107 247 CURVE SMOOTH",
"149 318 OFFCURVE",
"193 353 OFFCURVE",
"238 353 CURVE SMOOTH",
"270 353 OFFCURVE",
"286 334 OFFCURVE",
"286 296 CURVE SMOOTH",
"286 285 OFFCURVE",
"285 273 OFFCURVE",
"282 259 CURVE SMOOTH",
"279 246 OFFCURVE",
"269 212 OFFCURVE",
"251 158 CURVE SMOOTH",
"161 -100 OFFCURVE",
"107 -253 OFFCURVE",
"0 -253 CURVE SMOOTH",
"-49 -253 OFFCURVE",
"-79 -222 OFFCURVE",
"-76 -175 CURVE SMOOTH",
"-72 -125 OFFCURVE",
"-41 -91 OFFCURVE",
"2 -91 CURVE SMOOTH",
"25 -91 OFFCURVE",
"36 -56 OFFCURVE",
"6 -56 CURVE SMOOTH",
"-57 -56 OFFCURVE",
"-105 -105 OFFCURVE",
"-110 -175 CURVE SMOOTH",
"-115 -239 OFFCURVE",
"-70 -287 OFFCURVE",
"-3 -287 CURVE SMOOTH",
"126 -287 OFFCURVE",
"197 -116 OFFCURVE",
"285 142 CURVE SMOOTH",
"312 219 OFFCURVE",
"326 271 OFFCURVE",
"326 298 CURVE SMOOTH",
"326 358 OFFCURVE",
"298 388 OFFCURVE",
"243 388 CURVE SMOOTH"
);
}
);
width = 350;
}
);
unicode = 014B;
},
{
glyphname = o;
layers = (
{
hints = (
{
horizontal = 1;
place = "{-22, 35}";
type = Stem;
},
{
horizontal = 1;
place = "{187, 34}";
type = Stem;
},
{
horizontal = 1;
place = "{367, 34}";
type = Stem;
},
{
place = "{16, 34}";
type = Stem;
},
{
place = "{147, 33}";
type = Stem;
},
{
place = "{315, 34}";
type = Stem;
}
);
layerId = "769237BE-90A6-4D5E-A4C9-331744B3656A";
paths = (
{
closed = 1;
nodes = (
"349 298 OFFCURVE",
"342 327 OFFCURVE",
"329 352 CURVE SMOOTH",
"312 385 OFFCURVE",
"288 401 OFFCURVE",
"257 401 CURVE SMOOTH",
"240 401 OFFCURVE",
"223 395 OFFCURVE",
"207 384 CURVE",
"200 391 OFFCURVE",
"190 395 OFFCURVE",
"179 395 CURVE SMOOTH",
"168 395 OFFCURVE",
"155 391 OFFCURVE",
"141 384 CURVE SMOOTH",
"103 365 OFFCURVE",
"72 330 OFFCURVE",
"48 277 CURVE SMOOTH",
"27 230 OFFCURVE",
"16 184 OFFCURVE",
"16 137 CURVE SMOOTH",
"16 93 OFFCURVE",
"25 57 OFFCURVE",
"44 28 CURVE SMOOTH",
"67 -5 OFFCURVE",
"99 -22 OFFCURVE",
"142 -22 CURVE SMOOTH",
"201 -22 OFFCURVE",
"251 13 OFFCURVE",
"293 82 CURVE SMOOTH",
"330 143 OFFCURVE",
"349 204 OFFCURVE",
"349 265 CURVE SMOOTH"
);
},
{
closed = 1;
nodes = (
"315 211 OFFCURVE",
"299 158 OFFCURVE",
"267 104 CURVE SMOOTH",
"230 43 OFFCURVE",
"188 13 OFFCURVE",
"141 13 CURVE SMOOTH",
"110 13 OFFCURVE",
"87 26 OFFCURVE",
"70 53 CURVE SMOOTH",
"57 76 OFFCURVE",
"50 104 OFFCURVE",
"50 138 CURVE SMOOTH",
"50 178 OFFCURVE",
"59 219 OFFCURVE",
"78 260 CURVE SMOOTH",
"99 306 OFFCURVE",
"125 337 OFFCURVE",
"156 354 CURVE SMOOTH",
"171 361 OFFCURVE",
"180 364 OFFCURVE",
"182 361 CURVE",
"159 332 OFFCURVE",
"147 298 OFFCURVE",
"147 261 CURVE SMOOTH",
"147 212 OFFCURVE",
"168 187 OFFCURVE",
"211 187 CURVE SMOOTH",
"222 187 OFFCURVE",
"227 193 OFFCURVE",
"227 204 CURVE SMOOTH",
"227 215 OFFCURVE",
"222 221 OFFCURVE",
"211 221 CURVE SMOOTH",
"190 221 OFFCURVE",
"180 235 OFFCURVE",
"180 263 CURVE SMOOTH",
"180 286 OFFCURVE",
"188 309 OFFCURVE",
"203 332 CURVE SMOOTH",
"218 355 OFFCURVE",
"236 367 OFFCURVE",
"257 367 CURVE SMOOTH",
"276 367 OFFCURVE",
"290 355 OFFCURVE",
"301 330 CURVE SMOOTH",
"310 309 OFFCURVE",
"315 287 OFFCURVE",
"315 264 CURVE SMOOTH"
);
}
);
width = 360;
}
);
note = o;
unicode = 006F;
},
{
glyphname = oslash;
layers = (
{
hints = (
{
horizontal = 1;
place = "{-22, 35}";
type = Stem;
},
{
horizontal = 1;
place = "{367, 34}";
type = Stem;
},
{
place = "{16, 34}";
type = Stem;
},
{
place = "{147, 33}";
type = Stem;
},
{
place = "{315, 34}";
type = Stem;
}
);
layerId = "769237BE-90A6-4D5E-A4C9-331744B3656A";
paths = (
{
closed = 1;
nodes = (
"198 223 LINE",
"186 228 OFFCURVE",
"180 241 OFFCURVE",
"180 263 CURVE SMOOTH",
"180 286 OFFCURVE",
"188 309 OFFCURVE",
"203 332 CURVE SMOOTH",
"218 355 OFFCURVE",
"236 367 OFFCURVE",
"257 367 CURVE SMOOTH",
"274 367 OFFCURVE",
"288 356 OFFCURVE",
"299 334 CURVE"
);
},
{
closed = 1;
nodes = (
"61 71 LINE",
"54 91 OFFCURVE",
"50 113 OFFCURVE",
"50 138 CURVE SMOOTH",
"50 178 OFFCURVE",
"59 219 OFFCURVE",
"78 260 CURVE SMOOTH",
"99 306 OFFCURVE",
"125 337 OFFCURVE",
"156 354 CURVE SMOOTH",
"171 361 OFFCURVE",
"180 364 OFFCURVE",
"182 361 CURVE",
"159 332 OFFCURVE",
"147 298 OFFCURVE",
"147 261 CURVE SMOOTH",
"147 231 OFFCURVE",
"156 210 OFFCURVE",
"175 197 CURVE"
);
},
{
closed = 1;
nodes = (
"311 297 LINE",
"314 286 OFFCURVE",
"315 275 OFFCURVE",
"315 264 CURVE SMOOTH",
"315 211 OFFCURVE",
"299 158 OFFCURVE",
"267 104 CURVE SMOOTH",
"230 43 OFFCURVE",
"188 13 OFFCURVE",
"141 13 CURVE SMOOTH",
"116 13 OFFCURVE",
"95 22 OFFCURVE",
"79 40 CURVE",
"212 187 LINE",
"222 188 OFFCURVE",
"227 193 OFFCURVE",
"227 204 CURVE"
);
},
{
closed = 1;
nodes = (
"410 407 LINE SMOOTH",
"413 410 OFFCURVE",
"415 413 OFFCURVE",
"415 417 CURVE SMOOTH",
"415 430 OFFCURVE",
"409 436 OFFCURVE",
"397 436 CURVE SMOOTH",
"393 436 OFFCURVE",
"389 434 OFFCURVE",
"386 431 CURVE SMOOTH",
"324 361 LINE",
"307 388 OFFCURVE",
"285 401 OFFCURVE",
"257 401 CURVE SMOOTH",
"240 401 OFFCURVE",
"223 395 OFFCURVE",
"207 384 CURVE",
"200 391 OFFCURVE",
"190 395 OFFCURVE",
"179 395 CURVE SMOOTH",
"168 395 OFFCURVE",
"155 391 OFFCURVE",
"141 384 CURVE SMOOTH",
"103 365 OFFCURVE",
"72 330 OFFCURVE",
"48 277 CURVE SMOOTH",
"27 230 OFFCURVE",
"16 184 OFFCURVE",
"16 137 CURVE SMOOTH",
"16 101 OFFCURVE",
"23 70 OFFCURVE",
"36 43 CURVE",
"-24 -22 LINE SMOOTH",
"-27 -25 OFFCURVE",
"-28 -29 OFFCURVE",
"-28 -33 CURVE SMOOTH",
"-28 -46 OFFCURVE",
"-22 -52 OFFCURVE",
"-10 -52 CURVE SMOOTH",
"-6 -52 OFFCURVE",
"-2 -50 OFFCURVE",
"1 -47 CURVE SMOOTH",
"55 14 LINE",
"77 -10 OFFCURVE",
"106 -22 OFFCURVE",
"142 -22 CURVE SMOOTH",
"201 -22 OFFCURVE",
"251 13 OFFCURVE",
"293 82 CURVE SMOOTH",
"330 143 OFFCURVE",
"349 204 OFFCURVE",
"349 265 CURVE SMOOTH",
"349 286 OFFCURVE",
"346 307 OFFCURVE",
"339 328 CURVE"
);
}
);
width = 360;
}
);
note = oslash;
unicode = 00F8;
},
{
glyphname = oe;
layers = (
{
hints = (
{
horizontal = 1;
place = "{-26, 34}";
type = Stem;
},
{
horizontal = 1;
place = "{178, 34}";
type = Stem;
},
{
horizontal = 1;
place = "{353, 34}";
type = Stem;
},
{
place = "{16, 34}";
type = Stem;
},
{
place = "{147, 33}";
type = Stem;
},
{
place = "{312, 33}";
type = Stem;
},
{
place = "{586, 35}";
type = Stem;
},
{
horizontal = 1;
place = "{-22, 35}";
type = Stem;
},
{
horizontal = 1;
place = "{187, 34}";
type = Stem;
},
{
horizontal = 1;
place = "{367, 34}";
type = Stem;
},
{
place = "{315, 33}";
type = Stem;
}
);
layerId = "769237BE-90A6-4D5E-A4C9-331744B3656A";
paths = (
{
closed = 1;
nodes = (
"315 211 OFFCURVE",
"299 158 OFFCURVE",
"267 104 CURVE SMOOTH",
"230 43 OFFCURVE",
"188 13 OFFCURVE",
"141 13 CURVE SMOOTH",
"110 13 OFFCURVE",
"87 26 OFFCURVE",
"70 53 CURVE SMOOTH",
"57 76 OFFCURVE",
"50 104 OFFCURVE",
"50 138 CURVE SMOOTH",
"50 178 OFFCURVE",
"59 219 OFFCURVE",
"78 260 CURVE SMOOTH",
"99 306 OFFCURVE",
"125 337 OFFCURVE",
"156 354 CURVE SMOOTH",
"171 361 OFFCURVE",
"180 364 OFFCURVE",
"182 361 CURVE",
"159 332 OFFCURVE",
"147 298 OFFCURVE",
"147 261 CURVE SMOOTH",
"147 212 OFFCURVE",
"168 187 OFFCURVE",
"211 187 CURVE SMOOTH",
"222 187 OFFCURVE",
"227 193 OFFCURVE",
"227 204 CURVE SMOOTH",
"227 215 OFFCURVE",
"222 221 OFFCURVE",
"211 221 CURVE SMOOTH",
"190 221 OFFCURVE",
"180 235 OFFCURVE",
"180 263 CURVE SMOOTH",
"180 286 OFFCURVE",
"188 309 OFFCURVE",
"203 332 CURVE SMOOTH",
"218 355 OFFCURVE",
"236 367 OFFCURVE",
"257 367 CURVE SMOOTH",
"276 367 OFFCURVE",
"290 355 OFFCURVE",
"301 330 CURVE SMOOTH",
"310 309 OFFCURVE",
"315 287 OFFCURVE",
"315 264 CURVE SMOOTH"
);
},
{
closed = 1;
nodes = (
"673 106 OFFCURVE",
"674 109 OFFCURVE",
"674 112 CURVE SMOOTH",
"674 124 OFFCURVE",
"668 130 OFFCURVE",
"657 130 CURVE SMOOTH",
"652 130 OFFCURVE",
"648 127 OFFCURVE",
"644 122 CURVE SMOOTH",
"615 83 OFFCURVE",
"590 56 OFFCURVE",
"570 41 CURVE SMOOTH",
"541 19 OFFCURVE",
"506 8 OFFCURVE",
"467 8 CURVE SMOOTH",
"387 8 OFFCURVE",
"345 62 OFFCURVE",
"345 143 CURVE SMOOTH",
"345 158 OFFCURVE",
"347 173 OFFCURVE",
"350 188 CURVE",
"369 181 OFFCURVE",
"391 178 OFFCURVE",
"418 178 CURVE SMOOTH",
"469 178 OFFCURVE",
"514 189 OFFCURVE",
"553 210 CURVE SMOOTH",
"598 235 OFFCURVE",
"621 267 OFFCURVE",
"621 308 CURVE SMOOTH",
"621 359 OFFCURVE",
"582 387 OFFCURVE",
"529 387 CURVE SMOOTH",
"497 387 OFFCURVE",
"465 378 OFFCURVE",
"433 360 CURVE SMOOTH",
"398 340 OFFCURVE",
"369 313 OFFCURVE",
"348 279 CURVE",
"346 310 OFFCURVE",
"338 337 OFFCURVE",
"325 359 CURVE SMOOTH",
"308 387 OFFCURVE",
"286 401 OFFCURVE",
"257 401 CURVE SMOOTH",
"240 401 OFFCURVE",
"223 395 OFFCURVE",
"207 384 CURVE",
"200 391 OFFCURVE",
"190 395 OFFCURVE",
"179 395 CURVE SMOOTH",
"168 395 OFFCURVE",
"155 391 OFFCURVE",
"141 384 CURVE SMOOTH",
"103 365 OFFCURVE",
"72 330 OFFCURVE",
"48 277 CURVE SMOOTH",
"27 230 OFFCURVE",
"16 184 OFFCURVE",
"16 137 CURVE SMOOTH",
"16 93 OFFCURVE",
"25 57 OFFCURVE",
"44 28 CURVE SMOOTH",
"67 -5 OFFCURVE",
"99 -22 OFFCURVE",
"142 -22 CURVE SMOOTH",
"212 -22 OFFCURVE",
"269 25 OFFCURVE",
"312 118 CURVE",
"321 31 OFFCURVE",
"378 -26 OFFCURVE",
"467 -26 CURVE SMOOTH",
"508 -26 OFFCURVE",
"548 -13 OFFCURVE",
"586 12 CURVE SMOOTH",
"621 35 OFFCURVE",
"650 66 OFFCURVE",
"672 103 CURVE"
);
},
{
closed = 1;
nodes = (
"586 280 OFFCURVE",
"567 256 OFFCURVE",
"528 237 CURVE SMOOTH",
"495 220 OFFCURVE",
"457 212 OFFCURVE",
"415 212 CURVE SMOOTH",
"392 212 OFFCURVE",
"374 215 OFFCURVE",
"360 221 CURVE",
"374 258 OFFCURVE",
"395 288 OFFCURVE",
"424 312 CURVE SMOOTH",
"455 339 OFFCURVE",
"489 353 OFFCURVE",
"526 353 CURVE SMOOTH",
"566 353 OFFCURVE",
"586 339 OFFCURVE",
"586 310 CURVE SMOOTH"
);
}
);
width = 636;
}
);
note = oe;
unicode = 0153;
},
{
glyphname = p;
lastChange = "2021-11-28 05:37:57 +0000";
layers = (
{
hints = (
{
horizontal = 1;
place = "{-259, 33}";
type = Stem;
},
{
horizontal = 1;
place = "{-32, 33}";
type = Stem;
},
{
horizontal = 1;
place = "{340, 34}";
type = Stem;
},
{
place = "{-101, 36}";
type = Stem;
},
{
place = "{338, 35}";
type = Stem;
},
{
horizontal = 1;
place = "{394, 32}";
type = Stem;
}
);
layerId = "769237BE-90A6-4D5E-A4C9-331744B3656A";
paths = (
{
closed = 1;
nodes = (
"367 267 OFFCURVE",
"357 302 OFFCURVE",
"336 329 CURVE SMOOTH",
"313 359 OFFCURVE",
"282 374 OFFCURVE",
"241 374 CURVE SMOOTH",
"194 374 OFFCURVE",
"151 352 OFFCURVE",
"114 309 CURVE",
"117 324 OFFCURVE",
"121 337 OFFCURVE",
"124 348 CURVE SMOOTH",
"132 379 OFFCURVE",
"137 394 OFFCURVE",
"140 394 CURVE SMOOTH",
"149 394 OFFCURVE",
"153 398 OFFCURVE",
"153 406 CURVE SMOOTH",
"153 417 OFFCURVE",
"146 426 OFFCURVE",
"135 426 CURVE SMOOTH",
"127 426 OFFCURVE",
"120 421 OFFCURVE",
"113 410 CURVE SMOOTH",
"98 387 OFFCURVE",
"84 337 OFFCURVE",
"70 261 CURVE SMOOTH",
"63 222 OFFCURVE",
"43 182 OFFCURVE",
"24 146 CURVE SMOOTH",
"-27 39 OFFCURVE",
"-59 -33 OFFCURVE",
"-73 -71 CURVE SMOOTH",
"-96 -131 OFFCURVE",
"-107 -177 OFFCURVE",
"-107 -208 CURVE SMOOTH",
"-107 -242 OFFCURVE",
"-94 -259 OFFCURVE",
"-69 -259 CURVE SMOOTH",
"-19 -259 OFFCURVE",
"23 -177 OFFCURVE",
"56 -12 CURVE",
"67 -25 OFFCURVE",
"88 -32 OFFCURVE",
"118 -32 CURVE SMOOTH",
"182 -32 OFFCURVE",
"239 -5 OFFCURVE",
"290 49 CURVE SMOOTH",
"341 103 OFFCURVE",
"367 162 OFFCURVE",
"367 226 CURVE SMOOTH"
);
},
{
closed = 1;
nodes = (
"332 169 OFFCURVE",
"309 118 OFFCURVE",
"263 71 CURVE SMOOTH",
"218 24 OFFCURVE",
"167 1 OFFCURVE",
"111 1 CURVE SMOOTH",
"96 1 OFFCURVE",
"86 4 OFFCURVE",
"83 11 CURVE SMOOTH",
"78 21 OFFCURVE",
"72 26 OFFCURVE",
"65 26 CURVE SMOOTH",
"64 26 LINE",
"73 71 OFFCURVE",
"80 116 OFFCURVE",
"87 160 CURVE SMOOTH",
"94 199 OFFCURVE",
"97 219 OFFCURVE",
"98 220 CURVE",
"109 251 OFFCURVE",
"129 278 OFFCURVE",
"156 303 CURVE SMOOTH",
"184 328 OFFCURVE",
"213 340 OFFCURVE",
"242 340 CURVE SMOOTH",
"272 340 OFFCURVE",
"295 328 OFFCURVE",
"311 305 CURVE SMOOTH",
"325 284 OFFCURVE",
"332 258 OFFCURVE",
"332 225 CURVE SMOOTH"
);
},
{
closed = 1;
nodes = (
"27 5 OFFCURVE",
"10 -74 OFFCURVE",
"-8 -129 CURVE SMOOTH",
"-18 -159 OFFCURVE",
"-29 -183 OFFCURVE",
"-41 -202 CURVE SMOOTH",
"-51 -218 OFFCURVE",
"-59 -226 OFFCURVE",
"-65 -226 CURVE SMOOTH",
"-70 -226 OFFCURVE",
"-71 -219 OFFCURVE",
"-71 -203 CURVE SMOOTH",
"-70 -182 OFFCURVE",
"-63 -154 OFFCURVE",
"-50 -117 CURVE SMOOTH",
"-30 -61 OFFCURVE",
"1 13 OFFCURVE",
"43 106 CURVE"
);
}
);
width = 374;
}
);
note = p;
unicode = 0070;
},
{
glyphname = thorn;
layers = (
{
hints = (
{
horizontal = 1;
place = "{51, 34}";
type = Stem;
},
{
horizontal = 1;
place = "{472, 28}";
type = Stem;
},
{
place = "{530, 35}";
type = Stem;
},
{
horizontal = 1;
place = "{470, 27}";
type = Stem;
}
);
layerId = "769237BE-90A6-4D5E-A4C9-331744B3656A";
paths = (
{
closed = 1;
nodes = (
"565 358 OFFCURVE",
"545 404 OFFCURVE",
"505 439 CURVE SMOOTH",
"469 470 OFFCURVE",
"424 490 OFFCURVE",
"366 497 CURVE",
"370 503 OFFCURVE",
"416 620 OFFCURVE",
"458 693 CURVE SMOOTH",
"464 704 OFFCURVE",
"480 728 OFFCURVE",
"480 733 CURVE SMOOTH",
"480 742 OFFCURVE",
"471 747 OFFCURVE",
"458 747 CURVE SMOOTH",
"439 747 OFFCURVE",
"362 566 OFFCURVE",
"332 500 CURVE",
"302 500 LINE SMOOTH",
"274 500 OFFCURVE",
"283 463 OFFCURVE",
"302 472 CURVE SMOOTH",
"305 473 OFFCURVE",
"315 474 OFFCURVE",
"317 473 CURVE",
"270 365 OFFCURVE",
"224 221 OFFCURVE",
"164 93 CURVE",
"150 98 OFFCURVE",
"138 105 OFFCURVE",
"128 115 CURVE SMOOTH",
"124 119 OFFCURVE",
"120 121 OFFCURVE",
"114 121 CURVE SMOOTH",
"106 121 OFFCURVE",
"100 109 OFFCURVE",
"100 100 CURVE SMOOTH",
"100 85 OFFCURVE",
"117 72 OFFCURVE",
"150 61 CURVE",
"124 9 OFFCURVE",
"85 -59 OFFCURVE",
"58 -90 CURVE SMOOTH",
"19 -137 OFFCURVE",
"-26 -167 OFFCURVE",
"-77 -180 CURVE SMOOTH",
"-86 -183 OFFCURVE",
"-91 -188 OFFCURVE",
"-91 -195 CURVE SMOOTH",
"-91 -208 OFFCURVE",
"-85 -214 OFFCURVE",
"-72 -214 CURVE SMOOTH",
"-27 -214 OFFCURVE",
"23 -181 OFFCURVE",
"78 -115 CURVE SMOOTH",
"116 -69 OFFCURVE",
"156 5 OFFCURVE",
"180 54 CURVE",
"195 51 OFFCURVE",
"208 51 OFFCURVE",
"223 51 CURVE SMOOTH",
"309 51 OFFCURVE",
"377 65 OFFCURVE",
"443 105 CURVE SMOOTH",
"519 152 OFFCURVE",
"565 222 OFFCURVE",
"565 303 CURVE SMOOTH"
);
},
{
closed = 1;
nodes = (
"530 235 OFFCURVE",
"496 180 OFFCURVE",
"429 138 CURVE SMOOTH",
"372 103 OFFCURVE",
"309 85 OFFCURVE",
"233 85 CURVE SMOOTH",
"224 85 OFFCURVE",
"207 87 OFFCURVE",
"197 88 CURVE",
"237 167 OFFCURVE",
"296 356 OFFCURVE",
"352 470 CURVE",
"407 464 OFFCURVE",
"443 449 OFFCURVE",
"475 424 CURVE SMOOTH",
"512 394 OFFCURVE",
"530 355 OFFCURVE",
"530 306 CURVE SMOOTH"
);
}
);
width = 636;
}
);
note = thorn;
unicode = 00FE;
},
{
glyphname = q;
lastChange = "2021-11-28 05:37:33 +0000";
layers = (
{
hints = (
{
horizontal = 1;
place = "{-312, 33}";
type = Stem;
},
{
horizontal = 1;
place = "{-19, 34}";
type = Stem;
},
{
horizontal = 1;
place = "{230, 34}";
type = Stem;
},
{
horizontal = 1;
place = "{360, 34}";
type = Stem;
},
{
place = "{16, 35}";
type = Stem;
},
{
place = "{163, 34}";
type = Stem;
},
{
place = "{306, 33}";
type = Stem;
},
{
horizontal = 1;
place = "{3, 35}";
type = Stem;
},
{
place = "{310, 34}";
type = Stem;
}
);
layerId = "769237BE-90A6-4D5E-A4C9-331744B3656A";
paths = (
{
closed = 1;
nodes = (
"422 126 OFFCURVE",
"416 132 OFFCURVE",
"405 132 CURVE SMOOTH",
"400 132 OFFCURVE",
"390 115 OFFCURVE",
"383 104 CURVE SMOOTH",
"356 64 OFFCURVE",
"319 43 OFFCURVE",
"256 38 CURVE",
"288 137 OFFCURVE",
"314 209 OFFCURVE",
"334 254 CURVE SMOOTH",
"336 258 OFFCURVE",
"334 262 OFFCURVE",
"329 267 CURVE",
"339 279 OFFCURVE",
"344 292 OFFCURVE",
"344 305 CURVE SMOOTH",
"344 361 OFFCURVE",
"304 394 OFFCURVE",
"248 394 CURVE SMOOTH",
"189 394 OFFCURVE",
"134 362 OFFCURVE",
"85 297 CURVE SMOOTH",
"39 236 OFFCURVE",
"16 175 OFFCURVE",
"16 114 CURVE SMOOTH",
"16 77 OFFCURVE",
"24 47 OFFCURVE",
"39 23 CURVE SMOOTH",
"57 -5 OFFCURVE",
"84 -19 OFFCURVE",
"120 -19 CURVE SMOOTH",
"156 -19 OFFCURVE",
"190 1 OFFCURVE",
"221 41 CURVE",
"182 -78 OFFCURVE",
"163 -168 OFFCURVE",
"163 -227 CURVE SMOOTH",
"163 -284 OFFCURVE",
"180 -312 OFFCURVE",
"215 -312 CURVE SMOOTH",
"254 -312 OFFCURVE",
"285 -282 OFFCURVE",
"310 -221 CURVE SMOOTH",
"329 -173 OFFCURVE",
"339 -127 OFFCURVE",
"339 -83 CURVE SMOOTH",
"339 -44 OFFCURVE",
"328 -12 OFFCURVE",
"302 19 CURVE",
"331 19 OFFCURVE",
"387 48 OFFCURVE",
"417 101 CURVE SMOOTH",
"420 106 OFFCURVE",
"422 112 OFFCURVE",
"422 118 CURVE SMOOTH"
);
},
{
closed = 1;
nodes = (
"310 289 OFFCURVE",
"282 264 OFFCURVE",
"266 264 CURVE SMOOTH",
"263 264 OFFCURVE",
"255 267 OFFCURVE",
"251 267 CURVE SMOOTH",
"240 267 OFFCURVE",
"234 261 OFFCURVE",
"234 250 CURVE SMOOTH",
"234 237 OFFCURVE",
"245 230 OFFCURVE",
"268 230 CURVE SMOOTH",
"275 230 OFFCURVE",
"281 231 OFFCURVE",
"287 234 CURVE",
"288 234 LINE",
"258 170 OFFCURVE",
"236 127 OFFCURVE",
"222 104 CURVE SMOOTH",
"185 45 OFFCURVE",
"152 15 OFFCURVE",
"123 15 CURVE SMOOTH",
"75 15 OFFCURVE",
"51 48 OFFCURVE",
"51 113 CURVE SMOOTH",
"51 166 OFFCURVE",
"71 219 OFFCURVE",
"110 273 CURVE SMOOTH",
"153 331 OFFCURVE",
"199 360 OFFCURVE",
"248 360 CURVE SMOOTH",
"289 360 OFFCURVE",
"310 342 OFFCURVE",
"310 305 CURVE SMOOTH"
);
},
{
closed = 1;
nodes = (
"306 -113 OFFCURVE",
"301 -142 OFFCURVE",
"291 -176 CURVE SMOOTH",
"268 -248 OFFCURVE",
"234 -279 OFFCURVE",
"217 -279 CURVE SMOOTH",
"204 -279 OFFCURVE",
"197 -262 OFFCURVE",
"197 -227 CURVE SMOOTH",
"197 -179 OFFCURVE",
"211 -110 OFFCURVE",
"238 -20 CURVE SMOOTH",
"243 -5 OFFCURVE",
"245 3 OFFCURVE",
"245 3 CURVE",
"286 1 OFFCURVE",
"306 -29 OFFCURVE",
"306 -88 CURVE SMOOTH"
);
}
);
width = 383;
}
);
note = q;
unicode = 0071;
},
{
glyphname = r;
lastChange = "2021-11-28 06:12:33 +0000";
layers = (
{
hints = (
{
horizontal = 1;
place = "{-23, 34}";
type = Stem;
},
{
horizontal = 1;
place = "{276, 35}";
type = Stem;
},
{
place = "{98, 46}";
type = Stem;
},
{
place = "{192, 35}";
type = Stem;
}
);
layerId = "769237BE-90A6-4D5E-A4C9-331744B3656A";
paths = (
{
closed = 1;
nodes = (
"415 104 OFFCURVE",
"420 119 OFFCURVE",
"420 126 CURVE SMOOTH",
"420 137 OFFCURVE",
"416 138 OFFCURVE",
"410 138 CURVE SMOOTH",
"400 138 OFFCURVE",
"385 114 OFFCURVE",
"379 104 CURVE SMOOTH",
"350 59 OFFCURVE",
"313 11 OFFCURVE",
"269 11 CURVE SMOOTH",
"241 11 OFFCURVE",
"227 32 OFFCURVE",
"227 75 CURVE SMOOTH",
"227 104 OFFCURVE",
"234 135 OFFCURVE",
"247 168 CURVE SMOOTH",
"267 218 OFFCURVE",
"294 271 OFFCURVE",
"327 328 CURVE",
"328 331 OFFCURVE",
"329 333 OFFCURVE",
"329 336 CURVE SMOOTH",
"329 348 OFFCURVE",
"323 354 OFFCURVE",
"310 354 CURVE SMOOTH",
"309 354 OFFCURVE",
"304 351 OFFCURVE",
"297 346 CURVE SMOOTH",
"262 323 OFFCURVE",
"233 311 OFFCURVE",
"210 311 CURVE SMOOTH",
"178 311 OFFCURVE",
"144 330 OFFCURVE",
"139 358 CURVE",
"142 379 OFFCURVE",
"144 398 OFFCURVE",
"144 413 CURVE SMOOTH",
"144 446 OFFCURVE",
"136 462 OFFCURVE",
"120 462 CURVE SMOOTH",
"105 462 OFFCURVE",
"98 446 OFFCURVE",
"98 413 CURVE SMOOTH",
"98 393 OFFCURVE",
"100 375 OFFCURVE",
"104 359 CURVE",
"85 271 OFFCURVE",
"39 167 OFFCURVE",
"0 104 CURVE",
"0 93 OFFCURVE",
"3 89 OFFCURVE",
"15 89 CURVE SMOOTH",
"19 89 OFFCURVE",
"28 90 OFFCURVE",
"34 101 CURVE SMOOTH",
"65 157 OFFCURVE",
"111 249 OFFCURVE",
"123 316 CURVE",
"149 288 OFFCURVE",
"176 276 OFFCURVE",
"209 276 CURVE SMOOTH",
"226 276 OFFCURVE",
"244 280 OFFCURVE",
"263 287 CURVE",
"216 200 OFFCURVE",
"192 128 OFFCURVE",
"192 72 CURVE SMOOTH",
"192 11 OFFCURVE",
"224 -23 OFFCURVE",
"268 -23 CURVE SMOOTH",
"333 -23 OFFCURVE",
"377 35 OFFCURVE",
"413 101 CURVE SMOOTH"
);
}
);
width = 379;
}
);
note = r;
unicode = 0072;
},
{
glyphname = s;
layers = (
{
hints = (
{
horizontal = 1;
place = "{-33, 35}";
type = Stem;
},
{
horizontal = 1;
place = "{184, 34}";
type = Stem;
},
{
horizontal = 1;
place = "{459, 35}";
type = Stem;
},
{
place = "{-4, 35}";
type = Stem;
},
{
place = "{159, 33}";
type = Stem;
},
{
place = "{276, 34}";
type = Stem;
},
{
place = "{235, 31}";
type = Stem;
},
{
place = "{150, 34}";
type = Stem;
}
);
layerId = "769237BE-90A6-4D5E-A4C9-331744B3656A";
paths = (
{
closed = 1;
nodes = (
"310 181 OFFCURVE",
"298 215 OFFCURVE",
"275 250 CURVE SMOOTH",
"212 338 LINE",
"250 392 LINE SMOOTH",
"261 407 OFFCURVE",
"266 424 OFFCURVE",
"266 445 CURVE SMOOTH",
"266 478 OFFCURVE",
"250 494 OFFCURVE",
"219 494 CURVE SMOOTH",
"198 494 OFFCURVE",
"182 483 OFFCURVE",
"171 460 CURVE SMOOTH",
"163 443 OFFCURVE",
"159 424 OFFCURVE",
"159 402 CURVE SMOOTH",
"159 383 OFFCURVE",
"163 363 OFFCURVE",
"171 342 CURVE",
"126 289 OFFCURVE",
"90 243 OFFCURVE",
"63 205 CURVE",
"22 181 OFFCURVE",
"-4 133 OFFCURVE",
"-4 85 CURVE SMOOTH",
"-4 48 OFFCURVE",
"10 18 OFFCURVE",
"39 -4 CURVE SMOOTH",
"64 -23 OFFCURVE",
"96 -33 OFFCURVE",
"133 -33 CURVE SMOOTH",
"183 -33 OFFCURVE",
"225 -15 OFFCURVE",
"259 20 CURVE SMOOTH",
"293 55 OFFCURVE",
"310 98 OFFCURVE",
"310 148 CURVE SMOOTH"
);
},
{
closed = 1;
nodes = (
"215 394 OFFCURVE",
"207 383 OFFCURVE",
"197 372 CURVE",
"194 383 OFFCURVE",
"192 392 OFFCURVE",
"192 401 CURVE SMOOTH",
"192 440 OFFCURVE",
"201 459 OFFCURVE",
"219 459 CURVE SMOOTH",
"230 459 OFFCURVE",
"235 454 OFFCURVE",
"235 444 CURVE SMOOTH",
"235 435 OFFCURVE",
"230 421 OFFCURVE",
"221 404 CURVE SMOOTH"
);
},
{
closed = 1;
nodes = (
"276 107 OFFCURVE",
"262 72 OFFCURVE",
"235 44 CURVE SMOOTH",
"208 16 OFFCURVE",
"173 2 OFFCURVE",
"132 2 CURVE SMOOTH",
"69 2 OFFCURVE",
"35 32 OFFCURVE",
"31 92 CURVE",
"63 115 OFFCURVE",
"90 153 OFFCURVE",
"89 181 CURVE",
"96 183 OFFCURVE",
"103 184 OFFCURVE",
"112 184 CURVE SMOOTH",
"137 184 OFFCURVE",
"150 172 OFFCURVE",
"150 149 CURVE SMOOTH",
"150 141 OFFCURVE",
"138 125 OFFCURVE",
"138 117 CURVE SMOOTH",
"138 105 OFFCURVE",
"143 99 OFFCURVE",
"152 99 CURVE SMOOTH",
"159 99 OFFCURVE",
"165 102 OFFCURVE",
"170 109 CURVE SMOOTH",
"179 122 OFFCURVE",
"184 136 OFFCURVE",
"184 149 CURVE SMOOTH",
"184 192 OFFCURVE",
"161 215 OFFCURVE",
"114 218 CURVE",
"188 310 LINE",
"244 234 LINE SMOOTH",
"265 203 OFFCURVE",
"276 175 OFFCURVE",
"276 148 CURVE SMOOTH"
);
}
);
width = 365;
}
);
note = s;
unicode = 0073;
},
{
glyphname = germandbls;
lastChange = "2021-11-27 17:21:45 +0000";
layers = (
{
hints = (
{
horizontal = 1;
place = "{-65, 34}";
type = Stem;
},
{
horizontal = 1;
place = "{343, 56}";
type = Stem;
},
{
horizontal = 1;
place = "{644, 28}";
type = Stem;
},
{
place = "{615, 35}";
type = Stem;
},
{
horizontal = 1;
place = "{-335, 34}";
type = Stem;
},
{
horizontal = 1;
place = "{248, 34}";
type = Stem;
},
{
horizontal = 1;
place = "{687, 35}";
type = Stem;
},
{
place = "{540, 41}";
type = Stem;
},
{
horizontal = 1;
place = "{261, 33}";
type = Stem;
},
{
place = "{-159, 28}";
type = Stem;
},
{
horizontal = 1;
place = "{-50, 35}";
type = Stem;
},
{
horizontal = 1;
place = "{167, 34}";
type = Stem;
},
{
horizontal = 1;
place = "{442, 35}";
type = Stem;
},
{
place = "{206, 35}";
type = Stem;
},
{
place = "{369, 33}";
type = Stem;
},
{
place = "{486, 34}";
type = Stem;
},
{
place = "{445, 31}";
type = Stem;
},
{
place = "{360, 34}";
type = Stem;
}
);
layerId = "769237BE-90A6-4D5E-A4C9-331744B3656A";
paths = (
{
closed = 1;
nodes = (
"320 338 OFFCURVE",
"307 369 OFFCURVE",
"307 393 CURVE SMOOTH",
"307 411 OFFCURVE",
"318 436 OFFCURVE",
"370 445 CURVE",
"397 447 OFFCURVE",
"420 529 OFFCURVE",
"420 576 CURVE SMOOTH",
"420 672 OFFCURVE",
"371 722 OFFCURVE",
"313 722 CURVE SMOOTH",
"207 722 OFFCURVE",
"145 603 OFFCURVE",
"99 445 CURVE",
"85 445 LINE SMOOTH",
"61 445 OFFCURVE",
"46 444 OFFCURVE",
"38 444 CURVE SMOOTH",
"23 444 OFFCURVE",
"16 438 OFFCURVE",
"16 427 CURVE SMOOTH",
"16 414 OFFCURVE",
"28 411 OFFCURVE",
"44 411 CURVE SMOOTH",
"51 411 OFFCURVE",
"82 411 OFFCURVE",
"89 411 CURVE",
"68 329 LINE SMOOTH",
"13 114 OFFCURVE",
"-43 -183 OFFCURVE",
"-78 -241 CURVE SMOOTH",
"-105 -286 OFFCURVE",
"-165 -329 OFFCURVE",
"-206 -277 CURVE SMOOTH",
"-219 -259 OFFCURVE",
"-225 -236 OFFCURVE",
"-221 -217 CURVE SMOOTH",
"-216 -193 OFFCURVE",
"-244 -195 OFFCURVE",
"-249 -221 CURVE SMOOTH",
"-256 -251 OFFCURVE",
"-245 -286 OFFCURVE",
"-223 -310 CURVE SMOOTH",
"-204 -328 OFFCURVE",
"-181 -335 OFFCURVE",
"-161 -335 CURVE SMOOTH",
"-121 -335 OFFCURVE",
"-83 -306 OFFCURVE",
"-58 -267 CURVE SMOOTH",
"-11 -195 OFFCURVE",
"54 115 OFFCURVE",
"105 326 CURVE SMOOTH",
"152 523 OFFCURVE",
"204 687 OFFCURVE",
"312 687 CURVE SMOOTH",
"362 687 OFFCURVE",
"385 643 OFFCURVE",
"385 563 CURVE SMOOTH",
"385 520 OFFCURVE",
"374 492 OFFCURVE",
"364 471 CURVE",
"305 470 OFFCURVE",
"269 436 OFFCURVE",
"269 390 CURVE SMOOTH",
"269 351 OFFCURVE",
"285 324 OFFCURVE",
"308 293 CURVE SMOOTH",
"327 268 OFFCURVE",
"345 242 OFFCURVE",
"364 217 CURVE SMOOTH",
"385 186 OFFCURVE",
"396 158 OFFCURVE",
"396 131 CURVE SMOOTH",
"396 90 OFFCURVE",
"382 55 OFFCURVE",
"355 27 CURVE SMOOTH",
"328 -1 OFFCURVE",
"293 -15 OFFCURVE",
"252 -15 CURVE SMOOTH",
"189 -15 OFFCURVE",
"151 21 OFFCURVE",
"151 75 CURVE SMOOTH",
"151 120 OFFCURVE",
"182 167 OFFCURVE",
"232 167 CURVE SMOOTH",
"257 167 OFFCURVE",
"270 155 OFFCURVE",
"270 132 CURVE SMOOTH",
"270 124 OFFCURVE",
"258 108 OFFCURVE",
"258 100 CURVE SMOOTH",
"258 88 OFFCURVE",
"263 82 OFFCURVE",
"272 82 CURVE SMOOTH",
"279 82 OFFCURVE",
"285 85 OFFCURVE",
"290 92 CURVE SMOOTH",
"299 105 OFFCURVE",
"304 119 OFFCURVE",
"304 132 CURVE SMOOTH",
"304 175 OFFCURVE",
"279 201 OFFCURVE",
"234 201 CURVE SMOOTH",
"166 201 OFFCURVE",
"116 135 OFFCURVE",
"116 68 CURVE SMOOTH",
"116 31 OFFCURVE",
"130 1 OFFCURVE",
"159 -21 CURVE SMOOTH",
"184 -40 OFFCURVE",
"216 -50 OFFCURVE",
"253 -50 CURVE SMOOTH",
"303 -50 OFFCURVE",
"345 -32 OFFCURVE",
"379 3 CURVE SMOOTH",
"413 38 OFFCURVE",
"430 81 OFFCURVE",
"430 131 CURVE SMOOTH",
"430 164 OFFCURVE",
"419 199 OFFCURVE",
"395 233 CURVE SMOOTH",
"332 321 LINE SMOOTH"
);
}
);
width = 485;
}
);
note = germandbls;
unicode = 00DF;
},
{
glyphname = t;
lastChange = "2021-11-28 05:36:09 +0000";
layers = (
{
hints = (
{
horizontal = 1;
place = "{-26, 32}";
type = Stem;
},
{
horizontal = 1;
place = "{353, 34}";
type = Stem;
},
{
horizontal = 1;
place = "{567, 42}";
type = Stem;
},
{
place = "{8, 36}";
type = Stem;
},
{
place = "{207, 35}";
type = Stem;
}
);
layerId = "769237BE-90A6-4D5E-A4C9-331744B3656A";
paths = (
{
closed = 1;
nodes = (
"253 102 OFFCURVE",
"258 115 OFFCURVE",
"258 118 CURVE SMOOTH",
"258 129 OFFCURVE",
"254 133 OFFCURVE",
"246 133 CURVE SMOOTH",
"241 133 OFFCURVE",
"231 126 OFFCURVE",
"218 104 CURVE SMOOTH",
"185 48 OFFCURVE",
"145 6 OFFCURVE",
"93 6 CURVE SMOOTH",
"54 6 OFFCURVE",
"38 46 OFFCURVE",
"44 125 CURVE",
"100 201 OFFCURVE",
"145 277 OFFCURVE",
"179 353 CURVE",
"244 353 LINE SMOOTH",
"255 353 OFFCURVE",
"261 359 OFFCURVE",
"261 370 CURVE SMOOTH",
"261 381 OFFCURVE",
"255 387 OFFCURVE",
"244 387 CURVE SMOOTH",
"195 387 LINE",
"211 427 OFFCURVE",
"223 462 OFFCURVE",
"232 493 CURVE SMOOTH",
"239 516 OFFCURVE",
"242 537 OFFCURVE",
"242 555 CURVE SMOOTH",
"242 591 OFFCURVE",
"231 609 OFFCURVE",
"208 609 CURVE SMOOTH",
"179 609 OFFCURVE",
"150 580 OFFCURVE",
"120 522 CURVE SMOOTH",
"100 484 OFFCURVE",
"81 439 OFFCURVE",
"64 387 CURVE",
"21 387 LINE SMOOTH",
"10 387 OFFCURVE",
"5 381 OFFCURVE",
"5 370 CURVE SMOOTH",
"5 359 OFFCURVE",
"10 353 OFFCURVE",
"21 353 CURVE SMOOTH",
"53 353 LINE",
"22 249 OFFCURVE",
"7 162 OFFCURVE",
"8 91 CURVE SMOOTH",
"9 13 OFFCURVE",
"35 -26 OFFCURVE",
"85 -26 CURVE SMOOTH",
"156 -26 OFFCURVE",
"212 25 OFFCURVE",
"251 99 CURVE SMOOTH"
);
},
{
closed = 1;
nodes = (
"191 469 OFFCURVE",
"177 433 OFFCURVE",
"156 387 CURVE",
"101 387 LINE",
"118 438 OFFCURVE",
"136 480 OFFCURVE",
"153 513 CURVE SMOOTH",
"172 549 OFFCURVE",
"187 567 OFFCURVE",
"198 567 CURVE SMOOTH",
"204 567 OFFCURVE",
"207 560 OFFCURVE",
"207 545 CURVE SMOOTH",
"207 531 OFFCURVE",
"204 514 OFFCURVE",
"199 495 CURVE SMOOTH"
);
},
{
closed = 1;
nodes = (
"140 353 LINE",
"112 296 OFFCURVE",
"83 242 OFFCURVE",
"52 191 CURVE",
"60 245 OFFCURVE",
"73 299 OFFCURVE",
"90 353 CURVE"
);
}
);
width = 218;
}
);
note = t;
unicode = 0074;
},
{
glyphname = u;
lastChange = "2021-11-28 05:34:30 +0000";
layers = (
{
hints = (
{
horizontal = 1;
place = "{-19, 34}";
type = Stem;
},
{
place = "{13, 34}";
type = Stem;
},
{
place = "{83, 35}";
type = Stem;
},
{
place = "{283, 34}";
type = Stem;
}
);
layerId = "769237BE-90A6-4D5E-A4C9-331744B3656A";
paths = (
{
closed = 1;
nodes = (
"514 104 OFFCURVE",
"518 115 OFFCURVE",
"518 119 CURVE SMOOTH",
"518 124 OFFCURVE",
"515 127 OFFCURVE",
"504 127 CURVE SMOOTH",
"496 127 OFFCURVE",
"486 116 OFFCURVE",
"478 104 CURVE SMOOTH",
"442 48 OFFCURVE",
"405 13 OFFCURVE",
"364 13 CURVE SMOOTH",
"328 13 OFFCURVE",
"312 54 OFFCURVE",
"317 136 CURVE SMOOTH",
"320 186 OFFCURVE",
"332 250 OFFCURVE",
"351 329 CURVE SMOOTH",
"355 346 OFFCURVE",
"357 355 OFFCURVE",
"357 358 CURVE SMOOTH",
"357 369 OFFCURVE",
"351 375 OFFCURVE",
"339 375 CURVE SMOOTH",
"333 375 OFFCURVE",
"329 372 OFFCURVE",
"326 366 CURVE SMOOTH",
"315 339 OFFCURVE",
"308 318 OFFCURVE",
"305 303 CURVE",
"252 111 OFFCURVE",
"187 15 OFFCURVE",
"112 15 CURVE SMOOTH",
"69 15 OFFCURVE",
"47 36 OFFCURVE",
"47 78 CURVE SMOOTH",
"47 109 OFFCURVE",
"59 160 OFFCURVE",
"82 230 CURVE SMOOTH",
"106 301 OFFCURVE",
"118 343 OFFCURVE",
"118 357 CURVE SMOOTH",
"118 374 OFFCURVE",
"112 383 OFFCURVE",
"101 383 CURVE SMOOTH",
"89 383 OFFCURVE",
"83 377 OFFCURVE",
"83 364 CURVE SMOOTH",
"83 351 OFFCURVE",
"79 333 OFFCURVE",
"72 309 CURVE SMOOTH",
"59 272 OFFCURVE",
"47 234 OFFCURVE",
"35 197 CURVE SMOOTH",
"20 151 OFFCURVE",
"13 113 OFFCURVE",
"13 84 CURVE SMOOTH",
"13 15 OFFCURVE",
"46 -19 OFFCURVE",
"111 -19 CURVE SMOOTH",
"178 -19 OFFCURVE",
"235 37 OFFCURVE",
"284 150 CURVE",
"283 138 OFFCURVE",
"283 126 OFFCURVE",
"283 115 CURVE SMOOTH",
"283 26 OFFCURVE",
"310 -18 OFFCURVE",
"365 -18 CURVE SMOOTH",
"421 -18 OFFCURVE",
"478 34 OFFCURVE",
"512 101 CURVE SMOOTH"
);
}
);
width = 478;
}
);
note = u;
unicode = 0075;
},
{
glyphname = v;
layers = (
{
hints = (
{
horizontal = 1;
place = "{-21, 34}";
type = Stem;
},
{
horizontal = 1;
place = "{375, 34}";
type = Stem;
},
{
place = "{21, 30}";
type = Stem;
},
{
place = "{193, 34}";
type = Stem;
},
{
place = "{295, 33}";
type = Stem;
}
);
layerId = "769237BE-90A6-4D5E-A4C9-331744B3656A";
paths = (
{
closed = 1;
nodes = (
"163 -21 OFFCURVE",
"213 22 OFFCURVE",
"262 108 CURVE SMOOTH",
"306 186 OFFCURVE",
"328 255 OFFCURVE",
"328 315 CURVE SMOOTH",
"328 378 OFFCURVE",
"302 409 OFFCURVE",
"251 409 CURVE SMOOTH",
"216 409 OFFCURVE",
"193 378 OFFCURVE",
"193 343 CURVE SMOOTH",
"193 331 OFFCURVE",
"197 319 OFFCURVE",
"205 308 CURVE SMOOTH",
"214 295 OFFCURVE",
"224 288 OFFCURVE",
"237 288 CURVE SMOOTH",
"248 288 OFFCURVE",
"253 294 OFFCURVE",
"253 305 CURVE SMOOTH",
"253 311 OFFCURVE",
"249 316 OFFCURVE",
"240 321 CURVE SMOOTH",
"231 326 OFFCURVE",
"227 333 OFFCURVE",
"227 343 CURVE SMOOTH",
"227 364 OFFCURVE",
"235 375 OFFCURVE",
"251 375 CURVE SMOOTH",
"280 375 OFFCURVE",
"295 355 OFFCURVE",
"295 314 CURVE SMOOTH",
"295 259 OFFCURVE",
"274 196 OFFCURVE",
"233 125 CURVE SMOOTH",
"189 50 OFFCURVE",
"147 13 OFFCURVE",
"108 13 CURVE SMOOTH",
"70 13 OFFCURVE",
"51 45 OFFCURVE",
"51 110 CURVE SMOOTH",
"51 165 OFFCURVE",
"62 229 OFFCURVE",
"84 300 CURVE SMOOTH",
"97 341 OFFCURVE",
"103 361 OFFCURVE",
"103 360 CURVE SMOOTH",
"103 370 OFFCURVE",
"98 375 OFFCURVE",
"89 376 CURVE SMOOTH",
"79 376 OFFCURVE",
"71 367 OFFCURVE",
"64 350 CURVE",
"52 310 LINE SMOOTH",
"31 240 OFFCURVE",
"21 176 OFFCURVE",
"21 117 CURVE SMOOTH",
"21 25 OFFCURVE",
"51 -21 OFFCURVE",
"112 -21 CURVE SMOOTH"
);
}
);
width = 340;
}
);
note = v;
unicode = 0076;
},
{
glyphname = w;
layers = (
{
hints = (
{
horizontal = 1;
place = "{-17, 34}";
type = Stem;
},
{
horizontal = 1;
place = "{420, 33}";
type = Stem;
},
{
place = "{14, 34}";
type = Stem;
},
{
place = "{243, 34}";
type = Stem;
},
{
place = "{386, 34}";
type = Stem;
},
{
place = "{527, 35}";
type = Stem;
},
{
horizontal = 1;
place = "{-24, 35}";
type = Stem;
}
);
layerId = "769237BE-90A6-4D5E-A4C9-331744B3656A";
paths = (
{
closed = 1;
nodes = (
"562 354 OFFCURVE",
"550 391 OFFCURVE",
"527 418 CURVE SMOOTH",
"507 441 OFFCURVE",
"483 453 OFFCURVE",
"456 453 CURVE SMOOTH",
"417 453 OFFCURVE",
"386 426 OFFCURVE",
"386 385 CURVE SMOOTH",
"386 354 OFFCURVE",
"411 328 OFFCURVE",
"442 328 CURVE SMOOTH",
"453 328 OFFCURVE",
"458 334 OFFCURVE",
"458 345 CURVE SMOOTH",
"458 367 OFFCURVE",
"420 353 OFFCURVE",
"420 386 CURVE SMOOTH",
"420 409 OFFCURVE",
"432 420 OFFCURVE",
"455 420 CURVE SMOOTH",
"474 420 OFFCURVE",
"490 411 OFFCURVE",
"503 393 CURVE SMOOTH",
"519 372 OFFCURVE",
"527 342 OFFCURVE",
"527 304 CURVE SMOOTH",
"527 247 OFFCURVE",
"507 187 OFFCURVE",
"466 122 CURVE SMOOTH",
"422 52 OFFCURVE",
"376 17 OFFCURVE",
"328 17 CURVE SMOOTH",
"295 17 OFFCURVE",
"278 36 OFFCURVE",
"277 74 CURVE SMOOTH",
"276 94 OFFCURVE",
"281 127 OFFCURVE",
"292 173 CURVE SMOOTH",
"314 254 OFFCURVE",
"330 310 OFFCURVE",
"341 342 CURVE",
"343 353 OFFCURVE",
"337 359 OFFCURVE",
"322 359 CURVE SMOOTH",
"315 359 OFFCURVE",
"311 356 OFFCURVE",
"308 351 CURVE",
"282 280 OFFCURVE",
"264 225 OFFCURVE",
"254 188 CURVE",
"213 70 OFFCURVE",
"163 11 OFFCURVE",
"106 11 CURVE SMOOTH",
"67 11 OFFCURVE",
"48 36 OFFCURVE",
"48 85 CURVE SMOOTH",
"48 138 OFFCURVE",
"75 228 OFFCURVE",
"129 356 CURVE SMOOTH",
"130 358 OFFCURVE",
"130 360 OFFCURVE",
"130 363 CURVE SMOOTH",
"130 374 OFFCURVE",
"124 379 OFFCURVE",
"112 379 CURVE SMOOTH",
"101 379 OFFCURVE",
"84 343 OFFCURVE",
"59 271 CURVE SMOOTH",
"36 208 OFFCURVE",
"23 164 OFFCURVE",
"19 140 CURVE SMOOTH",
"16 122 OFFCURVE",
"14 105 OFFCURVE",
"14 88 CURVE SMOOTH",
"14 13 OFFCURVE",
"45 -24 OFFCURVE",
"106 -24 CURVE SMOOTH",
"157 -24 OFFCURVE",
"203 12 OFFCURVE",
"243 83 CURVE",
"244 16 OFFCURVE",
"269 -17 OFFCURVE",
"320 -17 CURVE SMOOTH",
"391 -17 OFFCURVE",
"451 24 OFFCURVE",
"500 105 CURVE SMOOTH",
"541 172 OFFCURVE",
"562 239 OFFCURVE",
"562 305 CURVE SMOOTH"
);
}
);
width = 582;
}
);
note = w;
unicode = 0077;
},
{
glyphname = x;
lastChange = "2021-11-28 05:32:47 +0000";
layers = (
{
hints = (
{
horizontal = 1;
place = "{-25, 36}";
type = Stem;
},
{
horizontal = 1;
place = "{356, 34}";
type = Stem;
},
{
place = "{-25, 504}";
type = Stem;
}
);
layerId = "769237BE-90A6-4D5E-A4C9-331744B3656A";
paths = (
{
closed = 1;
nodes = (
"387 -25 OFFCURVE",
"443 34 OFFCURVE",
"477 101 CURVE SMOOTH",
"483 112 OFFCURVE",
"477 126 OFFCURVE",
"466 126 CURVE SMOOTH",
"459 126 OFFCURVE",
"447 111 OFFCURVE",
"443 104 CURVE SMOOTH",
"407 50 OFFCURVE",
"373 11 OFFCURVE",
"324 11 CURVE SMOOTH",
"295 11 OFFCURVE",
"268 37 OFFCURVE",
"245 89 CURVE SMOOTH",
"240 99 OFFCURVE",
"227 138 OFFCURVE",
"206 206 CURVE",
"311 315 OFFCURVE",
"363 383 OFFCURVE",
"363 412 CURVE SMOOTH",
"363 423 OFFCURVE",
"357 428 OFFCURVE",
"345 428 CURVE SMOOTH",
"336 428 OFFCURVE",
"330 420 OFFCURVE",
"325 405 CURVE SMOOTH",
"320 388 OFFCURVE",
"300 360 OFFCURVE",
"267 321 CURVE SMOOTH",
"254 306 OFFCURVE",
"229 279 OFFCURVE",
"193 241 CURVE",
"158 340 OFFCURVE",
"118 390 OFFCURVE",
"71 390 CURVE SMOOTH",
"43 390 OFFCURVE",
"29 383 OFFCURVE",
"29 369 CURVE SMOOTH",
"29 356 OFFCURVE",
"35 350 OFFCURVE",
"47 350 CURVE SMOOTH",
"54 350 OFFCURVE",
"67 356 OFFCURVE",
"74 356 CURVE SMOOTH",
"105 356 OFFCURVE",
"136 309 OFFCURVE",
"167 214 CURVE",
"60 105 OFFCURVE",
"-3 28 OFFCURVE",
"-24 -17 CURVE SMOOTH",
"-25 -19 OFFCURVE",
"-25 -21 OFFCURVE",
"-25 -24 CURVE SMOOTH",
"-25 -35 OFFCURVE",
"-19 -40 OFFCURVE",
"-8 -40 CURVE SMOOTH",
"-1 -40 OFFCURVE",
"5 -35 OFFCURVE",
"10 -26 CURVE SMOOTH",
"22 -4 LINE SMOOTH",
"38 26 OFFCURVE",
"64 56 OFFCURVE",
"95 91 CURVE SMOOTH",
"105 102 OFFCURVE",
"133 130 OFFCURVE",
"179 177 CURVE",
"199 110 OFFCURVE",
"214 67 OFFCURVE",
"223 49 CURVE SMOOTH",
"248 0 OFFCURVE",
"282 -25 OFFCURVE",
"325 -25 CURVE SMOOTH"
);
}
);
width = 443;
}
);
note = x;
unicode = 0078;
},
{
glyphname = y;
lastChange = "2021-11-28 05:32:00 +0000";
layers = (
{
hints = (
{
horizontal = 1;
place = "{-247, 33}";
type = Stem;
},
{
horizontal = 1;
place = "{-22, 32}";
type = Stem;
},
{
place = "{-60, 36}";
type = Stem;
},
{
place = "{96, 36}";
type = Stem;
},
{
place = "{-8, 35}";
type = Stem;
}
);
layerId = "769237BE-90A6-4D5E-A4C9-331744B3656A";
paths = (
{
closed = 1;
nodes = (
"479 105 OFFCURVE",
"480 107 OFFCURVE",
"480 110 CURVE SMOOTH",
"480 114 OFFCURVE",
"478 128 OFFCURVE",
"471 128 CURVE SMOOTH",
"466 128 OFFCURVE",
"459 128 OFFCURVE",
"455 123 CURVE SMOOTH",
"453 120 OFFCURVE",
"446 108 OFFCURVE",
"443 104 CURVE SMOOTH",
"399 36 OFFCURVE",
"339 -3 OFFCURVE",
"265 -22 CURVE",
"296 81 OFFCURVE",
"318 159 OFFCURVE",
"332 211 CURVE SMOOTH",
"370 354 LINE",
"371 367 OFFCURVE",
"365 374 OFFCURVE",
"351 374 CURVE SMOOTH",
"346 374 OFFCURVE",
"342 372 OFFCURVE",
"339 367 CURVE SMOOTH",
"321 330 OFFCURVE",
"308 303 OFFCURVE",
"301 284 CURVE SMOOTH",
"268 209 OFFCURVE",
"243 159 OFFCURVE",
"228 134 CURVE SMOOTH",
"193 79 OFFCURVE",
"154 41 OFFCURVE",
"110 21 CURVE SMOOTH",
"94 14 OFFCURVE",
"80 10 OFFCURVE",
"67 10 CURVE SMOOTH",
"40 10 OFFCURVE",
"27 25 OFFCURVE",
"27 56 CURVE SMOOTH",
"27 69 OFFCURVE",
"30 86 OFFCURVE",
"36 105 CURVE",
"59 162 OFFCURVE",
"78 204 OFFCURVE",
"93 231 CURVE SMOOTH",
"119 284 OFFCURVE",
"132 322 OFFCURVE",
"132 345 CURVE SMOOTH",
"132 360 OFFCURVE",
"122 381 OFFCURVE",
"107 381 CURVE SMOOTH",
"96 381 OFFCURVE",
"90 375 OFFCURVE",
"90 363 CURVE SMOOTH",
"90 359 OFFCURVE",
"96 346 OFFCURVE",
"96 339 CURVE SMOOTH",
"96 324 OFFCURVE",
"84 290 OFFCURVE",
"59 238 CURVE SMOOTH",
"8 130 LINE",
"-3 100 OFFCURVE",
"-8 74 OFFCURVE",
"-8 53 CURVE SMOOTH",
"-8 3 OFFCURVE",
"16 -22 OFFCURVE",
"63 -22 CURVE SMOOTH",
"84 -22 OFFCURVE",
"106 -16 OFFCURVE",
"130 -5 CURVE SMOOTH",
"191 22 OFFCURVE",
"243 82 OFFCURVE",
"287 175 CURVE",
"263 86 OFFCURVE",
"242 17 OFFCURVE",
"225 -31 CURVE",
"111 -46 LINE SMOOTH",
"60 -53 OFFCURVE",
"21 -66 OFFCURVE",
"-6 -83 CURVE SMOOTH",
"-42 -105 OFFCURVE",
"-60 -137 OFFCURVE",
"-60 -178 CURVE SMOOTH",
"-60 -223 OFFCURVE",
"-24 -247 OFFCURVE",
"20 -247 CURVE SMOOTH",
"68 -247 OFFCURVE",
"114 -227 OFFCURVE",
"159 -187 CURVE SMOOTH",
"198 -152 OFFCURVE",
"228 -110 OFFCURVE",
"250 -61 CURVE",
"355 -37 OFFCURVE",
"431 18 OFFCURVE",
"478 103 CURVE SMOOTH"
);
},
{
closed = 1;
nodes = (
"188 -106 OFFCURVE",
"162 -139 OFFCURVE",
"129 -166 CURVE SMOOTH",
"91 -198 OFFCURVE",
"54 -214 OFFCURVE",
"19 -214 CURVE SMOOTH",
"-10 -214 OFFCURVE",
"-24 -201 OFFCURVE",
"-24 -174 CURVE SMOOTH",
"-24 -133 OFFCURVE",
"7 -105 OFFCURVE",
"70 -88 CURVE",
"132 -77 OFFCURVE",
"178 -71 OFFCURVE",
"208 -68 CURVE"
);
}
);
width = 443;
}
);
note = y;
unicode = 0079;
},
